<?xml version="1.0" encoding="UTF-8"?>
<!--
  Mockup 05 — Página de configuración "Modo descanso" — REDISEÑO #3230
  Resolucion: 1440x900
  Demuestra:
    - Schema nuevo: calendario semanal con N periodos por dia (CA-1, CA-3, CA-4, CA-5)
    - Grid de 7 columnas (lunes..domingo) — CA-8.1
    - Boton "+ Periodo" y "x" por fila — CA-8.2
    - Dia vacio con placeholder "Sin descanso" — CA-8.3 + CA-5
    - Dia completo (00:00 -> 23:59) destacado — CA-6
    - Validacion cliente con tooltip de solapamiento — CA-8.4 (espejo de CA-6/SEC-3)
    - Status header con periodos del dia y proximo — CA-8.5
    - Toggle global ON/OFF + timezone — preserva CA-1.9 y backwards-compat (CA-2)
    - Toast de confirmacion + hot-reload sin reinicio — CA-8.7
    - Bypass labels read-only desde config.yaml
  Reemplaza al mockup 05 anterior (single-window: start/end + dias).
  Tokens: design-tokens.css (rest-mode-fg, rest-mode-bg, surface-*, info, danger).
-->
<svg xmlns="http://www.w3.org/2000/svg" width="1440" height="900" viewBox="0 0 1440 900"
     font-family="-apple-system, 'Segoe UI', system-ui, sans-serif">

  <defs>
    <linearGradient id="brandGrad05" x1="0" y1="0" x2="1" y2="0">
      <stop offset="0%" stop-color="#00D6FF"/>
      <stop offset="100%" stop-color="#1890FF"/>
    </linearGradient>
    <linearGradient id="restPanel05" x1="0" y1="0" x2="0" y2="1">
      <stop offset="0%" stop-color="#1F1645" stop-opacity="0.45"/>
      <stop offset="100%" stop-color="#161B22" stop-opacity="1"/>
    </linearGradient>
    <linearGradient id="todayCol05" x1="0" y1="0" x2="0" y2="1">
      <stop offset="0%" stop-color="#7C5CFF" stop-opacity="0.22"/>
      <stop offset="100%" stop-color="#7C5CFF" stop-opacity="0.06"/>
    </linearGradient>
  </defs>

  <!-- Fondo -->
  <rect width="1440" height="900" fill="#0D1117"/>

  <!-- =============== HEADER =============== -->
  <rect x="0" y="0" width="1440" height="64" fill="#161B22"/>
  <rect x="0" y="63" width="1440" height="1" fill="#30363D"/>
  <g transform="translate(24, 14)">
    <rect width="36" height="36" rx="9" fill="#0D274D"/>
    <path d="M18 7 L5 30 L31 30 Z" fill="none" stroke="url(#brandGrad05)" stroke-width="2.5"
          stroke-linejoin="round"/>
    <path d="M18 16 L13 26 L23 26 Z" fill="url(#brandGrad05)"/>
  </g>
  <text x="72" y="32" fill="#E6EDF3" font-size="17" font-weight="700">Intrale Pipeline</text>
  <text x="72" y="50" fill="#8B949E" font-size="10" font-weight="600" letter-spacing="1.4">SETTINGS · MODO DESCANSO</text>

  <!-- Pill estado actual: ahora reporta cuantos periodos aplican hoy + proximo (CA-8.5) -->
  <g transform="translate(266, 18)">
    <rect width="276" height="28" rx="14" fill="#7C5CFF" fill-opacity="0.20" stroke="#7C5CFF" stroke-opacity="0.55"/>
    <g transform="translate(10, 5)" fill="none" stroke="#C5B7FF" stroke-width="1.6">
      <path d="M16 11 A6.5 6.5 0 1 1 9.5 5 A5 5 0 0 0 16 11 Z" stroke-linejoin="round"/>
    </g>
    <text x="36" y="18" fill="#C5B7FF" font-size="11" font-weight="700" letter-spacing="0.8">
      ACTIVO · 2 PERIODOS HOY · PRoXIMO 22:00–07:00
    </text>
  </g>
  <text x="1416" y="38" fill="#8B949E" font-size="11" text-anchor="end" font-family="'SF Mono', Consolas, monospace">
    localhost:3200/modo-descanso
  </text>

  <!-- =============== SIDEBAR =============== -->
  <rect x="0" y="64" width="220" height="836" fill="#161B22"/>
  <rect x="220" y="64" width="1" height="836" fill="#30363D"/>

  <g font-size="13" fill="#B1BAC4" font-weight="500">
    <text x="20" y="100" fill="#8B949E" font-size="10" letter-spacing="1.6">PIPELINE</text>
    <g transform="translate(20, 116)"><text x="0" y="14">Board</text></g>
    <g transform="translate(20, 144)"><text x="0" y="14">Issues</text></g>
    <g transform="translate(20, 172)"><text x="0" y="14">Consumo</text></g>

    <text x="20" y="218" fill="#8B949E" font-size="10" letter-spacing="1.6">OPERACIoN</text>

    <!-- Item activo: Modo descanso -->
    <g transform="translate(0, 234)">
      <rect width="220" height="36" fill="#7C5CFF" fill-opacity="0.12"/>
      <rect width="3" height="36" fill="#7C5CFF"/>
      <g transform="translate(20, 8)" fill="none" stroke="#C5B7FF" stroke-width="1.6">
        <path d="M16 11 A6.5 6.5 0 1 1 9.5 5 A5 5 0 0 0 16 11 Z" stroke-linejoin="round"/>
        <circle cx="14" cy="4" r="0.5" fill="#C5B7FF"/>
      </g>
      <text x="48" y="22" fill="#C5B7FF" font-size="13" font-weight="700">Modo descanso</text>
    </g>

    <g transform="translate(20, 286)"><text x="0" y="14">Pausa parcial</text></g>
    <g transform="translate(20, 314)"><text x="0" y="14">Ventanas QA/Build</text></g>
    <g transform="translate(20, 342)"><text x="0" y="14">Bloqueado humano</text></g>

    <text x="20" y="388" fill="#8B949E" font-size="10" letter-spacing="1.6">SISTEMA</text>
    <g transform="translate(20, 404)"><text x="0" y="14">Salud</text></g>
    <g transform="translate(20, 432)"><text x="0" y="14">Logs</text></g>
  </g>

  <!-- =============== MAIN CONTENT =============== -->
  <g transform="translate(252, 92)">

    <!-- Title + breadcrumb -->
    <text x="0" y="0" fill="#8B949E" font-size="11" letter-spacing="1.2">SETTINGS / OPERACIoN /</text>
    <text x="0" y="28" fill="#E6EDF3" font-size="24" font-weight="700">Modo descanso · calendario semanal</text>
    <text x="0" y="50" fill="#B1BAC4" font-size="12">
      Definir bloques horarios independientes por dia. Multiple periodos por dia (siesta + noche),
      cruce de medianoche y dias libres. Los agentes deterministicos siguen corriendo siempre.
    </text>

    <!-- =============== CARD 1: TOGGLE GLOBAL + TIMEZONE =============== -->
    <g transform="translate(0, 68)">
      <rect width="1156" height="78" rx="12" fill="url(#restPanel05)" stroke="#30363D"/>

      <!-- Toggle ON -->
      <g transform="translate(24, 22)">
        <rect width="48" height="26" rx="13" fill="#7C5CFF"/>
        <circle cx="35" cy="13" r="10" fill="#FFFFFF"/>
      </g>
      <text x="84" y="34" fill="#E6EDF3" font-size="14" font-weight="700">Modo descanso activo</text>
      <text x="84" y="52" fill="#8B949E" font-size="11">Si lo desactivas, el pipeline opera sin restricciones horarias (CA-1.9)</text>

      <!-- Timezone -->
      <g transform="translate(620, 18)">
        <text x="0" y="0" fill="#B1BAC4" font-size="10" font-weight="600" letter-spacing="0.8">ZONA HORARIA</text>
        <rect x="0" y="8" width="280" height="36" rx="8" fill="#0D1117" stroke="#30363D"/>
        <text x="14" y="32" fill="#E6EDF3" font-size="13">America/Argentina/Buenos_Aires</text>
        <path d="M260 26 L266 32 L272 26" fill="none" stroke="#8B949E" stroke-width="1.5"
              stroke-linecap="round" stroke-linejoin="round"/>
      </g>

      <!-- Reloj local actual -->
      <g transform="translate(940, 18)">
        <text x="0" y="0" fill="#B1BAC4" font-size="10" font-weight="600" letter-spacing="0.8">AHORA LOCAL</text>
        <rect x="0" y="8" width="184" height="36" rx="8" fill="#0D1117" stroke="#7C5CFF" stroke-opacity="0.45"/>
        <text x="92" y="32" fill="#C5B7FF" font-size="16" font-weight="700" text-anchor="middle"
              font-family="'SF Mono', Consolas, monospace" letter-spacing="1.5">Lun 14:23</text>
      </g>
    </g>

    <!-- =============== CARD 2: CALENDARIO SEMANAL (grid 7 columnas) =============== -->
    <g transform="translate(0, 162)">
      <rect width="1156" height="396" rx="12" fill="#161B22" stroke="#30363D"/>

      <!-- Card header -->
      <text x="24" y="32" fill="#E6EDF3" font-size="16" font-weight="700">Calendario semanal</text>
      <text x="24" y="52" fill="#B1BAC4" font-size="12">
        Cada columna es un dia. Sumar/quitar bloques con + Periodo y x. Los periodos que cruzan medianoche cuentan en el dia donde arrancan.
      </text>

      <!-- Leyenda compacta -->
      <g transform="translate(820, 22)" font-size="11">
        <g><rect width="14" height="14" rx="3" fill="#7C5CFF" fill-opacity="0.20" stroke="#7C5CFF" stroke-opacity="0.55"/>
           <text x="22" y="11" fill="#B1BAC4">activo ahora</text></g>
        <g transform="translate(120, 0)"><rect width="14" height="14" rx="3" fill="none" stroke="#30363D" stroke-dasharray="3 3"/>
           <text x="22" y="11" fill="#B1BAC4">dia vacio</text></g>
        <g transform="translate(218, 0)"><rect width="14" height="14" rx="3" fill="#F85149" fill-opacity="0.18" stroke="#F85149" stroke-opacity="0.55"/>
           <text x="22" y="11" fill="#B1BAC4">solapamiento</text></g>
      </g>

      <!-- Grid divider -->
      <rect x="0" y="68" width="1156" height="1" fill="#30363D"/>

      <!-- ============ COLUMNAS — 7 dias ============ -->
      <!-- Anchos: col_w = 150, gap = 10, x_inicial = 14 + i*160 -->

      <!-- ====== LUNES (hoy, dentro de ventana 13:00-16:00) ====== -->
      <g transform="translate(14, 80)">
        <!-- background highlight para today -->
        <rect width="150" height="300" rx="8" fill="url(#todayCol05)"/>
        <!-- Day header -->
        <g transform="translate(0, 12)">
          <text x="14" y="14" fill="#C5B7FF" font-size="11" font-weight="700" letter-spacing="1.4">LUN</text>
          <text x="14" y="30" fill="#E6EDF3" font-size="13" font-weight="700">Lunes</text>
          <g transform="translate(116, 6)">
            <rect width="22" height="16" rx="8" fill="#7C5CFF" fill-opacity="0.30" stroke="#7C5CFF" stroke-opacity="0.6"/>
            <text x="11" y="12" fill="#C5B7FF" font-size="9" font-weight="700" text-anchor="middle">2</text>
          </g>
        </g>
        <rect x="10" y="50" width="130" height="1" fill="#30363D"/>

        <!-- Periodo 1: 13:00 -> 16:00 (ACTIVO AHORA) -->
        <g transform="translate(10, 60)">
          <rect width="130" height="50" rx="8" fill="#7C5CFF" fill-opacity="0.18" stroke="#7C5CFF" stroke-opacity="0.65"/>
          <text x="10" y="14" fill="#8B949E" font-size="9" letter-spacing="0.8">SIESTA · AHORA</text>
          <text x="10" y="34" fill="#C5B7FF" font-size="13" font-weight="700"
                font-family="'SF Mono', Consolas, monospace" letter-spacing="0.5">13:00 → 16:00</text>
          <!-- x delete -->
          <g transform="translate(108, 6)">
            <rect width="18" height="18" rx="4" fill="none" stroke="#484F58"/>
            <path d="M6 6 L12 12 M12 6 L6 12" stroke="#8B949E" stroke-width="1.4" stroke-linecap="round"/>
          </g>
          <!-- live indicator -->
          <circle cx="125" cy="40" r="3" fill="#3FB950">
            <animate attributeName="opacity" values="1;0.4;1" dur="2s" repeatCount="indefinite"/>
          </circle>
        </g>

        <!-- Periodo 2: 22:00 -> 07:00 (cross-midnight) -->
        <g transform="translate(10, 120)">
          <rect width="130" height="50" rx="8" fill="#0D1117" stroke="#30363D"/>
          <text x="10" y="14" fill="#8B949E" font-size="9" letter-spacing="0.8">NOCHE · +1 dIA</text>
          <text x="10" y="34" fill="#E6EDF3" font-size="13" font-weight="700"
                font-family="'SF Mono', Consolas, monospace" letter-spacing="0.5">22:00 → 07:00</text>
          <g transform="translate(108, 6)">
            <rect width="18" height="18" rx="4" fill="none" stroke="#484F58"/>
            <path d="M6 6 L12 12 M12 6 L6 12" stroke="#8B949E" stroke-width="1.4" stroke-linecap="round"/>
          </g>
          <!-- moon glyph cross-midnight -->
          <g transform="translate(112, 34)" fill="none" stroke="#7C5CFF" stroke-width="1.2">
            <path d="M10 7 A4 4 0 1 1 6 3 A3 3 0 0 0 10 7 Z" stroke-linejoin="round"/>
          </g>
        </g>

        <!-- + Periodo -->
        <g transform="translate(10, 184)">
          <rect width="130" height="32" rx="8" fill="none" stroke="#7C5CFF" stroke-opacity="0.45" stroke-dasharray="4 4"/>
          <text x="65" y="20" fill="#C5B7FF" font-size="11" font-weight="600" text-anchor="middle">+ Periodo</text>
        </g>
      </g>

      <!-- ====== MARTES (1 periodo nocturno) ====== -->
      <g transform="translate(174, 80)">
        <g transform="translate(0, 12)">
          <text x="14" y="14" fill="#8B949E" font-size="11" font-weight="700" letter-spacing="1.4">MAR</text>
          <text x="14" y="30" fill="#E6EDF3" font-size="13" font-weight="700">Martes</text>
          <g transform="translate(116, 6)">
            <rect width="22" height="16" rx="8" fill="#30363D"/>
            <text x="11" y="12" fill="#B1BAC4" font-size="9" font-weight="700" text-anchor="middle">1</text>
          </g>
        </g>
        <rect x="10" y="50" width="130" height="1" fill="#30363D"/>

        <g transform="translate(10, 60)">
          <rect width="130" height="50" rx="8" fill="#0D1117" stroke="#30363D"/>
          <text x="10" y="14" fill="#8B949E" font-size="9" letter-spacing="0.8">NOCHE · +1 dIA</text>
          <text x="10" y="34" fill="#E6EDF3" font-size="13" font-weight="700"
                font-family="'SF Mono', Consolas, monospace" letter-spacing="0.5">22:00 → 07:00</text>
          <g transform="translate(108, 6)">
            <rect width="18" height="18" rx="4" fill="none" stroke="#484F58"/>
            <path d="M6 6 L12 12 M12 6 L6 12" stroke="#8B949E" stroke-width="1.4" stroke-linecap="round"/>
          </g>
          <g transform="translate(112, 34)" fill="none" stroke="#7C5CFF" stroke-width="1.2">
            <path d="M10 7 A4 4 0 1 1 6 3 A3 3 0 0 0 10 7 Z" stroke-linejoin="round"/>
          </g>
        </g>

        <g transform="translate(10, 124)">
          <rect width="130" height="32" rx="8" fill="none" stroke="#30363D" stroke-dasharray="4 4"/>
          <text x="65" y="20" fill="#6E7681" font-size="11" font-weight="600" text-anchor="middle">+ Periodo</text>
        </g>
      </g>

      <!-- ====== MIERCOLES (2 periodos — siesta corta + noche) ====== -->
      <g transform="translate(334, 80)">
        <g transform="translate(0, 12)">
          <text x="14" y="14" fill="#8B949E" font-size="11" font-weight="700" letter-spacing="1.4">MIE</text>
          <text x="14" y="30" fill="#E6EDF3" font-size="13" font-weight="700">Miercoles</text>
          <g transform="translate(116, 6)">
            <rect width="22" height="16" rx="8" fill="#30363D"/>
            <text x="11" y="12" fill="#B1BAC4" font-size="9" font-weight="700" text-anchor="middle">2</text>
          </g>
        </g>
        <rect x="10" y="50" width="130" height="1" fill="#30363D"/>

        <g transform="translate(10, 60)">
          <rect width="130" height="50" rx="8" fill="#0D1117" stroke="#30363D"/>
          <text x="10" y="14" fill="#8B949E" font-size="9" letter-spacing="0.8">SIESTA CORTA</text>
          <text x="10" y="34" fill="#E6EDF3" font-size="13" font-weight="700"
                font-family="'SF Mono', Consolas, monospace" letter-spacing="0.5">12:30 → 14:00</text>
          <g transform="translate(108, 6)">
            <rect width="18" height="18" rx="4" fill="none" stroke="#484F58"/>
            <path d="M6 6 L12 12 M12 6 L6 12" stroke="#8B949E" stroke-width="1.4" stroke-linecap="round"/>
          </g>
        </g>

        <g transform="translate(10, 120)">
          <rect width="130" height="50" rx="8" fill="#0D1117" stroke="#30363D"/>
          <text x="10" y="14" fill="#8B949E" font-size="9" letter-spacing="0.8">NOCHE · +1 dIA</text>
          <text x="10" y="34" fill="#E6EDF3" font-size="13" font-weight="700"
                font-family="'SF Mono', Consolas, monospace" letter-spacing="0.5">23:00 → 08:00</text>
          <g transform="translate(108, 6)">
            <rect width="18" height="18" rx="4" fill="none" stroke="#484F58"/>
            <path d="M6 6 L12 12 M12 6 L6 12" stroke="#8B949E" stroke-width="1.4" stroke-linecap="round"/>
          </g>
          <g transform="translate(112, 34)" fill="none" stroke="#7C5CFF" stroke-width="1.2">
            <path d="M10 7 A4 4 0 1 1 6 3 A3 3 0 0 0 10 7 Z" stroke-linejoin="round"/>
          </g>
        </g>

        <g transform="translate(10, 184)">
          <rect width="130" height="32" rx="8" fill="none" stroke="#30363D" stroke-dasharray="4 4"/>
          <text x="65" y="20" fill="#6E7681" font-size="11" font-weight="600" text-anchor="middle">+ Periodo</text>
        </g>
      </g>

      <!-- ====== JUEVES (1 periodo + edicion en curso, demuestra el morph skip) ====== -->
      <g transform="translate(494, 80)">
        <g transform="translate(0, 12)">
          <text x="14" y="14" fill="#8B949E" font-size="11" font-weight="700" letter-spacing="1.4">JUE</text>
          <text x="14" y="30" fill="#E6EDF3" font-size="13" font-weight="700">Jueves</text>
          <g transform="translate(116, 6)">
            <rect width="22" height="16" rx="8" fill="#30363D"/>
            <text x="11" y="12" fill="#B1BAC4" font-size="9" font-weight="700" text-anchor="middle">1</text>
          </g>
        </g>
        <rect x="10" y="50" width="130" height="1" fill="#30363D"/>

        <!-- Periodo en edicion (cursor + foco visible) -->
        <g transform="translate(10, 60)">
          <rect width="130" height="50" rx="8" fill="#0D1117" stroke="#00D6FF" stroke-width="1.5"/>
          <text x="10" y="14" fill="#8B949E" font-size="9" letter-spacing="0.8">NOCHE · EDITANDO</text>
          <rect x="8" y="22" width="48" height="20" rx="4" fill="#161B22" stroke="#00D6FF" stroke-opacity="0.55"/>
          <text x="32" y="36" fill="#E6EDF3" font-size="11" font-weight="700" text-anchor="middle"
                font-family="'SF Mono', Consolas, monospace">22:00</text>
          <!-- cursor blink visual -->
          <rect x="44" y="25" width="1.5" height="14" fill="#00D6FF">
            <animate attributeName="opacity" values="1;0;1" dur="1s" repeatCount="indefinite"/>
          </rect>
          <text x="62" y="36" fill="#6E7681" font-size="13" font-weight="700">→</text>
          <rect x="72" y="22" width="48" height="20" rx="4" fill="#0D1117" stroke="#30363D"/>
          <text x="96" y="36" fill="#B1BAC4" font-size="11" font-weight="700" text-anchor="middle"
                font-family="'SF Mono', Consolas, monospace">07:00</text>
          <g transform="translate(122, 6)">
            <rect width="18" height="18" rx="4" fill="none" stroke="#484F58"/>
            <path d="M6 6 L12 12 M12 6 L6 12" stroke="#8B949E" stroke-width="1.4" stroke-linecap="round"/>
          </g>
        </g>

        <!-- Toast inline: editando, polling pausado -->
        <g transform="translate(10, 120)">
          <rect width="130" height="38" rx="6" fill="#00D6FF" fill-opacity="0.08" stroke="#00D6FF" stroke-opacity="0.35"/>
          <text x="65" y="16" fill="#7BD7F5" font-size="9" font-weight="700" text-anchor="middle" letter-spacing="0.8">EDITANDO</text>
          <text x="65" y="30" fill="#8B949E" font-size="9" text-anchor="middle">polling pausado (CA-8.7)</text>
        </g>

        <g transform="translate(10, 170)">
          <rect width="130" height="32" rx="8" fill="none" stroke="#30363D" stroke-dasharray="4 4"/>
          <text x="65" y="20" fill="#6E7681" font-size="11" font-weight="600" text-anchor="middle">+ Periodo</text>
        </g>
      </g>

      <!-- ====== VIERNES (viernes corto, demuestra que el dia puede tener diferente largo) ====== -->
      <g transform="translate(654, 80)">
        <g transform="translate(0, 12)">
          <text x="14" y="14" fill="#8B949E" font-size="11" font-weight="700" letter-spacing="1.4">VIE</text>
          <text x="14" y="30" fill="#E6EDF3" font-size="13" font-weight="700">Viernes</text>
          <g transform="translate(116, 6)">
            <rect width="22" height="16" rx="8" fill="#30363D"/>
            <text x="11" y="12" fill="#B1BAC4" font-size="9" font-weight="700" text-anchor="middle">1</text>
          </g>
        </g>
        <rect x="10" y="50" width="130" height="1" fill="#30363D"/>

        <g transform="translate(10, 60)">
          <rect width="130" height="50" rx="8" fill="#0D1117" stroke="#30363D"/>
          <text x="10" y="14" fill="#8B949E" font-size="9" letter-spacing="0.8">CORTO · +1 dIA</text>
          <text x="10" y="34" fill="#E6EDF3" font-size="13" font-weight="700"
                font-family="'SF Mono', Consolas, monospace" letter-spacing="0.5">22:00 → 08:00</text>
          <g transform="translate(108, 6)">
            <rect width="18" height="18" rx="4" fill="none" stroke="#484F58"/>
            <path d="M6 6 L12 12 M12 6 L6 12" stroke="#8B949E" stroke-width="1.4" stroke-linecap="round"/>
          </g>
          <g transform="translate(112, 34)" fill="none" stroke="#7C5CFF" stroke-width="1.2">
            <path d="M10 7 A4 4 0 1 1 6 3 A3 3 0 0 0 10 7 Z" stroke-linejoin="round"/>
          </g>
        </g>

        <g transform="translate(10, 124)">
          <rect width="130" height="32" rx="8" fill="none" stroke="#30363D" stroke-dasharray="4 4"/>
          <text x="65" y="20" fill="#6E7681" font-size="11" font-weight="600" text-anchor="middle">+ Periodo</text>
        </g>
      </g>

      <!-- ====== SABADO (dia vacio — placeholder CA-8.3) ====== -->
      <g transform="translate(814, 80)">
        <g transform="translate(0, 12)">
          <text x="14" y="14" fill="#8B949E" font-size="11" font-weight="700" letter-spacing="1.4">SAB</text>
          <text x="14" y="30" fill="#E6EDF3" font-size="13" font-weight="700">Sabado</text>
          <g transform="translate(116, 6)">
            <rect width="22" height="16" rx="8" fill="none" stroke="#30363D" stroke-dasharray="3 3"/>
            <text x="11" y="12" fill="#6E7681" font-size="9" font-weight="700" text-anchor="middle">0</text>
          </g>
        </g>
        <rect x="10" y="50" width="130" height="1" fill="#30363D"/>

        <!-- Placeholder dia libre -->
        <g transform="translate(10, 60)">
          <rect width="130" height="110" rx="8" fill="none" stroke="#30363D" stroke-dasharray="3 3"/>
          <g transform="translate(54, 28)" fill="none" stroke="#6E7681" stroke-width="1.4">
            <circle cx="11" cy="11" r="9"/>
          </g>
          <text x="65" y="84" fill="#8B949E" font-size="11" font-weight="600" text-anchor="middle">Sin descanso</text>
          <text x="65" y="100" fill="#6E7681" font-size="10" text-anchor="middle">dia libre completo</text>
        </g>

        <g transform="translate(10, 184)">
          <rect width="130" height="32" rx="8" fill="none" stroke="#7C5CFF" stroke-opacity="0.45" stroke-dasharray="4 4"/>
          <text x="65" y="20" fill="#C5B7FF" font-size="11" font-weight="600" text-anchor="middle">+ Periodo</text>
        </g>
      </g>

      <!-- ====== DOMINGO (dia completo: 00:00 -> 23:59 — CA-6 caso especial) ====== -->
      <g transform="translate(974, 80)">
        <g transform="translate(0, 12)">
          <text x="14" y="14" fill="#8B949E" font-size="11" font-weight="700" letter-spacing="1.4">DOM</text>
          <text x="14" y="30" fill="#E6EDF3" font-size="13" font-weight="700">Domingo</text>
          <g transform="translate(116, 6)">
            <rect width="22" height="16" rx="8" fill="#30363D"/>
            <text x="11" y="12" fill="#B1BAC4" font-size="9" font-weight="700" text-anchor="middle">1</text>
          </g>
        </g>
        <rect x="10" y="50" width="130" height="1" fill="#30363D"/>

        <g transform="translate(10, 60)">
          <rect width="130" height="50" rx="8" fill="#7C5CFF" fill-opacity="0.10" stroke="#7C5CFF" stroke-opacity="0.45"/>
          <text x="10" y="14" fill="#C5B7FF" font-size="9" letter-spacing="0.8" font-weight="700">DiA COMPLETO</text>
          <text x="10" y="34" fill="#C5B7FF" font-size="13" font-weight="700"
                font-family="'SF Mono', Consolas, monospace" letter-spacing="0.5">00:00 → 23:59</text>
          <g transform="translate(108, 6)">
            <rect width="18" height="18" rx="4" fill="none" stroke="#484F58"/>
            <path d="M6 6 L12 12 M12 6 L6 12" stroke="#8B949E" stroke-width="1.4" stroke-linecap="round"/>
          </g>
        </g>

        <g transform="translate(10, 124)">
          <rect width="130" height="32" rx="8" fill="none" stroke="#30363D" stroke-dasharray="4 4"/>
          <text x="65" y="20" fill="#6E7681" font-size="11" font-weight="600" text-anchor="middle">+ Periodo</text>
        </g>
      </g>

      <!-- ============ Footer del card: hint de validacion + atajos teclado ============ -->
      <rect x="0" y="356" width="1156" height="1" fill="#30363D"/>
      <g transform="translate(24, 374)">
        <text x="0" y="0" fill="#8B949E" font-size="11">
          <tspan fill="#C5B7FF" font-weight="700">tip</tspan> · validacion en cliente: se detectan solapamientos antes del submit y se marca el periodo en rojo con tooltip (CA-8.4 / SEC-3).
        </text>
      </g>
      <g transform="translate(900, 374)" font-size="11" fill="#8B949E">
        <text x="0" y="0">
          <tspan font-family="'SF Mono', Consolas, monospace" fill="#B1BAC4">Tab</tspan> entre periodos ·
          <tspan font-family="'SF Mono', Consolas, monospace" fill="#B1BAC4">Enter</tspan> guarda
        </text>
      </g>
    </g>

    <!-- =============== CARD 3: BYPASS LABELS (read-only) + ACCIONES =============== -->
    <g transform="translate(0, 576)">
      <rect width="780" height="104" rx="12" fill="#161B22" stroke="#30363D"/>
      <text x="24" y="32" fill="#E6EDF3" font-size="14" font-weight="700">Bypass por label</text>
      <text x="24" y="52" fill="#B1BAC4" font-size="11">
        Issues con estos labels se ejecutan aunque la ventana este activa. Read-only desde config.yaml.
      </text>

      <g transform="translate(24, 64)">
        <rect width="142" height="28" rx="14" fill="#F85149" fill-opacity="0.16" stroke="#F85149" stroke-opacity="0.45"/>
        <text x="71" y="18" fill="#F85149" font-size="11" font-weight="700" text-anchor="middle">priority:critical</text>
      </g>

      <text x="755" y="32" fill="#8B949E" font-size="11" text-anchor="end">config.yaml · read-only</text>
    </g>

    <!-- CARD AUDIT (preview corto) -->
    <g transform="translate(796, 576)">
      <rect width="360" height="104" rx="12" fill="#161B22" stroke="#30363D"/>
      <text x="20" y="28" fill="#E6EDF3" font-size="13" font-weight="700">Audit trail</text>
      <text x="20" y="46" fill="#8B949E" font-size="10" font-family="'SF Mono', Consolas, monospace">
        rest-mode-audit.jsonl
      </text>
      <text x="20" y="68" fill="#B1BAC4" font-size="11">
        Cada cambio del schedule completo se persiste con prev/next.
      </text>
      <text x="20" y="86" fill="#3FB950" font-size="10" font-family="'SF Mono', Consolas, monospace">
        ultima entrada · hoy 14:18 · 2 periodos lun, 1 mar...
      </text>
    </g>

    <!-- ============== ACCIONES ============== -->
    <g transform="translate(0, 696)">
      <text x="0" y="22" fill="#8B949E" font-size="11" font-style="italic">
        Los cambios aplican con hot-reload, sin reinicio del pipeline.
      </text>
      <g transform="translate(984, 0)">
        <rect width="80" height="36" rx="8" fill="none" stroke="#30363D"/>
        <text x="40" y="23" fill="#B1BAC4" font-size="12" text-anchor="middle">Cancelar</text>
      </g>
      <g transform="translate(1072, 0)">
        <rect width="84" height="36" rx="8" fill="#7C5CFF"/>
        <text x="42" y="23" fill="#FFFFFF" font-size="12" font-weight="700" text-anchor="middle">Guardar</text>
      </g>
    </g>

  </g>

  <!-- =============== TOAST DE CONFIRMACION =============== -->
  <g transform="translate(996, 824)">
    <rect width="412" height="60" rx="10" fill="#161B22" stroke="#3FB950" stroke-opacity="0.5"/>
    <rect width="3" height="60" fill="#3FB950"/>
    <g transform="translate(20, 18)" fill="none" stroke="#3FB950" stroke-width="1.75">
      <circle cx="12" cy="12" r="9"/>
      <path d="M8 12.5 L11 15.5 L16 9.5" stroke-linecap="round" stroke-linejoin="round"/>
    </g>
    <text x="56" y="28" fill="#E6EDF3" font-size="13" font-weight="700">Calendario guardado</text>
    <text x="56" y="46" fill="#B1BAC4" font-size="11">7 dias · 8 periodos · hot-reload sin reinicio del pipeline</text>
  </g>

</svg>
