<?xml version="1.0" encoding="UTF-8"?>
<!--
  Mockup 12 — Panel "Permission Overrides" del tab Multi-Provider (#3177 §6)
  -----------------------------------------------------------------------------
  Tab interna dentro del tab Multi-Provider que lista overrides activos al
  fail-CLOSED definidos en #3082, formulario para crear, historial y
  validaciones server-side.

  Cubre CA-20..CA-26 + CA-31..CA-33 del issue.
-->
<svg xmlns="http://www.w3.org/2000/svg" viewBox="0 0 1440 1100" font-family="-apple-system, 'Segoe UI Variable', 'Segoe UI', Roboto, sans-serif">
  <defs>
    <symbol id="m-override" viewBox="0 0 24 24">
      <path d="M12 3 L20 6 V12 C20 16.5 16.5 19.5 12 21 C7.5 19.5 4 16.5 4 12 V6 Z" fill="none" stroke="currentColor" stroke-width="1.75" stroke-linejoin="round"/>
      <circle cx="12" cy="12" r="3.5" fill="none" stroke="currentColor" stroke-width="1.5"/>
      <path d="M12 10 V12 L13.5 13.2" fill="none" stroke="currentColor" stroke-width="1.4" stroke-linecap="round" stroke-linejoin="round"/>
    </symbol>
    <symbol id="m-revoke" viewBox="0 0 24 24">
      <circle cx="12" cy="12" r="9" fill="none" stroke="currentColor" stroke-width="1.75"/>
      <path d="M8 8 L16 16 M16 8 L8 16" stroke="currentColor" stroke-width="1.75" stroke-linecap="round"/>
    </symbol>
    <symbol id="m-renew" viewBox="0 0 24 24">
      <circle cx="12" cy="12" r="7" fill="none" stroke="currentColor" stroke-width="1.75"/>
      <path d="M12 8 V12 L14.5 13.5" fill="none" stroke="currentColor" stroke-width="1.5" stroke-linecap="round" stroke-linejoin="round"/>
      <path d="M19 5 V9 H15" fill="none" stroke="currentColor" stroke-width="1.5" stroke-linecap="round" stroke-linejoin="round"/>
      <path d="M19 9 C17.5 6.5 15 5 12 5" fill="none" stroke="currentColor" stroke-width="1.5" stroke-linecap="round"/>
    </symbol>
    <symbol id="m-shield-lock" viewBox="0 0 24 24">
      <path d="M12 3 L20 6 V12 C20 16.5 16.5 19.5 12 21 C7.5 19.5 4 16.5 4 12 V6 Z" fill="none" stroke="currentColor" stroke-width="1.75" stroke-linejoin="round"/>
      <rect x="9.5" y="11.5" width="5" height="5" rx="0.6" fill="currentColor" opacity="0.16"/>
      <rect x="9.5" y="11.5" width="5" height="5" rx="0.6" fill="none" stroke="currentColor" stroke-width="1.4"/>
      <path d="M10.5 11.5 V10 C10.5 9.2 11.1 8.5 12 8.5 C12.9 8.5 13.5 9.2 13.5 10 V11.5" fill="none" stroke="currentColor" stroke-width="1.3"/>
    </symbol>
    <symbol id="m-ttl" viewBox="0 0 24 24">
      <circle cx="12" cy="12" r="8.5" fill="none" stroke="currentColor" stroke-width="1.5" opacity="0.35"/>
      <path d="M12 3.5 A8.5 8.5 0 1 1 3.5 12" fill="none" stroke="currentColor" stroke-width="1.75" stroke-linecap="round"/>
      <path d="M12 8 V12 L14.5 13.5" fill="none" stroke="currentColor" stroke-width="1.5" stroke-linecap="round" stroke-linejoin="round"/>
    </symbol>
    <symbol id="m-multi-provider" viewBox="0 0 24 24">
      <circle cx="9" cy="10" r="4.5" fill="none" stroke="currentColor" stroke-width="1.6"/>
      <path d="M9 4 V5.5 M9 14.5 V16 M3 10 H4.5 M13.5 10 H15 M4.7 5.7 L5.7 6.7 M12.3 13.3 L13.3 14.3 M4.7 14.3 L5.7 13.3 M12.3 6.7 L13.3 5.7" stroke="currentColor" stroke-width="1.4" stroke-linecap="round"/>
      <circle cx="9" cy="10" r="1.6" fill="currentColor"/>
      <circle cx="16" cy="15.5" r="3" fill="none" stroke="currentColor" stroke-width="1.4"/>
      <path d="M16 11.5 V12.5 M16 18.5 V19.5 M12 15.5 H13 M19 15.5 H20" stroke="currentColor" stroke-width="1.2" stroke-linecap="round"/>
      <circle cx="16" cy="15.5" r="1" fill="currentColor"/>
    </symbol>
    <symbol id="m-handoff-pkg" viewBox="0 0 24 24">
      <rect x="3" y="7" width="18" height="13" rx="1.5" fill="none" stroke="currentColor" stroke-width="1.75"/>
      <path d="M3 11 H21" stroke="currentColor" stroke-width="1.4"/>
      <path d="M9 4 L12 7 L15 4" fill="none" stroke="currentColor" stroke-width="1.4" stroke-linecap="round" stroke-linejoin="round"/>
    </symbol>
    <!-- Provider icons -->
    <symbol id="m-anthropic" viewBox="0 0 24 24">
      <line x1="12" y1="3.5" x2="12" y2="20.5" stroke="currentColor" stroke-width="1.75" stroke-linecap="round"/>
      <line x1="5" y1="7.5" x2="19" y2="16.5" stroke="currentColor" stroke-width="1.75" stroke-linecap="round"/>
      <line x1="5" y1="16.5" x2="19" y2="7.5" stroke="currentColor" stroke-width="1.75" stroke-linecap="round"/>
      <circle cx="12" cy="12" r="2.2" fill="currentColor"/>
    </symbol>
    <symbol id="m-openai" viewBox="0 0 24 24">
      <path d="M12 3.5 L19.5 7.75 L19.5 16.25 L12 20.5 L4.5 16.25 L4.5 7.75 Z" fill="none" stroke="currentColor" stroke-width="1.75" stroke-linejoin="round"/>
      <path d="M12 6.5 L17 9.5 L17 14.5 L12 17.5 L7 14.5 L7 9.5 Z" fill="none" stroke="currentColor" stroke-width="1.4" stroke-linejoin="round" opacity="0.55"/>
    </symbol>
    <symbol id="m-openai-codex" viewBox="0 0 24 24">
      <path d="M12 3.5 L19.5 7.75 L19.5 16.25 L12 20.5 L4.5 16.25 L4.5 7.75 Z" fill="none" stroke="currentColor" stroke-width="1.75" stroke-linejoin="round"/>
      <path d="M10.5 9.5 L8 12 L10.5 14.5" fill="none" stroke="currentColor" stroke-width="1.6" stroke-linecap="round" stroke-linejoin="round"/>
      <path d="M13.5 9.5 L16 12 L13.5 14.5" fill="none" stroke="currentColor" stroke-width="1.6" stroke-linecap="round" stroke-linejoin="round"/>
    </symbol>
  </defs>

  <rect width="1440" height="1100" fill="#0D1117"/>

  <!-- HEADER reducido (mismo del mockup 11) -->
  <g>
    <rect x="0" y="0" width="1440" height="62" fill="#161B22"/>
    <line x1="0" y1="62" x2="1440" y2="62" stroke="#30363D" stroke-width="1"/>
    <g transform="translate(24,16)">
      <svg width="30" height="30" viewBox="0 0 24 24" color="#00D6FF">
        <path d="M12 3 L3 19 L21 19 Z" fill="none" stroke="currentColor" stroke-width="1.75" stroke-linejoin="round" stroke-linecap="round"/>
        <path d="M12 10 L8.8 15.3 L15.2 15.3 Z" fill="currentColor"/>
      </svg>
    </g>
    <text x="62" y="38" fill="#E6EDF3" font-size="18" font-weight="600">Intrale Pipeline · V3</text>
    <g font-size="14" font-weight="500">
      <text x="320" y="38" fill="#8B949E">Board</text>
      <text x="400" y="38" fill="#8B949E">Agentes</text>
      <text x="490" y="38" fill="#8B949E">Consumo</text>
      <rect x="585" y="22" width="180" height="30" rx="6" fill="rgba(45,212,191,0.10)" stroke="#2DD4BF" stroke-width="1"/>
      <g transform="translate(597,28)" color="#2DD4BF">
        <svg width="18" height="18" viewBox="0 0 24 24"><use href="#m-multi-provider"/></svg>
      </g>
      <text x="623" y="42" fill="#2DD4BF" font-weight="600">Multi-Provider</text>
      <text x="785" y="38" fill="#8B949E">Leyenda</text>
    </g>
  </g>

  <!-- BREADCRUMB -->
  <text x="24" y="100" fill="#8B949E" font-size="13">
    <tspan>Multi-Provider</tspan>
    <tspan dx="8" fill="#6E7681">›</tspan>
    <tspan dx="8" fill="#B1BAC4">Permission Overrides</tspan>
  </text>

  <!-- Sub-tabs internas: Proveedores · Agentes · Catalogo · Overrides -->
  <g transform="translate(24,118)">
    <rect width="700" height="38" rx="6" fill="#161B22" stroke="#30363D" stroke-width="1"/>
    <g font-size="13">
      <text x="20" y="24" fill="#8B949E">Proveedores</text>
      <text x="135" y="24" fill="#8B949E">Por agente</text>
      <text x="245" y="24" fill="#8B949E">Catalogo de modelos</text>
      <rect x="396" y="4" width="196" height="30" rx="4" fill="rgba(245,158,11,0.10)"/>
      <g transform="translate(406,11)" color="#F59E0B">
        <svg width="16" height="16" viewBox="0 0 24 24"><use href="#m-override"/></svg>
      </g>
      <text x="428" y="24" fill="#F59E0B" font-weight="600">Permission Overrides (2)</text>
    </g>
  </g>

  <!-- =========================================================================
       BANNER de fail-CLOSED policy (educativo)
       ========================================================================= -->
  <g transform="translate(24,176)">
    <rect width="1392" height="58" rx="8" fill="rgba(248,81,73,0.06)" stroke="#8B1A14" stroke-width="1"/>
    <g transform="translate(18,16)" color="#F85149">
      <svg width="24" height="24" viewBox="0 0 24 24"><use href="#m-shield-lock"/></svg>
    </g>
    <text x="56" y="26" fill="#F85149" font-size="14" font-weight="600">Politica fail-CLOSED · #3082</text>
    <text x="56" y="46" fill="#B1BAC4" font-size="13">El override es una excepcion temporal con TTL acotado y justificacion auditable. Audit trail JSONL append-only con hash chain. Skills <tspan font-weight="600" fill="#E6EDF3">security · review · builder · tester · backend-dev</tspan> son non-degradables (no admiten override).</text>
  </g>

  <!-- =========================================================================
       OVERRIDES VIGENTES (lista con TTL countdown)
       ========================================================================= -->
  <text x="24" y="270" fill="#E6EDF3" font-size="18" font-weight="600">Overrides vigentes</text>
  <text x="220" y="270" fill="#8B949E" font-size="13">— 2 activos · TTL en vivo · revocar/renovar accionable</text>

  <!-- Override 1: ux+openai expira en 18h -->
  <g transform="translate(24,290)">
    <rect width="888" height="148" rx="10" fill="#161B22" stroke="#F59E0B" stroke-width="1.5"/>
    <!-- Header con skill+provider -->
    <g transform="translate(20,18)">
      <text x="0" y="6" fill="#8B949E" font-size="11" letter-spacing="0.06em">SKILL</text>
      <text x="0" y="26" fill="#E6EDF3" font-size="16" font-weight="600">ux</text>
      <g transform="translate(70,14)" color="#8B949E">
        <svg width="14" height="14" viewBox="0 0 24 24"><use href="#m-handoff-pkg"/></svg>
      </g>
      <text x="120" y="6" fill="#8B949E" font-size="11" letter-spacing="0.06em">PROVIDER</text>
      <g transform="translate(120,14)" color="#34D399">
        <svg width="20" height="20" viewBox="0 0 24 24"><use href="#m-openai"/></svg>
      </g>
      <text x="146" y="28" fill="#34D399" font-size="14" font-weight="500">OpenAI</text>
      <text x="146" y="44" fill="#8B949E" font-size="11">gpt-4o</text>
    </g>
    <!-- TTL countdown -->
    <g transform="translate(280,18)">
      <text x="0" y="6" fill="#8B949E" font-size="11" letter-spacing="0.06em">TTL · EXPIRA EN</text>
      <g transform="translate(0,14)" color="#F59E0B">
        <svg width="30" height="30" viewBox="0 0 24 24"><use href="#m-ttl"/></svg>
      </g>
      <text x="38" y="34" fill="#F59E0B" font-size="20" font-weight="700" font-family="'SF Mono', Consolas, monospace">18h 04m</text>
      <text x="38" y="50" fill="#8B949E" font-size="11">de 24h iniciales · 75% restante</text>
    </g>
    <!-- Caps diff -->
    <g transform="translate(490,18)">
      <text x="0" y="6" fill="#8B949E" font-size="11" letter-spacing="0.06em">CAPABILITIES OMITIDAS</text>
      <rect x="0" y="14" width="180" height="24" rx="4" fill="rgba(245,158,11,0.10)" stroke="#F59E0B" stroke-width="1"/>
      <text x="90" y="30" fill="#F59E0B" font-size="12" font-weight="500" text-anchor="middle" font-family="'SF Mono', Consolas, monospace">-fine_grained_acl</text>
    </g>
    <!-- Acciones -->
    <g transform="translate(700,18)">
      <rect x="0" y="0" width="80" height="34" rx="6" fill="rgba(88,166,255,0.10)" stroke="#58A6FF" stroke-width="1"/>
      <g transform="translate(10,9)" color="#58A6FF">
        <svg width="16" height="16" viewBox="0 0 24 24"><use href="#m-renew"/></svg>
      </g>
      <text x="34" y="22" fill="#58A6FF" font-size="12" font-weight="500">Renovar</text>

      <rect x="92" y="0" width="80" height="34" rx="6" fill="rgba(248,81,73,0.10)" stroke="#F85149" stroke-width="1"/>
      <g transform="translate(102,9)" color="#F85149">
        <svg width="16" height="16" viewBox="0 0 24 24"><use href="#m-revoke"/></svg>
      </g>
      <text x="126" y="22" fill="#F85149" font-size="12" font-weight="500">Revocar</text>
    </g>
    <!-- Metadatos abajo -->
    <line x1="20" y1="86" x2="868" y2="86" stroke="#21262D" stroke-width="1"/>
    <g transform="translate(20,98)">
      <text x="0" y="0" fill="#8B949E" font-size="11" letter-spacing="0.06em">AUTOR</text>
      <text x="0" y="18" fill="#E6EDF3" font-size="12" font-weight="500" font-family="'SF Mono', Consolas, monospace">leitolarreta</text>
      <text x="0" y="34" fill="#6E7681" font-size="10">git config user.email</text>

      <text x="160" y="0" fill="#8B949E" font-size="11" letter-spacing="0.06em">CREADO</text>
      <text x="160" y="18" fill="#E6EDF3" font-size="12" font-family="'SF Mono', Consolas, monospace">2026-05-14 10:00</text>
      <text x="160" y="34" fill="#6E7681" font-size="10">hace 5h 56m</text>

      <text x="320" y="0" fill="#8B949E" font-size="11" letter-spacing="0.06em">JUSTIFICACION</text>
      <text x="320" y="18" fill="#E6EDF3" font-size="12">"Validar paridad de renderizado de mockups SVG entre Anthropic y OpenAI para QA cross-provider del U2."</text>
      <text x="320" y="34" fill="#6E7681" font-size="10">130 chars · hash chain OK · audit-log entry 0a3f81</text>
    </g>
  </g>

  <!-- Override 2: qa+codex expira en 5d -->
  <g transform="translate(936,290)">
    <rect width="480" height="148" rx="10" fill="#161B22" stroke="#30363D" stroke-width="1"/>
    <g transform="translate(20,18)">
      <text x="0" y="6" fill="#8B949E" font-size="11" letter-spacing="0.06em">SKILL</text>
      <text x="0" y="26" fill="#E6EDF3" font-size="16" font-weight="600">qa</text>
      <text x="50" y="6" fill="#8B949E" font-size="11" letter-spacing="0.06em">PROVIDER</text>
      <g transform="translate(50,14)" color="#10B981">
        <svg width="20" height="20" viewBox="0 0 24 24"><use href="#m-openai-codex"/></svg>
      </g>
      <text x="76" y="28" fill="#10B981" font-size="14" font-weight="500">Codex</text>
    </g>
    <g transform="translate(200,18)">
      <text x="0" y="6" fill="#8B949E" font-size="11" letter-spacing="0.06em">TTL · EXPIRA EN</text>
      <g transform="translate(0,14)" color="#3FB950">
        <svg width="30" height="30" viewBox="0 0 24 24"><use href="#m-ttl"/></svg>
      </g>
      <text x="38" y="34" fill="#3FB950" font-size="18" font-weight="700" font-family="'SF Mono', Consolas, monospace">5d 02h</text>
      <text x="38" y="50" fill="#8B949E" font-size="11">de 168h · 73% restante</text>
    </g>
    <g transform="translate(20,86)">
      <line x1="0" y1="0" x2="440" y2="0" stroke="#21262D" stroke-width="1"/>
      <text x="0" y="20" fill="#6E7681" font-size="11">cap diff: <tspan fill="#F59E0B" font-family="'SF Mono', Consolas, monospace">-tool_use_gated</tspan> · autor <tspan fill="#E6EDF3">claude-bot</tspan> · creado hace 19h · justificacion "QA paridad multi-provider U2"</text>
      <g transform="translate(0,38)">
        <rect x="0" y="0" width="74" height="28" rx="6" fill="rgba(88,166,255,0.10)" stroke="#58A6FF" stroke-width="1"/>
        <text x="37" y="18" fill="#58A6FF" font-size="11" font-weight="500" text-anchor="middle">Renovar</text>
        <rect x="84" y="0" width="74" height="28" rx="6" fill="rgba(248,81,73,0.10)" stroke="#F85149" stroke-width="1"/>
        <text x="121" y="18" fill="#F85149" font-size="11" font-weight="500" text-anchor="middle">Revocar</text>
      </g>
    </g>
  </g>

  <!-- =========================================================================
       BOTON CREAR OVERRIDE + FORMULARIO COLAPSADO/EXPANDIDO
       ========================================================================= -->
  <g transform="translate(24,462)">
    <rect width="888" height="356" rx="10" fill="#161B22" stroke="#30363D" stroke-width="1"/>
    <g transform="translate(20,18)">
      <g color="#58A6FF">
        <svg width="20" height="20" viewBox="0 0 24 24"><use href="#m-override"/></svg>
      </g>
      <text x="28" y="14" fill="#E6EDF3" font-size="16" font-weight="600">Crear nuevo override</text>
      <text x="200" y="14" fill="#8B949E" font-size="12">— validaciones server-side (CA-31..CA-33)</text>
    </g>

    <!-- Formulario -->
    <g transform="translate(20,60)">
      <!-- Row 1: Skill + Provider -->
      <g>
        <text x="0" y="0" fill="#8B949E" font-size="11" letter-spacing="0.06em">SKILL · DROPDOWN (excluye NON-DEGRADABLE)</text>
        <rect x="0" y="10" width="280" height="36" rx="6" fill="#1C2128" stroke="#30363D" stroke-width="1"/>
        <text x="14" y="33" fill="#E6EDF3" font-size="13" font-weight="500">ux</text>
        <path d="M260 26 L268 32 L276 26" stroke="#8B949E" stroke-width="1.4" fill="none" stroke-linecap="round" stroke-linejoin="round"/>

        <text x="304" y="0" fill="#8B949E" font-size="11" letter-spacing="0.06em">PROVIDER · DROPDOWN</text>
        <rect x="304" y="10" width="240" height="36" rx="6" fill="#1C2128" stroke="#30363D" stroke-width="1"/>
        <g transform="translate(316,20)" color="#34D399">
          <svg width="20" height="20" viewBox="0 0 24 24"><use href="#m-openai"/></svg>
        </g>
        <text x="342" y="33" fill="#E6EDF3" font-size="13" font-weight="500">OpenAI</text>
        <path d="M520 26 L528 32 L536 26" stroke="#8B949E" stroke-width="1.4" fill="none" stroke-linecap="round" stroke-linejoin="round"/>
      </g>

      <!-- Row 2: Capabilities (checkboxes) -->
      <g transform="translate(0,70)">
        <text x="0" y="0" fill="#8B949E" font-size="11" letter-spacing="0.06em">CAPABILITIES A OMITIR · CHECKBOXES DESDE CAPABILITY_MATRIX</text>
        <g transform="translate(0,16)">
          <rect width="200" height="32" rx="4" fill="rgba(245,158,11,0.10)" stroke="#F59E0B" stroke-width="1"/>
          <rect x="10" y="9" width="14" height="14" rx="3" fill="#F59E0B" stroke="#F59E0B" stroke-width="1"/>
          <path d="M13 16 L16 19 L21 13" stroke="#0D1117" stroke-width="1.5" fill="none" stroke-linecap="round" stroke-linejoin="round"/>
          <text x="34" y="22" fill="#F59E0B" font-size="12" font-weight="500" font-family="'SF Mono', Consolas, monospace">-fine_grained_acl</text>
        </g>
        <g transform="translate(212,16)">
          <rect width="200" height="32" rx="4" fill="#1C2128" stroke="#30363D" stroke-width="1"/>
          <rect x="10" y="9" width="14" height="14" rx="3" fill="none" stroke="#6E7681" stroke-width="1.5"/>
          <text x="34" y="22" fill="#B1BAC4" font-size="12" font-family="'SF Mono', Consolas, monospace">-tool_use_gated</text>
        </g>
        <g transform="translate(424,16)">
          <rect width="200" height="32" rx="4" fill="#1C2128" stroke="#30363D" stroke-width="1"/>
          <rect x="10" y="9" width="14" height="14" rx="3" fill="none" stroke="#6E7681" stroke-width="1.5"/>
          <text x="34" y="22" fill="#B1BAC4" font-size="12" font-family="'SF Mono', Consolas, monospace">-prompt_caching</text>
        </g>
      </g>

      <!-- Row 3: TTL slider + valor -->
      <g transform="translate(0,144)">
        <text x="0" y="0" fill="#8B949E" font-size="11" letter-spacing="0.06em">TTL · 1H .. 168H (1 SEMANA MAX) · DEFAULT 24H</text>
        <!-- Slider track -->
        <line x1="0" y1="26" x2="600" y2="26" stroke="#30363D" stroke-width="6" stroke-linecap="round"/>
        <!-- Slider fill (24/168 = ~14%) -->
        <line x1="0" y1="26" x2="86" y2="26" stroke="#F59E0B" stroke-width="6" stroke-linecap="round"/>
        <!-- Thumb -->
        <circle cx="86" cy="26" r="11" fill="#F59E0B" stroke="#0D1117" stroke-width="3"/>
        <!-- Marcas -->
        <text x="0" y="50" fill="#6E7681" font-size="10" font-family="'SF Mono', Consolas, monospace">1h</text>
        <text x="125" y="50" fill="#6E7681" font-size="10" font-family="'SF Mono', Consolas, monospace">24h</text>
        <text x="265" y="50" fill="#6E7681" font-size="10" font-family="'SF Mono', Consolas, monospace">72h</text>
        <text x="475" y="50" fill="#6E7681" font-size="10" font-family="'SF Mono', Consolas, monospace">168h</text>
        <!-- Valor seleccionado -->
        <g transform="translate(620,8)">
          <rect width="106" height="36" rx="6" fill="#1C2128" stroke="#F59E0B" stroke-width="1"/>
          <text x="53" y="24" fill="#F59E0B" font-size="14" font-weight="600" text-anchor="middle" font-family="'SF Mono', Consolas, monospace">24h</text>
        </g>
      </g>

      <!-- Row 4: Justificacion textarea -->
      <g transform="translate(0,224)">
        <text x="0" y="0" fill="#8B949E" font-size="11" letter-spacing="0.06em">JUSTIFICACION · MIN 30 CHARS · ESCAPED HTML (CA-30)</text>
        <rect x="0" y="10" width="848" height="68" rx="6" fill="#1C2128" stroke="#30363D" stroke-width="1"/>
        <text x="12" y="32" fill="#E6EDF3" font-size="13">Validar paridad de renderizado de mockups SVG entre Anthropic y OpenAI</text>
        <text x="12" y="50" fill="#E6EDF3" font-size="13">para QA cross-provider del U2.</text>
        <text x="780" y="92" fill="#3FB950" font-size="11" font-family="'SF Mono', Consolas, monospace">98 / 30 min</text>
      </g>
    </g>
  </g>

  <!-- Boton Crear (footer formulario) -->
  <g transform="translate(680,786)">
    <rect width="206" height="40" rx="6" fill="#F59E0B"/>
    <g transform="translate(20,11)" color="#0D1117">
      <svg width="18" height="18" viewBox="0 0 24 24"><use href="#m-override"/></svg>
    </g>
    <text x="48" y="25" fill="#0D1117" font-size="13" font-weight="600">Crear override (24h)</text>
  </g>

  <!-- =========================================================================
       HISTORIAL (panel derecho)
       ========================================================================= -->
  <g transform="translate(936,462)">
    <rect width="480" height="356" rx="10" fill="#161B22" stroke="#30363D" stroke-width="1"/>
    <g transform="translate(20,18)">
      <text fill="#E6EDF3" font-size="16" font-weight="600">Historial</text>
      <text x="80" y="0" fill="#8B949E" font-size="12">— overrides expirados/revocados (read-only)</text>
    </g>

    <!-- 4 entries -->
    <g transform="translate(20,50)">
      <!-- Entry 1: expired -->
      <line x1="0" y1="0" x2="440" y2="0" stroke="#21262D" stroke-width="1"/>
      <text x="0" y="22" fill="#E6EDF3" font-size="13" font-weight="500">guru × OpenAI</text>
      <rect x="110" y="10" width="62" height="18" rx="9" fill="rgba(177,186,196,0.14)"/>
      <text x="141" y="22" fill="#B1BAC4" font-size="10" font-weight="500" text-anchor="middle" letter-spacing="0.04em">EXPIRED</text>
      <text x="0" y="42" fill="#6E7681" font-size="11">2026-05-12 14:22 → 2026-05-13 14:22 · 24h · "Test U1 review"</text>
    </g>
    <g transform="translate(20,118)">
      <line x1="0" y1="0" x2="440" y2="0" stroke="#21262D" stroke-width="1"/>
      <text x="0" y="22" fill="#E6EDF3" font-size="13" font-weight="500">planner × Codex</text>
      <rect x="125" y="10" width="105" height="18" rx="9" fill="rgba(248,81,73,0.14)"/>
      <text x="178" y="22" fill="#F85149" font-size="10" font-weight="500" text-anchor="middle" letter-spacing="0.04em">REVOKED-BY-USER</text>
      <text x="0" y="42" fill="#6E7681" font-size="11">2026-05-12 09:18 → 2026-05-12 11:42 · 2h 24m · leitolarreta</text>
    </g>
    <g transform="translate(20,186)">
      <line x1="0" y1="0" x2="440" y2="0" stroke="#21262D" stroke-width="1"/>
      <text x="0" y="22" fill="#E6EDF3" font-size="13" font-weight="500">po × Anthropic</text>
      <rect x="115" y="10" width="62" height="18" rx="9" fill="rgba(177,186,196,0.14)"/>
      <text x="146" y="22" fill="#B1BAC4" font-size="10" font-weight="500" text-anchor="middle" letter-spacing="0.04em">EXPIRED</text>
      <text x="0" y="42" fill="#6E7681" font-size="11">2026-05-11 19:00 → 2026-05-12 19:00 · 24h · "Migrar wording U3"</text>
    </g>
    <g transform="translate(20,254)">
      <line x1="0" y1="0" x2="440" y2="0" stroke="#21262D" stroke-width="1"/>
      <text x="0" y="22" fill="#E6EDF3" font-size="13" font-weight="500">refinar × OpenAI</text>
      <rect x="130" y="10" width="118" height="18" rx="9" fill="rgba(248,81,73,0.20)"/>
      <text x="189" y="22" fill="#F85149" font-size="10" font-weight="500" text-anchor="middle" letter-spacing="0.04em">REVOKED-BY-POLICY</text>
      <text x="0" y="42" fill="#6E7681" font-size="11">2026-05-10 11:00 → 2026-05-10 12:30 · circuit-breaker</text>
    </g>

    <!-- "ver mas" -->
    <g transform="translate(20,322)">
      <line x1="0" y1="0" x2="440" y2="0" stroke="#21262D" stroke-width="1"/>
      <text x="220" y="18" fill="#58A6FF" font-size="12" font-weight="500" text-anchor="middle">Ver 17 entradas mas →</text>
    </g>
  </g>

  <!-- =========================================================================
       FOOTER explicativo
       ========================================================================= -->
  <g transform="translate(24,860)">
    <rect width="1392" height="68" rx="8" fill="rgba(45,212,191,0.06)" stroke="#0D9488" stroke-width="1"/>
    <g transform="translate(18,22)" color="#2DD4BF">
      <svg width="24" height="24" viewBox="0 0 24 24"><use href="#m-shield-lock"/></svg>
    </g>
    <text x="56" y="30" fill="#2DD4BF" font-size="13" font-weight="600">Persistencia · JSONL append-only · hash chain</text>
    <text x="56" y="50" fill="#B1BAC4" font-size="12">Cada creacion/revocacion/renovacion se agrega como entry al archivo <tspan fill="#E6EDF3" font-family="'SF Mono', Consolas, monospace">.pipeline/audit/permission-overrides.jsonl</tspan> via <tspan fill="#E6EDF3" font-family="'SF Mono', Consolas, monospace">lib/audit-log.appendEntry()</tspan>. La UI nunca borra entries — la revocacion es un nuevo append con <tspan font-family="'SF Mono', Consolas, monospace" fill="#F59E0B">target_hash</tspan>.</text>
  </g>

  <!-- =========================================================================
       BANNER de notificacion Telegram
       ========================================================================= -->
  <g transform="translate(24,952)">
    <rect width="1392" height="58" rx="8" fill="rgba(88,166,255,0.06)" stroke="#1F6FEB" stroke-width="1"/>
    <g transform="translate(18,16)" color="#58A6FF">
      <svg width="24" height="24" viewBox="0 0 24 24"><use href="#m-handoff-pkg"/></svg>
    </g>
    <text x="56" y="26" fill="#58A6FF" font-size="13" font-weight="600">Notificacion Telegram automatica (CA-26)</text>
    <text x="56" y="46" fill="#B1BAC4" font-size="12">Crear o revocar dispara mensaje en lenguaje natural via <tspan font-family="'SF Mono', Consolas, monospace" fill="#E6EDF3">lib/permission-override-telegram.js</tspan> al canal interno. El mensaje cita autor, TTL, justificacion (sin keys) y un link al panel.</text>
  </g>

  <!-- Footer info -->
  <g transform="translate(24,1062)">
    <text fill="#6E7681" font-size="10" font-family="'SF Mono', Consolas, monospace">mockup 12 · permission-overrides-panel · v1 · issue #3177 §6 · WCAG AA · prefers-reduced-motion</text>
  </g>
</svg>
