<?xml version="1.0" encoding="UTF-8"?>
<!--
  Mockup 19 — Panel KPI post-fix #3357
  Resolucion target: 1440x900
  Demuestra:
    - 5 KPIs con labels semanticamente correctos (CA-UX-2)
    - Tooltip de Tokens 24h con breakdown por provider (CA-2.3)
    - Tooltip de % rebote con breakdown por fase (CA-4.3)
    - Tabla Quota por provider (multi-provider, CA-5)
    - Estado "—" cuando no hay datos (CA-4.4)
-->
<svg xmlns="http://www.w3.org/2000/svg" width="1440" height="900" viewBox="0 0 1440 900"
     font-family="-apple-system, 'Segoe UI', system-ui, sans-serif">

  <!-- Tokens embebidos para mockup self-contained -->
  <defs>
    <linearGradient id="kpiBlueGrad" x1="0" y1="0" x2="1" y2="1">
      <stop offset="0%" stop-color="#58A6FF" stop-opacity="0.10"/>
      <stop offset="60%" stop-color="#161B22" stop-opacity="1"/>
    </linearGradient>
    <linearGradient id="kpiCyanGrad" x1="0" y1="0" x2="1" y2="1">
      <stop offset="0%" stop-color="#00D6FF" stop-opacity="0.10"/>
      <stop offset="60%" stop-color="#161B22" stop-opacity="1"/>
    </linearGradient>
    <linearGradient id="kpiTealGrad" x1="0" y1="0" x2="1" y2="1">
      <stop offset="0%" stop-color="#2DD4BF" stop-opacity="0.10"/>
      <stop offset="60%" stop-color="#161B22" stop-opacity="1"/>
    </linearGradient>
    <linearGradient id="kpiAmberGrad" x1="0" y1="0" x2="1" y2="1">
      <stop offset="0%" stop-color="#D29922" stop-opacity="0.10"/>
      <stop offset="60%" stop-color="#161B22" stop-opacity="1"/>
    </linearGradient>
    <linearGradient id="kpiPurpleGrad" x1="0" y1="0" x2="1" y2="1">
      <stop offset="0%" stop-color="#BC8CFF" stop-opacity="0.10"/>
      <stop offset="60%" stop-color="#161B22" stop-opacity="1"/>
    </linearGradient>
    <filter id="popShadow" x="-10%" y="-10%" width="120%" height="120%">
      <feGaussianBlur in="SourceAlpha" stdDeviation="6"/>
      <feOffset dx="0" dy="6" result="off"/>
      <feComponentTransfer><feFuncA type="linear" slope="0.45"/></feComponentTransfer>
      <feMerge><feMergeNode/><feMergeNode in="SourceGraphic"/></feMerge>
    </filter>
  </defs>

  <!-- Fondo -->
  <rect width="1440" height="900" fill="#0D1117"/>

  <!-- =============== HEADER MINI =============== -->
  <text x="32" y="48" fill="#E6EDF3" font-size="22" font-weight="700">Panel KPI — Pipeline V3</text>
  <text x="32" y="68" fill="#8B949E" font-size="12" font-weight="600" letter-spacing="1.5">
    POST-FIX #3357 · LABELS SEMANTICOS + BREAKDOWN MULTI-PROVIDER
  </text>

  <!-- Badge antes/despues comparativo -->
  <g transform="translate(1180, 32)">
    <rect width="228" height="44" rx="8" fill="#161B22" stroke="#30363D"/>
    <circle cx="14" cy="22" r="4" fill="#3FB950"/>
    <text x="26" y="20" fill="#E6EDF3" font-size="11" font-weight="700" letter-spacing="0.5">POST-FIX</text>
    <text x="26" y="34" fill="#8B949E" font-size="10">Comparar con dashboard.js actual</text>
  </g>

  <!-- =============== SECCION 1: GRID DE 5 KPIs =============== -->
  <text x="32" y="116" fill="#8B949E" font-size="11" font-weight="600" letter-spacing="2">5 KPIs · CA-1 / CA-2 / CA-3 / CA-4</text>

  <!-- Cada KPI: 264px wide, 132px tall, gap 16px. 5 cards * 264 + 4 * 16 = 1384, margen 32 + 24 = 56 → ok en 1440 -->
  <!-- Layout: x=32 + i*(264+16) -->

  <!-- ============== KPI 1: PRs ultimos 7d ============== -->
  <g transform="translate(32, 132)">
    <rect width="264" height="132" rx="10" fill="url(#kpiPurpleGrad)" stroke="#30363D"/>
    <rect x="0" y="0" width="3" height="132" fill="#BC8CFF"/>
    <!-- Icono -->
    <g transform="translate(18, 18)" stroke="#BC8CFF" stroke-width="1.75" stroke-linecap="round" fill="none">
      <circle cx="8" cy="8" r="3"/>
      <circle cx="20" cy="20" r="3"/>
      <path d="M11 8 h6 a3 3 0 0 1 3 3 v9"/>
    </g>
    <!-- Label -->
    <text x="50" y="32" fill="#B1BAC4" font-size="11" font-weight="600" letter-spacing="0.6">PRs ULTIMOS 7d</text>
    <!-- Valor -->
    <text x="18" y="86" fill="#BC8CFF" font-size="42" font-weight="800" font-variant-numeric="tabular-nums">51</text>
    <!-- Sub -->
    <text x="18" y="110" fill="#8B949E" font-size="11">merged · since 2026-05-12 UTC</text>
    <text x="18" y="124" fill="#6E7681" font-size="10">cache 60s · CA-1.3 preserva valor</text>
  </g>

  <!-- ============== KPI 2: Tokens ultimas 24h (con tooltip indicator) ============== -->
  <g transform="translate(312, 132)">
    <rect width="264" height="132" rx="10" fill="url(#kpiCyanGrad)" stroke="#30363D"/>
    <rect x="0" y="0" width="3" height="132" fill="#00D6FF"/>
    <!-- Icono -->
    <g transform="translate(18, 18)" stroke="#00D6FF" stroke-width="1.75" stroke-linecap="round" fill="none">
      <path d="M3 5 h18 M3 12 h18 M3 19 h12"/>
    </g>
    <text x="50" y="32" fill="#B1BAC4" font-size="11" font-weight="600" letter-spacing="0.6">TOKENS ULTIMAS 24h</text>
    <!-- info icon  -->
    <g transform="translate(232, 18)">
      <circle cx="10" cy="10" r="9" fill="#161B22" stroke="#8B949E" stroke-width="1"/>
      <text x="10" y="14" fill="#8B949E" font-size="11" font-weight="700" text-anchor="middle">i</text>
    </g>
    <!-- Valor -->
    <text x="18" y="86" fill="#00D6FF" font-size="38" font-weight="800" font-variant-numeric="tabular-nums">847k</text>
    <text x="120" y="86" fill="#8B949E" font-size="13">in + out</text>
    <!-- Sub -->
    <text x="18" y="110" fill="#8B949E" font-size="11">todos los providers</text>
    <text x="18" y="124" fill="#6E7681" font-size="10">hover → breakdown por provider</text>
  </g>

  <!-- ============== KPI 3: Duracion mediana por agente ============== -->
  <g transform="translate(592, 132)">
    <rect width="264" height="132" rx="10" fill="url(#kpiBlueGrad)" stroke="#30363D"/>
    <rect x="0" y="0" width="3" height="132" fill="#58A6FF"/>
    <g transform="translate(18, 18)" stroke="#58A6FF" stroke-width="1.75" stroke-linecap="round" fill="none">
      <circle cx="12" cy="12" r="9"/>
      <path d="M12 7 v5 l3 3"/>
    </g>
    <text x="50" y="32" fill="#B1BAC4" font-size="11" font-weight="600" letter-spacing="0.6">DURACION MEDIANA · AGENTE</text>
    <text x="18" y="86" fill="#58A6FF" font-size="38" font-weight="800" font-variant-numeric="tabular-nums">4m 18s</text>
    <text x="18" y="110" fill="#8B949E" font-size="11">CA-3.1 · ex "Cycle time"</text>
    <text x="18" y="124" fill="#6E7681" font-size="10">listo ∪ procesado deduplicado</text>
  </g>

  <!-- ============== KPI 4: Cycle time del issue (NUEVO) ============== -->
  <g transform="translate(872, 132)">
    <rect width="264" height="132" rx="10" fill="url(#kpiTealGrad)" stroke="#30363D"/>
    <rect x="0" y="0" width="3" height="132" fill="#2DD4BF"/>
    <!-- Badge NUEVO -->
    <g transform="translate(204, 14)">
      <rect width="44" height="18" rx="9" fill="#2DD4BF" fill-opacity="0.18" stroke="#2DD4BF" stroke-opacity="0.45"/>
      <text x="22" y="13" fill="#2DD4BF" font-size="9" font-weight="700" text-anchor="middle" letter-spacing="0.5">NUEVO</text>
    </g>
    <g transform="translate(18, 18)" stroke="#2DD4BF" stroke-width="1.75" stroke-linecap="round" fill="none">
      <circle cx="6" cy="6" r="3"/>
      <circle cx="18" cy="18" r="3"/>
      <path d="M8 6 h7 a3 3 0 0 1 3 3 v7"/>
    </g>
    <text x="50" y="32" fill="#B1BAC4" font-size="11" font-weight="600" letter-spacing="0.6">CYCLE TIME DEL ISSUE</text>
    <text x="18" y="86" fill="#2DD4BF" font-size="34" font-weight="800" font-variant-numeric="tabular-nums">2h 47m</text>
    <text x="18" y="110" fill="#8B949E" font-size="11">creacion → cierre · mediana 7d</text>
    <text x="18" y="124" fill="#6E7681" font-size="10">CA-3.2 · DORA-aligned</text>
  </g>

  <!-- ============== KPI 5: % rebote ============== -->
  <g transform="translate(1152, 132)">
    <rect width="264" height="132" rx="10" fill="url(#kpiAmberGrad)" stroke="#30363D"/>
    <rect x="0" y="0" width="3" height="132" fill="#D29922"/>
    <g transform="translate(18, 18)" stroke="#D29922" stroke-width="1.75" stroke-linecap="round" fill="none">
      <path d="M4 12 a8 8 0 0 1 16 0"/>
      <path d="M4 12 l-2 -3 M4 12 l3 -2"/>
      <path d="M20 12 a8 8 0 0 1 -16 0"/>
      <path d="M20 12 l2 3 M20 12 l-3 2"/>
    </g>
    <text x="50" y="32" fill="#B1BAC4" font-size="11" font-weight="600" letter-spacing="0.6">% REBOTE · ISSUES 7d</text>
    <g transform="translate(232, 18)">
      <circle cx="10" cy="10" r="9" fill="#161B22" stroke="#8B949E" stroke-width="1"/>
      <text x="10" y="14" fill="#8B949E" font-size="11" font-weight="700" text-anchor="middle">i</text>
    </g>
    <text x="18" y="86" fill="#D29922" font-size="42" font-weight="800" font-variant-numeric="tabular-nums">18%</text>
    <text x="98" y="86" fill="#8B949E" font-size="13">3 / 17</text>
    <text x="18" y="110" fill="#8B949E" font-size="11">≥1 rebote · ventana 7d</text>
    <text x="18" y="124" fill="#6E7681" font-size="10">hover → breakdown por fase</text>
  </g>

  <!-- =============== TOOLTIP DE TOKENS (anclado al KPI 2) =============== -->
  <g transform="translate(312, 288)" filter="url(#popShadow)">
    <!-- arrow up -->
    <path d="M 120 -8 L 130 0 L 110 0 Z" fill="#1C2128" stroke="#30363D" stroke-width="1"/>
    <rect width="320" height="232" rx="10" fill="#1C2128" stroke="#30363D"/>
    <!-- title -->
    <text x="16" y="24" fill="#E6EDF3" font-size="13" font-weight="700">Tokens 24h · breakdown por provider</text>
    <text x="16" y="40" fill="#8B949E" font-size="10">CA-2.2 · totals.by_provider del aggregator</text>
    <line x1="16" y1="50" x2="304" y2="50" stroke="#30363D" stroke-width="1"/>

    <!-- filas: provider · tokens · % -->
    <!-- Anthropic -->
    <g transform="translate(16, 64)">
      <circle cx="6" cy="6" r="5" fill="#E5946B"/>
      <text x="20" y="10" fill="#E6EDF3" font-size="12" font-weight="600">Anthropic</text>
      <text x="180" y="10" fill="#B1BAC4" font-size="12" font-variant-numeric="tabular-nums" text-anchor="end">412k</text>
      <text x="288" y="10" fill="#F4C9B1" font-size="11" font-variant-numeric="tabular-nums" text-anchor="end">48.6%</text>
    </g>
    <!-- OpenAI Codex -->
    <g transform="translate(16, 86)">
      <circle cx="6" cy="6" r="5" fill="#10B981"/>
      <text x="20" y="10" fill="#E6EDF3" font-size="12" font-weight="600">OpenAI Codex</text>
      <text x="180" y="10" fill="#B1BAC4" font-size="12" font-variant-numeric="tabular-nums" text-anchor="end">238k</text>
      <text x="288" y="10" fill="#6EE7B7" font-size="11" font-variant-numeric="tabular-nums" text-anchor="end">28.1%</text>
    </g>
    <!-- Groq -->
    <g transform="translate(16, 108)">
      <circle cx="6" cy="6" r="5" fill="#FF6B47"/>
      <text x="20" y="10" fill="#E6EDF3" font-size="12" font-weight="600">Groq</text>
      <text x="180" y="10" fill="#B1BAC4" font-size="12" font-variant-numeric="tabular-nums" text-anchor="end">112k</text>
      <text x="288" y="10" fill="#FFC1AE" font-size="11" font-variant-numeric="tabular-nums" text-anchor="end">13.2%</text>
    </g>
    <!-- Gemini -->
    <g transform="translate(16, 130)">
      <circle cx="6" cy="6" r="5" fill="#8AB4F8"/>
      <text x="20" y="10" fill="#E6EDF3" font-size="12" font-weight="600">Gemini</text>
      <text x="180" y="10" fill="#B1BAC4" font-size="12" font-variant-numeric="tabular-nums" text-anchor="end">62k</text>
      <text x="288" y="10" fill="#CBD9F9" font-size="11" font-variant-numeric="tabular-nums" text-anchor="end">7.3%</text>
    </g>
    <!-- Cerebras -->
    <g transform="translate(16, 152)">
      <circle cx="6" cy="6" r="5" fill="#FFD166"/>
      <text x="20" y="10" fill="#E6EDF3" font-size="12" font-weight="600">Cerebras</text>
      <text x="180" y="10" fill="#B1BAC4" font-size="12" font-variant-numeric="tabular-nums" text-anchor="end">23k</text>
      <text x="288" y="10" fill="#FFE6A8" font-size="11" font-variant-numeric="tabular-nums" text-anchor="end">2.7%</text>
    </g>
    <!-- footer total -->
    <line x1="16" y1="174" x2="304" y2="174" stroke="#30363D" stroke-width="1"/>
    <g transform="translate(16, 188)">
      <text x="0" y="10" fill="#8B949E" font-size="11" font-weight="700" letter-spacing="0.5">TOTAL</text>
      <text x="180" y="10" fill="#E6EDF3" font-size="13" font-weight="700" font-variant-numeric="tabular-nums" text-anchor="end">847k</text>
      <text x="288" y="10" fill="#3FB950" font-size="11" font-variant-numeric="tabular-nums" text-anchor="end">100%</text>
    </g>
    <text x="16" y="220" fill="#6E7681" font-size="10">snapshot.json window=24h · cutoff_ts ISO</text>
  </g>

  <!-- =============== TOOLTIP DE % REBOTE (anclado al KPI 5) =============== -->
  <g transform="translate(1096, 288)" filter="url(#popShadow)">
    <path d="M 240 -8 L 250 0 L 230 0 Z" fill="#1C2128" stroke="#30363D" stroke-width="1"/>
    <rect width="320" height="232" rx="10" fill="#1C2128" stroke="#30363D"/>
    <text x="16" y="24" fill="#E6EDF3" font-size="13" font-weight="700">% rebote · breakdown por fase</text>
    <text x="16" y="40" fill="#8B949E" font-size="10">CA-4.3 · rebotes contados en la fase donde ocurrieron</text>
    <line x1="16" y1="50" x2="304" y2="50" stroke="#30363D" stroke-width="1"/>

    <!-- fila por fase: nombre · barra · valor -->
    <g transform="translate(16, 64)">
      <text x="0" y="10" fill="#E6EDF3" font-size="12" font-weight="600">analisis</text>
      <rect x="100" y="3" width="160" height="10" rx="3" fill="#21262D"/>
      <rect x="100" y="3" width="16" height="10" rx="3" fill="#3FB950"/>
      <text x="288" y="11" fill="#B1BAC4" font-size="11" font-variant-numeric="tabular-nums" text-anchor="end">5%</text>
    </g>
    <g transform="translate(16, 86)">
      <text x="0" y="10" fill="#E6EDF3" font-size="12" font-weight="600">criterios</text>
      <rect x="100" y="3" width="160" height="10" rx="3" fill="#21262D"/>
      <rect x="100" y="3" width="22" height="10" rx="3" fill="#3FB950"/>
      <text x="288" y="11" fill="#B1BAC4" font-size="11" font-variant-numeric="tabular-nums" text-anchor="end">7%</text>
    </g>
    <g transform="translate(16, 108)">
      <text x="0" y="10" fill="#E6EDF3" font-size="12" font-weight="600">validacion</text>
      <rect x="100" y="3" width="160" height="10" rx="3" fill="#21262D"/>
      <rect x="100" y="3" width="38" height="10" rx="3" fill="#D29922"/>
      <text x="288" y="11" fill="#B1BAC4" font-size="11" font-variant-numeric="tabular-nums" text-anchor="end">12%</text>
    </g>
    <g transform="translate(16, 130)">
      <text x="0" y="10" fill="#E6EDF3" font-size="12" font-weight="600">build</text>
      <rect x="100" y="3" width="160" height="10" rx="3" fill="#21262D"/>
      <rect x="100" y="3" width="12" height="10" rx="3" fill="#3FB950"/>
      <text x="288" y="11" fill="#B1BAC4" font-size="11" font-variant-numeric="tabular-nums" text-anchor="end">4%</text>
    </g>
    <g transform="translate(16, 152)">
      <text x="0" y="10" fill="#E6EDF3" font-size="12" font-weight="600">aprobacion</text>
      <rect x="100" y="3" width="160" height="10" rx="3" fill="#21262D"/>
      <rect x="100" y="3" width="96" height="10" rx="3" fill="#F85149"/>
      <text x="288" y="11" fill="#B1BAC4" font-size="11" font-variant-numeric="tabular-nums" text-anchor="end">30%</text>
    </g>
    <line x1="16" y1="174" x2="304" y2="174" stroke="#30363D" stroke-width="1"/>
    <g transform="translate(16, 188)">
      <text x="0" y="10" fill="#8B949E" font-size="11" font-weight="700" letter-spacing="0.5">OVERALL</text>
      <text x="288" y="10" fill="#D29922" font-size="13" font-weight="700" font-variant-numeric="tabular-nums" text-anchor="end">18%</text>
    </g>
    <text x="16" y="220" fill="#6E7681" font-size="10">aprobacion concentra el costo — alerta sobre review/qa</text>
  </g>

  <!-- =============== SECCION 2: TABLA QUOTA POR PROVIDER =============== -->
  <text x="32" y="566" fill="#8B949E" font-size="11" font-weight="600" letter-spacing="2">QUOTA POR PROVIDER · CA-5 · /api/dash/quota</text>

  <!-- Container -->
  <g transform="translate(32, 582)">
    <rect width="1376" height="280" rx="10" fill="#161B22" stroke="#30363D"/>

    <!-- Header de tabla -->
    <g transform="translate(0, 0)">
      <rect width="1376" height="40" rx="10" fill="#1C2128"/>
      <rect x="0" y="30" width="1376" height="10" fill="#1C2128"/>
      <rect x="0" y="39" width="1376" height="1" fill="#30363D"/>
      <text x="24" y="25" fill="#8B949E" font-size="10" font-weight="700" letter-spacing="1.5">PROVIDER</text>
      <text x="260" y="25" fill="#8B949E" font-size="10" font-weight="700" letter-spacing="1.5">PLAN</text>
      <text x="420" y="25" fill="#8B949E" font-size="10" font-weight="700" letter-spacing="1.5">USO 7d</text>
      <text x="580" y="25" fill="#8B949E" font-size="10" font-weight="700" letter-spacing="1.5">MAX</text>
      <text x="720" y="25" fill="#8B949E" font-size="10" font-weight="700" letter-spacing="1.5">% USADO</text>
      <text x="888" y="25" fill="#8B949E" font-size="10" font-weight="700" letter-spacing="1.5">BARRA</text>
      <text x="1248" y="25" fill="#8B949E" font-size="10" font-weight="700" letter-spacing="1.5">ESTADO</text>
    </g>

    <!-- Fila 1: Anthropic (CA-5.1 - el fix bloqueante) -->
    <g transform="translate(0, 56)">
      <text x="24" y="14" fill="#E6EDF3" font-size="14" font-weight="700">Anthropic</text>
      <circle cx="148" cy="9" r="5" fill="#E5946B"/>
      <text x="158" y="14" fill="#F4C9B1" font-size="11" font-variant-numeric="tabular-nums">claude.ai/max</text>
      <text x="260" y="14" fill="#E6EDF3" font-size="13" font-weight="600">Plan Max</text>
      <text x="420" y="14" fill="#E6EDF3" font-size="14" font-weight="700" font-variant-numeric="tabular-nums">12.5 h</text>
      <text x="580" y="14" fill="#B1BAC4" font-size="13" font-variant-numeric="tabular-nums">37 h</text>
      <text x="720" y="14" fill="#D29922" font-size="14" font-weight="700" font-variant-numeric="tabular-nums">34%</text>
      <!-- barra -->
      <rect x="888" y="3" width="336" height="14" rx="4" fill="#21262D"/>
      <rect x="888" y="3" width="114" height="14" rx="4" fill="#D29922"/>
      <!-- estado -->
      <g transform="translate(1248, -3)">
        <rect width="84" height="22" rx="11" fill="rgba(210,153,34,0.14)" stroke="#D29922" stroke-opacity="0.4"/>
        <circle cx="14" cy="11" r="3.5" fill="#D29922"/>
        <text x="26" y="15" fill="#D29922" font-size="11" font-weight="700" letter-spacing="0.5">WARNING</text>
      </g>
    </g>
    <line x1="0" y1="84" x2="1376" y2="84" stroke="#21262D"/>

    <!-- Fila 2: OpenAI Codex -->
    <g transform="translate(0, 100)">
      <text x="24" y="14" fill="#E6EDF3" font-size="14" font-weight="700">OpenAI Codex</text>
      <circle cx="172" cy="9" r="5" fill="#10B981"/>
      <text x="182" y="14" fill="#6EE7B7" font-size="11" font-variant-numeric="tabular-nums">api/plus</text>
      <text x="260" y="14" fill="#E6EDF3" font-size="13" font-weight="600">Plus</text>
      <text x="420" y="14" fill="#E6EDF3" font-size="14" font-weight="700" font-variant-numeric="tabular-nums">$3.40</text>
      <text x="580" y="14" fill="#B1BAC4" font-size="13" font-variant-numeric="tabular-nums">$50/mes</text>
      <text x="720" y="14" fill="#3FB950" font-size="14" font-weight="700" font-variant-numeric="tabular-nums">6.8%</text>
      <rect x="888" y="3" width="336" height="14" rx="4" fill="#21262D"/>
      <rect x="888" y="3" width="23" height="14" rx="4" fill="#3FB950"/>
      <g transform="translate(1248, -3)">
        <rect width="72" height="22" rx="11" fill="rgba(63,185,80,0.14)" stroke="#3FB950" stroke-opacity="0.4"/>
        <circle cx="14" cy="11" r="3.5" fill="#3FB950"/>
        <text x="26" y="15" fill="#3FB950" font-size="11" font-weight="700" letter-spacing="0.5">HEALTHY</text>
      </g>
    </g>
    <line x1="0" y1="128" x2="1376" y2="128" stroke="#21262D"/>

    <!-- Fila 3: Groq (free) -->
    <g transform="translate(0, 144)">
      <text x="24" y="14" fill="#E6EDF3" font-size="14" font-weight="700">Groq</text>
      <circle cx="80" cy="9" r="5" fill="#FF6B47"/>
      <text x="90" y="14" fill="#FFC1AE" font-size="11" font-variant-numeric="tabular-nums">lpu/free</text>
      <text x="260" y="14" fill="#B1BAC4" font-size="13" font-style="italic">Free tier</text>
      <text x="420" y="14" fill="#6E7681" font-size="14" font-variant-numeric="tabular-nums">—</text>
      <text x="580" y="14" fill="#6E7681" font-size="13" font-variant-numeric="tabular-nums">sin cap</text>
      <text x="720" y="14" fill="#6E7681" font-size="14" font-variant-numeric="tabular-nums">—</text>
      <rect x="888" y="3" width="336" height="14" rx="4" fill="#21262D" stroke="#21262D" stroke-dasharray="3 3"/>
      <text x="1056" y="13" fill="#6E7681" font-size="10" text-anchor="middle">free · sin quota tracking</text>
      <g transform="translate(1248, -3)">
        <rect width="60" height="22" rx="11" fill="rgba(177,186,196,0.10)" stroke="#484F58" stroke-opacity="0.4"/>
        <text x="30" y="15" fill="#B1BAC4" font-size="11" font-weight="700" letter-spacing="0.5" text-anchor="middle">FREE</text>
      </g>
    </g>
    <line x1="0" y1="172" x2="1376" y2="172" stroke="#21262D"/>

    <!-- Fila 4: Gemini -->
    <g transform="translate(0, 188)">
      <text x="24" y="14" fill="#E6EDF3" font-size="14" font-weight="700">Gemini</text>
      <circle cx="100" cy="9" r="5" fill="#8AB4F8"/>
      <text x="110" y="14" fill="#CBD9F9" font-size="11" font-variant-numeric="tabular-nums">ai-studio/free</text>
      <text x="260" y="14" fill="#B1BAC4" font-size="13" font-style="italic">Free tier</text>
      <text x="420" y="14" fill="#6E7681" font-size="14" font-variant-numeric="tabular-nums">—</text>
      <text x="580" y="14" fill="#6E7681" font-size="13" font-variant-numeric="tabular-nums">sin cap</text>
      <text x="720" y="14" fill="#6E7681" font-size="14" font-variant-numeric="tabular-nums">—</text>
      <rect x="888" y="3" width="336" height="14" rx="4" fill="#21262D" stroke="#21262D" stroke-dasharray="3 3"/>
      <text x="1056" y="13" fill="#6E7681" font-size="10" text-anchor="middle">free · TOS: prompts entrenan modelo</text>
      <g transform="translate(1248, -3)">
        <rect width="60" height="22" rx="11" fill="rgba(177,186,196,0.10)" stroke="#484F58" stroke-opacity="0.4"/>
        <text x="30" y="15" fill="#B1BAC4" font-size="11" font-weight="700" letter-spacing="0.5" text-anchor="middle">FREE</text>
      </g>
    </g>
    <line x1="0" y1="216" x2="1376" y2="216" stroke="#21262D"/>

    <!-- Fila 5: Cerebras -->
    <g transform="translate(0, 232)">
      <text x="24" y="14" fill="#E6EDF3" font-size="14" font-weight="700">Cerebras</text>
      <circle cx="116" cy="9" r="5" fill="#FFD166"/>
      <text x="126" y="14" fill="#FFE6A8" font-size="11" font-variant-numeric="tabular-nums">wafer/free</text>
      <text x="260" y="14" fill="#B1BAC4" font-size="13" font-style="italic">Free tier</text>
      <text x="420" y="14" fill="#6E7681" font-size="14" font-variant-numeric="tabular-nums">—</text>
      <text x="580" y="14" fill="#6E7681" font-size="13" font-variant-numeric="tabular-nums">sin cap</text>
      <text x="720" y="14" fill="#6E7681" font-size="14" font-variant-numeric="tabular-nums">—</text>
      <rect x="888" y="3" width="336" height="14" rx="4" fill="#21262D" stroke="#21262D" stroke-dasharray="3 3"/>
      <text x="1056" y="13" fill="#6E7681" font-size="10" text-anchor="middle">free · sin quota tracking</text>
      <g transform="translate(1248, -3)">
        <rect width="60" height="22" rx="11" fill="rgba(177,186,196,0.10)" stroke="#484F58" stroke-opacity="0.4"/>
        <text x="30" y="15" fill="#B1BAC4" font-size="11" font-weight="700" letter-spacing="0.5" text-anchor="middle">FREE</text>
      </g>
    </g>
  </g>

  <!-- Footer notas de diseno -->
  <g transform="translate(32, 880)">
    <text x="0" y="0" fill="#6E7681" font-size="10">
      Mockup self-contained · referencia design-tokens.css · iconos del sprite del repo · WCAG AA en todos los pares texto/fondo · sin SVG con codigo activo
    </text>
  </g>
</svg>
