<?xml version="1.0" encoding="UTF-8"?>
<!--
  Mockup 25 — Wizard "Configurar / rotar proveedor" (#3740)
  -----------------------------------------------------------------------------
  Wizard de 4 steps embebido en el dashboard V3 bajo
  /dashboard?view=providers&wizard=rotate&step=N. Cumple:
    - feedback_api-keys-terminal-only — el wizard NO crea keys nuevas, solo
      ver metadata + rotar existente + desactivar; banner inline recordando
      que el set inicial se hace por terminal Windows.
    - CA-D3 — masking sk-•••••<last4>, input type="password" con toggle
      controlado, jamas localStorage/sessionStorage.
    - CA-D5 — audit log con last4_old vs last4_new.
    - CA-C4 — operable sin docs externos (titulo + help inline en cada step).

  Layout (1440 x 1340):
    Header (Y 0..80)             — titulo + breadcrumb del wizard
    Step 1 (Y 100..560)          — seleccionar provider
    Step 2 (Y 580..1040)         — elegir accion (ver / rotar / desactivar)
    Step 3 (Y 100..560, columna 2) — rotar: input con toggle
    Step 4 (Y 580..1040, columna 2) — confirmacion con diff masking
    Footer leyendas (Y 1060..1340) — accesibilidad, security, copy
-->
<svg xmlns="http://www.w3.org/2000/svg" viewBox="0 0 1440 1340" font-family="-apple-system, 'Segoe UI Variable', 'Segoe UI', Roboto, sans-serif">
  <defs>
    <!-- Iconografia compatible con el sprite existente -->
    <symbol id="w-shield-key" viewBox="0 0 24 24">
      <path d="M12 3 L20 6 V12 C20 16.5 16.5 19.5 12 21 C7.5 19.5 4 16.5 4 12 V6 Z" fill="none" stroke="currentColor" stroke-width="1.75" stroke-linejoin="round"/>
      <circle cx="10" cy="13" r="2.5" fill="none" stroke="currentColor" stroke-width="1.4"/>
      <path d="M12 13 L17 13 M15 13 V14.5 M17 13 V14.5" stroke="currentColor" stroke-width="1.3" stroke-linecap="round"/>
    </symbol>
    <symbol id="w-key" viewBox="0 0 24 24">
      <circle cx="8" cy="13" r="4.5" fill="none" stroke="currentColor" stroke-width="1.75"/>
      <path d="M12.5 13 L21 13 M18 13 V16 M21 13 V16" fill="none" stroke="currentColor" stroke-width="1.75" stroke-linecap="round" stroke-linejoin="round"/>
      <circle cx="8" cy="13" r="1.4" fill="currentColor"/>
    </symbol>
    <symbol id="w-rotate" viewBox="0 0 24 24">
      <path d="M3.5 12 A8.5 8.5 0 0 1 12 3.5 A8.5 8.5 0 0 1 19.5 8" fill="none" stroke="currentColor" stroke-width="1.75" stroke-linecap="round"/>
      <path d="M20.5 12 A8.5 8.5 0 0 1 12 20.5 A8.5 8.5 0 0 1 4.5 16" fill="none" stroke="currentColor" stroke-width="1.75" stroke-linecap="round"/>
      <path d="M19.5 4 V8 H15.5" fill="none" stroke="currentColor" stroke-width="1.75" stroke-linecap="round" stroke-linejoin="round"/>
      <path d="M4.5 20 V16 H8.5" fill="none" stroke="currentColor" stroke-width="1.75" stroke-linecap="round" stroke-linejoin="round"/>
    </symbol>
    <symbol id="w-eye" viewBox="0 0 24 24">
      <path d="M2 12 C5 7 8.5 4.5 12 4.5 C15.5 4.5 19 7 22 12 C19 17 15.5 19.5 12 19.5 C8.5 19.5 5 17 2 12 Z" fill="none" stroke="currentColor" stroke-width="1.75"/>
      <circle cx="12" cy="12" r="3" fill="none" stroke="currentColor" stroke-width="1.6"/>
      <circle cx="12" cy="12" r="1" fill="currentColor"/>
    </symbol>
    <symbol id="w-eye-off" viewBox="0 0 24 24">
      <path d="M3 5 L21 21" stroke="currentColor" stroke-width="1.75" stroke-linecap="round"/>
      <path d="M5 8 C3.6 9.4 2.7 10.8 2 12 C5 17.5 8.5 20 12 20 C13.4 20 14.7 19.7 16 19.2" fill="none" stroke="currentColor" stroke-width="1.75" stroke-linecap="round"/>
      <path d="M9 5 C9.9 4.7 10.9 4.5 12 4.5 C15.5 4.5 19 7 22 12.5 C21.2 14 20.3 15.3 19.3 16.4" fill="none" stroke="currentColor" stroke-width="1.75" stroke-linecap="round"/>
      <path d="M9.5 9.5 A3.2 3.2 0 0 0 14.5 14.5" fill="none" stroke="currentColor" stroke-width="1.75" stroke-linecap="round"/>
    </symbol>
    <symbol id="w-terminal" viewBox="0 0 24 24">
      <rect x="2.5" y="4" width="19" height="16" rx="2" fill="none" stroke="currentColor" stroke-width="1.75"/>
      <path d="M6 9 L9.5 12.5 L6 16" fill="none" stroke="currentColor" stroke-width="1.75" stroke-linecap="round" stroke-linejoin="round"/>
      <path d="M11 16 H17" stroke="currentColor" stroke-width="1.75" stroke-linecap="round"/>
    </symbol>
    <symbol id="w-warning" viewBox="0 0 24 24">
      <path d="M12 3 L22 20 H2 Z" fill="none" stroke="currentColor" stroke-width="1.75" stroke-linejoin="round"/>
      <path d="M12 9.5 V14" stroke="currentColor" stroke-width="1.75" stroke-linecap="round"/>
      <circle cx="12" cy="17" r="0.9" fill="currentColor"/>
    </symbol>
    <symbol id="w-check" viewBox="0 0 24 24">
      <path d="M4 12 L10 18 L20 6" fill="none" stroke="currentColor" stroke-width="2.25" stroke-linecap="round" stroke-linejoin="round"/>
    </symbol>
    <symbol id="w-info" viewBox="0 0 24 24">
      <circle cx="12" cy="12" r="9" fill="none" stroke="currentColor" stroke-width="1.75"/>
      <path d="M12 10.5 V17" stroke="currentColor" stroke-width="1.75" stroke-linecap="round"/>
      <circle cx="12" cy="7.5" r="1" fill="currentColor"/>
    </symbol>
    <symbol id="w-power" viewBox="0 0 24 24">
      <path d="M12 4 V12" stroke="currentColor" stroke-width="1.75" stroke-linecap="round"/>
      <path d="M7 7 A8 8 0 1 0 17 7" fill="none" stroke="currentColor" stroke-width="1.75" stroke-linecap="round"/>
    </symbol>
    <symbol id="w-lock" viewBox="0 0 24 24">
      <rect x="5" y="11" width="14" height="9" rx="1.5" fill="none" stroke="currentColor" stroke-width="1.75"/>
      <path d="M8 11 V8 A4 4 0 0 1 16 8 V11" fill="none" stroke="currentColor" stroke-width="1.75"/>
      <circle cx="12" cy="15.5" r="1.2" fill="currentColor"/>
    </symbol>
    <symbol id="w-arrow-right" viewBox="0 0 24 24">
      <path d="M5 12 H19 M13 6 L19 12 L13 18" fill="none" stroke="currentColor" stroke-width="2" stroke-linecap="round" stroke-linejoin="round"/>
    </symbol>
    <symbol id="w-arrow-left" viewBox="0 0 24 24">
      <path d="M19 12 H5 M11 6 L5 12 L11 18" fill="none" stroke="currentColor" stroke-width="2" stroke-linecap="round" stroke-linejoin="round"/>
    </symbol>

    <!-- Glyphs por provider (estilo coherente con tokens 3.c / 3.d) -->
    <symbol id="w-prov-anthropic" viewBox="0 0 24 24">
      <path d="M9 4 L4 20 H7 L8 17 H13 L14 20 H17 L12 4 Z M9 14 L10.5 9 L12 14 Z" fill="currentColor"/>
    </symbol>
    <symbol id="w-prov-openai" viewBox="0 0 24 24">
      <path d="M12 3 L19 7 L19 16 L12 20 L5 16 L5 7 Z" fill="none" stroke="currentColor" stroke-width="1.75" stroke-linejoin="round"/>
      <path d="M12 7 L15.5 9 L15.5 14 L12 16 L8.5 14 L8.5 9 Z" fill="none" stroke="currentColor" stroke-width="1.4" stroke-linejoin="round"/>
    </symbol>
    <symbol id="w-prov-codex" viewBox="0 0 24 24">
      <path d="M9 7 L4 12 L9 17" fill="none" stroke="currentColor" stroke-width="1.75" stroke-linecap="round" stroke-linejoin="round"/>
      <path d="M15 7 L20 12 L15 17" fill="none" stroke="currentColor" stroke-width="1.75" stroke-linecap="round" stroke-linejoin="round"/>
      <path d="M13.5 5 L10.5 19" stroke="currentColor" stroke-width="1.6" stroke-linecap="round"/>
    </symbol>
    <symbol id="w-prov-gemini" viewBox="0 0 24 24">
      <path d="M12 3 L13.5 10.5 L21 12 L13.5 13.5 L12 21 L10.5 13.5 L3 12 L10.5 10.5 Z" fill="currentColor"/>
    </symbol>
    <symbol id="w-prov-cerebras" viewBox="0 0 24 24">
      <rect x="4" y="4" width="16" height="16" rx="2" fill="none" stroke="currentColor" stroke-width="1.75"/>
      <path d="M8 8 H16 M8 12 H16 M8 16 H16" stroke="currentColor" stroke-width="1.4" stroke-linecap="round"/>
      <circle cx="8" cy="8" r="1" fill="currentColor"/>
      <circle cx="16" cy="16" r="1" fill="currentColor"/>
    </symbol>

    <filter id="cardShadow" x="-10%" y="-10%" width="120%" height="120%">
      <feDropShadow dx="0" dy="6" stdDeviation="8" flood-color="#000" flood-opacity="0.35"/>
    </filter>
  </defs>

  <!-- ============ Fondo dimmed (backdrop del wizard montado sobre dashboard) ============ -->
  <rect width="1440" height="1340" fill="#0D1117"/>

  <!-- Header / breadcrumb -->
  <text x="32" y="44" fill="#E6EDF3" font-size="22" font-weight="600">Wizard · Configurar / rotar proveedor</text>
  <text x="32" y="68" fill="#8B949E" font-size="13">Bajo <tspan font-family="'SF Mono', Consolas, monospace" fill="#B1BAC4">/dashboard?view=providers&amp;wizard=rotate&amp;step=N</tspan> · 4 steps · backdrop dimmed · ESC cancela · CSRF + audit + idempotencia (#3724)</text>

  <!-- Tags de cumplimiento -->
  <g transform="translate(32,88)">
    <rect width="220" height="22" rx="11" fill="rgba(45,212,191,0.14)" stroke="#0D9488"/>
    <text x="110" y="15" text-anchor="middle" fill="#2DD4BF" font-size="11" font-weight="600" letter-spacing="0.05em">SPLIT DE #3715 · HIJO 4 DE 9</text>

    <rect x="232" y="0" width="200" height="22" rx="11" fill="rgba(0,214,255,0.14)" stroke="#0099B8"/>
    <text x="332" y="15" text-anchor="middle" fill="#00D6FF" font-size="11" font-weight="600" letter-spacing="0.05em">TERMINAL-ONLY (SET INICIAL)</text>

    <rect x="442" y="0" width="180" height="22" rx="11" fill="rgba(248,81,73,0.10)" stroke="#8B1A14"/>
    <text x="532" y="15" text-anchor="middle" fill="#F85149" font-size="11" font-weight="600" letter-spacing="0.05em">NEVER PLAIN TEXT</text>
  </g>

  <!-- =========================================================================
       STEP 1 — Seleccionar provider
       ========================================================================= -->
  <text x="32" y="148" fill="#2DD4BF" font-size="14" font-weight="600" letter-spacing="0.05em">STEP 1 / 4 · SELECCIONAR PROVIDER (CA-1)</text>

  <g transform="translate(32,162)">
    <rect width="668" height="416" rx="12" fill="#161B22" stroke="#30363D" filter="url(#cardShadow)"/>

    <!-- Step header -->
    <g transform="translate(24,24)">
      <text x="0" y="0" fill="#8B949E" font-size="11" letter-spacing="0.08em">PASO 1 DE 4</text>
      <text x="0" y="24" fill="#E6EDF3" font-size="20" font-weight="600">¿Sobre que proveedor queres operar?</text>
      <text x="0" y="48" fill="#B1BAC4" font-size="13">La lista sale del ENV_MAPPING canonico de <tspan font-family="'SF Mono', Consolas, monospace" fill="#E6EDF3">lib/credentials.js</tspan>. Sin hardcoding.</text>
    </g>

    <!-- Banner inline terminal-only -->
    <g transform="translate(24,108)">
      <rect width="620" height="46" rx="8" fill="rgba(0,214,255,0.08)" stroke="#0099B8"/>
      <g transform="translate(14,12)" color="#00D6FF">
        <svg width="22" height="22" viewBox="0 0 24 24"><use href="#w-terminal"/></svg>
      </g>
      <text x="46" y="20" fill="#00D6FF" font-size="12" font-weight="600">Set inicial de keys nuevas → terminal Windows</text>
      <text x="46" y="36" fill="#B1BAC4" font-size="11"><tspan font-family="'SF Mono', Consolas, monospace" fill="#E6EDF3">%USERPROFILE%\.claude\secrets\credentials.json</tspan> · este wizard NO crea, solo opera sobre keys preexistentes.</text>
    </g>

    <!-- Lista de providers -->
    <g transform="translate(24,168)">
      <!-- Item: Anthropic (Claude) — con key -->
      <g transform="translate(0,0)">
        <rect width="620" height="46" rx="8" fill="#1C2128" stroke="#30363D"/>
        <rect width="3" height="46" fill="#E5946B"/>
        <g transform="translate(18,11)" color="#E5946B">
          <svg width="22" height="22" viewBox="0 0 24 24"><use href="#w-prov-anthropic"/></svg>
        </g>
        <text x="56" y="22" fill="#E6EDF3" font-size="14" font-weight="600">Anthropic · Claude</text>
        <text x="56" y="38" fill="#8B949E" font-size="11" font-family="'SF Mono', Consolas, monospace">ANTHROPIC_API_KEY · rotada hace 12 dias</text>
        <rect x="450" y="11" width="130" height="24" rx="6" fill="rgba(63,185,80,0.14)" stroke="#196C2E"/>
        <text x="466" y="27" fill="#3FB950" font-size="11" font-family="'SF Mono', Consolas, monospace" font-weight="600">sk-ant-•••••8Y2k</text>
        <g transform="translate(594,13)" color="#8B949E">
          <svg width="18" height="18" viewBox="0 0 24 24"><use href="#w-arrow-right"/></svg>
        </g>
      </g>

      <!-- Item: OpenAI -->
      <g transform="translate(0,58)">
        <rect width="620" height="46" rx="8" fill="#1C2128" stroke="#30363D"/>
        <rect width="3" height="46" fill="#34D399"/>
        <g transform="translate(18,11)" color="#34D399">
          <svg width="22" height="22" viewBox="0 0 24 24"><use href="#w-prov-openai"/></svg>
        </g>
        <text x="56" y="22" fill="#E6EDF3" font-size="14" font-weight="600">OpenAI</text>
        <text x="56" y="38" fill="#8B949E" font-size="11" font-family="'SF Mono', Consolas, monospace">OPENAI_API_KEY · rotada hace 5 dias</text>
        <rect x="450" y="11" width="130" height="24" rx="6" fill="rgba(63,185,80,0.14)" stroke="#196C2E"/>
        <text x="466" y="27" fill="#3FB950" font-size="11" font-family="'SF Mono', Consolas, monospace" font-weight="600">sk-•••••pM9X</text>
        <g transform="translate(594,13)" color="#8B949E">
          <svg width="18" height="18" viewBox="0 0 24 24"><use href="#w-arrow-right"/></svg>
        </g>
      </g>

      <!-- Item: OpenAI-Codex -->
      <g transform="translate(0,116)">
        <rect width="620" height="46" rx="8" fill="#1C2128" stroke="#30363D"/>
        <rect width="3" height="46" fill="#10B981"/>
        <g transform="translate(18,11)" color="#10B981">
          <svg width="22" height="22" viewBox="0 0 24 24"><use href="#w-prov-codex"/></svg>
        </g>
        <text x="56" y="22" fill="#E6EDF3" font-size="14" font-weight="600">OpenAI · Codex</text>
        <text x="56" y="38" fill="#8B949E" font-size="11" font-family="'SF Mono', Consolas, monospace">OPENAI_CODEX_API_KEY · rotada hace 5 dias</text>
        <rect x="450" y="11" width="130" height="24" rx="6" fill="rgba(63,185,80,0.14)" stroke="#196C2E"/>
        <text x="466" y="27" fill="#3FB950" font-size="11" font-family="'SF Mono', Consolas, monospace" font-weight="600">sk-•••••wV1L</text>
        <g transform="translate(594,13)" color="#8B949E">
          <svg width="18" height="18" viewBox="0 0 24 24"><use href="#w-arrow-right"/></svg>
        </g>
      </g>

      <!-- Item: Gemini -->
      <g transform="translate(0,174)">
        <rect width="620" height="46" rx="8" fill="#1C2128" stroke="#30363D"/>
        <rect width="3" height="46" fill="#8AB4F8"/>
        <g transform="translate(18,11)" color="#8AB4F8">
          <svg width="22" height="22" viewBox="0 0 24 24"><use href="#w-prov-gemini"/></svg>
        </g>
        <text x="56" y="22" fill="#E6EDF3" font-size="14" font-weight="600">Google · Gemini</text>
        <text x="56" y="38" fill="#8B949E" font-size="11" font-family="'SF Mono', Consolas, monospace">GEMINI_API_KEY · jamas rotada</text>
        <rect x="430" y="11" width="150" height="24" rx="6" fill="rgba(210,153,34,0.14)" stroke="#9E6A03"/>
        <g transform="translate(440,16)" color="#D29922">
          <svg width="14" height="14" viewBox="0 0 24 24"><use href="#w-terminal"/></svg>
        </g>
        <text x="458" y="27" fill="#D29922" font-size="11" font-family="'SF Mono', Consolas, monospace" font-weight="600">sin key · usar terminal</text>
        <g transform="translate(594,13)" color="#6E7681">
          <svg width="18" height="18" viewBox="0 0 24 24"><use href="#w-arrow-right"/></svg>
        </g>
      </g>

      <!-- Item: Cerebras -->
      <g transform="translate(0,232)">
        <rect width="620" height="46" rx="8" fill="#1C2128" stroke="#30363D"/>
        <rect width="3" height="46" fill="#FFD166"/>
        <g transform="translate(18,11)" color="#FFD166">
          <svg width="22" height="22" viewBox="0 0 24 24"><use href="#w-prov-cerebras"/></svg>
        </g>
        <text x="56" y="22" fill="#E6EDF3" font-size="14" font-weight="600">Cerebras</text>
        <text x="56" y="38" fill="#8B949E" font-size="11" font-family="'SF Mono', Consolas, monospace">CEREBRAS_API_KEY · rotada hace 21 dias</text>
        <rect x="450" y="11" width="130" height="24" rx="6" fill="rgba(63,185,80,0.14)" stroke="#196C2E"/>
        <text x="466" y="27" fill="#3FB950" font-size="11" font-family="'SF Mono', Consolas, monospace" font-weight="600">cer-•••••aQ4r</text>
        <g transform="translate(594,13)" color="#8B949E">
          <svg width="18" height="18" viewBox="0 0 24 24"><use href="#w-arrow-right"/></svg>
        </g>
      </g>
    </g>

    <!-- Footer del step -->
    <g transform="translate(24,386)">
      <rect width="100" height="32" rx="6" fill="#1C2128" stroke="#30363D"/>
      <text x="50" y="21" text-anchor="middle" fill="#E6EDF3" font-size="12">Cancelar (ESC)</text>
      <text x="620" y="20" text-anchor="end" fill="#8B949E" font-size="11">Foco sigue orden de la lista · Enter selecciona</text>
    </g>
  </g>

  <!-- =========================================================================
       STEP 2 — Elegir accion (3 botones grandes + banner inline)
       ========================================================================= -->
  <text x="32" y="612" fill="#2DD4BF" font-size="14" font-weight="600" letter-spacing="0.05em">STEP 2 / 4 · ELEGIR ACCION SOBRE OPENAI (CA-2)</text>

  <g transform="translate(32,626)">
    <rect width="668" height="404" rx="12" fill="#161B22" stroke="#30363D" filter="url(#cardShadow)"/>

    <g transform="translate(24,24)">
      <text x="0" y="0" fill="#8B949E" font-size="11" letter-spacing="0.08em">PASO 2 DE 4 · OPENAI · sk-•••••pM9X</text>
      <text x="0" y="24" fill="#E6EDF3" font-size="20" font-weight="600">¿Que queres hacer con esta key?</text>
      <text x="0" y="48" fill="#B1BAC4" font-size="13">Tres acciones disponibles. La opcion "Crear nueva" NO existe — por politica el set inicial vive en terminal.</text>
    </g>

    <!-- Accion: Ver metadata -->
    <g transform="translate(24,108)">
      <rect width="200" height="200" rx="10" fill="#1C2128" stroke="#30363D"/>
      <g transform="translate(86,28)" color="#58A6FF">
        <svg width="32" height="32" viewBox="0 0 24 24"><use href="#w-eye"/></svg>
      </g>
      <text x="100" y="86" text-anchor="middle" fill="#E6EDF3" font-size="15" font-weight="600">Ver metadata</text>
      <text x="100" y="108" text-anchor="middle" fill="#B1BAC4" font-size="11">last4 · fecha de</text>
      <text x="100" y="122" text-anchor="middle" fill="#B1BAC4" font-size="11">ultima rotacion ·</text>
      <text x="100" y="136" text-anchor="middle" fill="#B1BAC4" font-size="11">estado activo</text>
      <rect x="20" y="158" width="160" height="28" rx="6" fill="rgba(88,166,255,0.14)" stroke="#1F6FEB"/>
      <text x="100" y="176" text-anchor="middle" fill="#58A6FF" font-size="11" font-weight="600">Salta al step 4</text>
    </g>

    <!-- Accion: Rotar key -->
    <g transform="translate(234,108)">
      <rect width="200" height="200" rx="10" fill="#1C2128" stroke="#F59E0B" stroke-width="1.5"/>
      <g transform="translate(86,28)" color="#F59E0B">
        <svg width="32" height="32" viewBox="0 0 24 24"><use href="#w-rotate"/></svg>
      </g>
      <text x="100" y="86" text-anchor="middle" fill="#E6EDF3" font-size="15" font-weight="600">Rotar key existente</text>
      <text x="100" y="108" text-anchor="middle" fill="#B1BAC4" font-size="11">Reemplazar la key</text>
      <text x="100" y="122" text-anchor="middle" fill="#B1BAC4" font-size="11">actual por una</text>
      <text x="100" y="136" text-anchor="middle" fill="#B1BAC4" font-size="11">nueva validada</text>
      <rect x="20" y="158" width="160" height="28" rx="6" fill="rgba(245,158,11,0.14)" stroke="#B8730A"/>
      <text x="100" y="176" text-anchor="middle" fill="#F59E0B" font-size="11" font-weight="600">Step 3 → step 4</text>
    </g>

    <!-- Accion: Desactivar -->
    <g transform="translate(444,108)">
      <rect width="200" height="200" rx="10" fill="#1C2128" stroke="#30363D"/>
      <g transform="translate(86,28)" color="#F85149">
        <svg width="32" height="32" viewBox="0 0 24 24"><use href="#w-power"/></svg>
      </g>
      <text x="100" y="86" text-anchor="middle" fill="#E6EDF3" font-size="15" font-weight="600">Desactivar</text>
      <text x="100" y="108" text-anchor="middle" fill="#B1BAC4" font-size="11">Marcar la key como</text>
      <text x="100" y="122" text-anchor="middle" fill="#B1BAC4" font-size="11">null en el JSON.</text>
      <text x="100" y="136" text-anchor="middle" fill="#B1BAC4" font-size="11">El multi-provider</text>
      <text x="100" y="150" text-anchor="middle" fill="#B1BAC4" font-size="11">salta este provider.</text>
      <rect x="20" y="166" width="160" height="28" rx="6" fill="rgba(248,81,73,0.14)" stroke="#8B1A14"/>
      <text x="100" y="184" text-anchor="middle" fill="#F85149" font-size="11" font-weight="600">Salta al step 4</text>
    </g>

    <!-- Recordatorio inline -->
    <g transform="translate(24,326)">
      <rect width="620" height="42" rx="8" fill="rgba(0,214,255,0.08)" stroke="#0099B8"/>
      <g transform="translate(14,11)" color="#00D6FF">
        <svg width="20" height="20" viewBox="0 0 24 24"><use href="#w-info"/></svg>
      </g>
      <text x="44" y="20" fill="#00D6FF" font-size="12" font-weight="600">¿Crear nueva key?</text>
      <text x="44" y="34" fill="#B1BAC4" font-size="11">Salida intencional — el wizard no acepta keys que no existan previamente. Setear nueva en terminal y volver aca.</text>
    </g>

    <!-- Footer (back + estado de seleccion) -->
    <g transform="translate(24,376)">
      <rect width="80" height="28" rx="6" fill="#1C2128" stroke="#30363D"/>
      <g transform="translate(10,5)" color="#E6EDF3">
        <svg width="18" height="18" viewBox="0 0 24 24"><use href="#w-arrow-left"/></svg>
      </g>
      <text x="46" y="19" fill="#E6EDF3" font-size="12">Atras</text>
      <text x="620" y="19" text-anchor="end" fill="#8B949E" font-size="11">Click selecciona accion · auto-avanza · ESC cancela el wizard</text>
    </g>
  </g>

  <!-- =========================================================================
       STEP 3 — Input enmascarado con toggle (solo si rotar)
       ========================================================================= -->
  <text x="740" y="148" fill="#2DD4BF" font-size="14" font-weight="600" letter-spacing="0.05em">STEP 3 / 4 · INPUT ENMASCARADO + TOGGLE (CA-3 · CA-4)</text>

  <g transform="translate(740,162)">
    <rect width="668" height="416" rx="12" fill="#161B22" stroke="#30363D" filter="url(#cardShadow)"/>

    <g transform="translate(24,24)">
      <text x="0" y="0" fill="#8B949E" font-size="11" letter-spacing="0.08em">PASO 3 DE 4 · OPENAI · ROTAR</text>
      <text x="0" y="24" fill="#E6EDF3" font-size="20" font-weight="600">Pega la nueva API key</text>
      <text x="0" y="48" fill="#B1BAC4" font-size="13">Se valida server-side por regex sin loguear el input. Si la regex falla → <tspan font-family="'SF Mono', Consolas, monospace" fill="#E6EDF3">400 format_invalid</tspan> sin echo.</text>
    </g>

    <!-- Label + input password -->
    <g transform="translate(24,108)">
      <text x="0" y="0" fill="#8B949E" font-size="11" letter-spacing="0.06em">NUEVA API KEY · OPENAI</text>
      <rect x="0" y="10" width="620" height="48" rx="8" fill="#0D1117" stroke="#1F6FEB" stroke-width="1.6"/>
      <g transform="translate(14,23)" color="#34D399">
        <svg width="22" height="22" viewBox="0 0 24 24"><use href="#w-key"/></svg>
      </g>
      <!-- Texto "tipeado" enmascarado (type=password real → solo bullets) -->
      <text x="46" y="40" fill="#E6EDF3" font-size="14" font-family="'SF Mono', Consolas, monospace">•••••••••••••••••••••••••••••••••••••••••••••</text>
      <!-- Toggle eye-off → mantener presionado para ver -->
      <g transform="translate(572,22)" color="#8B949E">
        <rect x="-6" y="-3" width="36" height="30" rx="6" fill="#1C2128" stroke="#30363D"/>
        <g transform="translate(3,3)" color="#8B949E">
          <svg width="18" height="18" viewBox="0 0 24 24"><use href="#w-eye-off"/></svg>
        </g>
      </g>
      <text x="0" y="74" fill="#8B949E" font-size="11">
        <tspan font-weight="600" fill="#B1BAC4">Toggle press-to-view:</tspan>
        manten presionado el boton del ojo (mousedown/mouseup) para ver en claro. Nunca persistente.
      </text>
      <text x="0" y="90" fill="#8B949E" font-size="11">
        Input <tspan font-family="'SF Mono', Consolas, monospace" fill="#E6EDF3">type="password" autocomplete="off" spellcheck="false"</tspan> · sin value precargado.
      </text>
    </g>

    <!-- Validacion regex contextual -->
    <g transform="translate(24,230)">
      <rect width="620" height="92" rx="8" fill="#0D1117" stroke="#30363D"/>
      <text x="14" y="22" fill="#8B949E" font-size="11" letter-spacing="0.06em">VALIDACION SERVER-SIDE · sin loguear input crudo</text>
      <g transform="translate(14,32)" font-family="'SF Mono', Consolas, monospace" font-size="11">
        <text fill="#B1BAC4">openai → <tspan fill="#34D399">^sk-[A-Za-z0-9_-]{40,}$</tspan>      <tspan fill="#3FB950">[match]</tspan></text>
        <text y="16" fill="#B1BAC4">anthropic → <tspan fill="#34D399">^sk-ant-[A-Za-z0-9_-]{40,}$</tspan>   <tspan fill="#8B949E">[N/A — provider activo: openai]</tspan></text>
        <text y="32" fill="#B1BAC4">gemini → <tspan fill="#34D399">^AIza[A-Za-z0-9_-]{30,}$</tspan>     <tspan fill="#8B949E">[N/A]</tspan></text>
        <text y="48" fill="#B1BAC4">cerebras → <tspan fill="#34D399">^cer-[A-Za-z0-9_-]{30,}$</tspan>     <tspan fill="#8B949E">[N/A]</tspan></text>
      </g>
    </g>

    <!-- Estado validacion + boton continuar -->
    <g transform="translate(24,338)">
      <rect width="266" height="40" rx="8" fill="rgba(63,185,80,0.10)" stroke="#196C2E"/>
      <g transform="translate(12,11)" color="#3FB950">
        <svg width="18" height="18" viewBox="0 0 24 24"><use href="#w-check"/></svg>
      </g>
      <text x="40" y="25" fill="#3FB950" font-size="12" font-weight="600">Formato valido — listo para confirmar</text>

      <rect x="328" y="0" width="80" height="40" rx="8" fill="#1C2128" stroke="#30363D"/>
      <g transform="translate(340,11)" color="#E6EDF3">
        <svg width="18" height="18" viewBox="0 0 24 24"><use href="#w-arrow-left"/></svg>
      </g>
      <text x="378" y="25" fill="#E6EDF3" font-size="12">Atras</text>

      <rect x="424" y="0" width="196" height="40" rx="8" fill="#F59E0B"/>
      <text x="522" y="25" text-anchor="middle" fill="#0D1117" font-size="13" font-weight="600">Continuar al step 4</text>
    </g>
  </g>

  <!-- =========================================================================
       STEP 4 — Confirmacion con diff masking last4_old vs last4_new
       ========================================================================= -->
  <text x="740" y="612" fill="#2DD4BF" font-size="14" font-weight="600" letter-spacing="0.05em">STEP 4 / 4 · CONFIRMACION CON DIFF MASKING (CA-5 · CA-10)</text>

  <g transform="translate(740,626)">
    <rect width="668" height="404" rx="12" fill="#161B22" stroke="#30363D" filter="url(#cardShadow)"/>

    <g transform="translate(24,24)">
      <text x="0" y="0" fill="#8B949E" font-size="11" letter-spacing="0.08em">PASO 4 DE 4 · OPENAI · ROTAR</text>
      <text x="0" y="24" fill="#E6EDF3" font-size="20" font-weight="600">Confirmar la rotacion</text>
      <text x="0" y="48" fill="#B1BAC4" font-size="13">Diff con masking. La key completa nunca aparece en HTML, ni en <tspan font-family="'SF Mono', Consolas, monospace" fill="#E6EDF3">data-*</tspan>, ni en <tspan font-family="'SF Mono', Consolas, monospace" fill="#E6EDF3">value</tspan>.</text>
    </g>

    <!-- Diff Antes -> Despues -->
    <g transform="translate(24,108)">
      <rect width="620" height="148" rx="10" fill="#0D1117" stroke="#30363D"/>

      <g transform="translate(24,28)">
        <text x="0" y="0" fill="#F85149" font-size="11" font-weight="600" letter-spacing="0.06em">— ANTES (key actual)</text>
        <rect x="0" y="14" width="246" height="40" rx="6" fill="rgba(248,81,73,0.08)" stroke="#8B1A14"/>
        <g transform="translate(12,26)" color="#F85149">
          <svg width="16" height="16" viewBox="0 0 24 24"><use href="#w-lock"/></svg>
        </g>
        <text x="36" y="39" fill="#E6EDF3" font-size="14" font-family="'SF Mono', Consolas, monospace">sk-•••••pM9X</text>
      </g>

      <g transform="translate(296,68)" color="#8B949E">
        <svg width="28" height="28" viewBox="0 0 24 24"><use href="#w-arrow-right"/></svg>
      </g>

      <g transform="translate(346,28)">
        <text x="0" y="0" fill="#3FB950" font-size="11" font-weight="600" letter-spacing="0.06em">+ DESPUES (nueva key)</text>
        <rect x="0" y="14" width="246" height="40" rx="6" fill="rgba(63,185,80,0.10)" stroke="#196C2E"/>
        <g transform="translate(12,26)" color="#3FB950">
          <svg width="16" height="16" viewBox="0 0 24 24"><use href="#w-check"/></svg>
        </g>
        <text x="36" y="39" fill="#E6EDF3" font-size="14" font-family="'SF Mono', Consolas, monospace">sk-•••••K9pM</text>
      </g>

      <!-- Audit preview -->
      <g transform="translate(24,98)">
        <text x="0" y="0" fill="#8B949E" font-size="11" letter-spacing="0.06em">ENTRY DE AUDIT LOG (preview)</text>
        <g transform="translate(0,8)" font-family="'SF Mono', Consolas, monospace" font-size="10">
          <text fill="#B1BAC4">{"ts":"<tspan fill="#E6EDF3">2026-05-30T19:42:08Z</tspan>","actor":"<tspan fill="#E6EDF3">leitolarreta</tspan>","action":"<tspan fill="#BC8CFF">rotate_provider</tspan>",</text>
          <text y="14" fill="#B1BAC4"> "provider":"<tspan fill="#34D399">openai</tspan>","last4_old":"<tspan fill="#F85149">pM9X</tspan>","last4_new":"<tspan fill="#3FB950">K9pM</tspan>","outcome":"<tspan fill="#3FB950">success</tspan>"}</text>
        </g>
      </g>
    </g>

    <!-- Defense-in-depth pills -->
    <g transform="translate(24,272)">
      <g>
        <rect width="146" height="26" rx="13" fill="rgba(63,185,80,0.10)" stroke="#196C2E"/>
        <text x="73" y="17" text-anchor="middle" fill="#3FB950" font-size="11" font-weight="600">file-lock mutex</text>
      </g>
      <g transform="translate(156,0)">
        <rect width="146" height="26" rx="13" fill="rgba(63,185,80,0.10)" stroke="#196C2E"/>
        <text x="73" y="17" text-anchor="middle" fill="#3FB950" font-size="11" font-weight="600">no-store + no-cache</text>
      </g>
      <g transform="translate(312,0)">
        <rect width="146" height="26" rx="13" fill="rgba(63,185,80,0.10)" stroke="#196C2E"/>
        <text x="73" y="17" text-anchor="middle" fill="#3FB950" font-size="11" font-weight="600">CSRF + Sec-Fetch</text>
      </g>
      <g transform="translate(468,0)">
        <rect width="152" height="26" rx="13" fill="rgba(63,185,80,0.10)" stroke="#196C2E"/>
        <text x="76" y="17" text-anchor="middle" fill="#3FB950" font-size="11" font-weight="600">SHA-256 audit chain</text>
      </g>
    </g>

    <!-- Botones final -->
    <g transform="translate(24,316)">
      <rect width="80" height="40" rx="8" fill="#1C2128" stroke="#30363D"/>
      <g transform="translate(10,11)" color="#E6EDF3">
        <svg width="18" height="18" viewBox="0 0 24 24"><use href="#w-arrow-left"/></svg>
      </g>
      <text x="46" y="25" fill="#E6EDF3" font-size="12">Atras</text>

      <rect x="100" y="0" width="120" height="40" rx="8" fill="#1C2128" stroke="#30363D"/>
      <text x="160" y="25" text-anchor="middle" fill="#E6EDF3" font-size="12">Cancelar (ESC)</text>

      <rect x="236" y="0" width="384" height="40" rx="8" fill="#3FB950"/>
      <g transform="translate(252,11)" color="#0D1117">
        <svg width="18" height="18" viewBox="0 0 24 24"><use href="#w-check"/></svg>
      </g>
      <text x="428" y="25" text-anchor="middle" fill="#0D1117" font-size="13" font-weight="600">Confirmar rotacion — guardar y auditar</text>
    </g>
  </g>

  <!-- =========================================================================
       SECCION FOOTER — Reglas operativas y de accesibilidad
       ========================================================================= -->
  <text x="32" y="1080" fill="#2DD4BF" font-size="14" font-weight="600" letter-spacing="0.05em">REGLAS OPERATIVAS · ACCESIBILIDAD WCAG AA · SECURITY DEFENSE-IN-DEPTH</text>

  <g transform="translate(32,1096)">
    <rect width="1376" height="220" rx="12" fill="#161B22" stroke="#30363D"/>

    <!-- Columna 1 — UX / accesibilidad -->
    <g transform="translate(24,24)">
      <text x="0" y="0" fill="#E6EDF3" font-size="14" font-weight="600">UX · Operable sin docs (CA-14)</text>
      <text x="0" y="20" fill="#B1BAC4" font-size="12">
        <tspan font-weight="500" fill="#E6EDF3">• Titulo por step</tspan> "Paso N de 4: …" + parrafo ≤ 2 frases.
      </text>
      <text x="0" y="38" fill="#B1BAC4" font-size="12">• Foco entra al primer control accionable de cada step.</text>
      <text x="0" y="56" fill="#B1BAC4" font-size="12">• Auto-avance step 1→2 al seleccionar provider; manual 3→4.</text>
      <text x="0" y="74" fill="#B1BAC4" font-size="12">• ESC siempre cancela el wizard sin escribir nada.</text>
      <text x="0" y="92" fill="#B1BAC4" font-size="12">• prefers-reduced-motion: sin animacion en transicion de steps.</text>
      <text x="0" y="116" fill="#E6EDF3" font-size="14" font-weight="600">Tipografia</text>
      <text x="0" y="136" fill="#B1BAC4" font-size="12">Display: <tspan font-family="'SF Mono', Consolas, monospace" fill="#E6EDF3">--fs-2xl (26px)</tspan> · body <tspan font-family="'SF Mono', Consolas, monospace" fill="#E6EDF3">--fs-md (16px)</tspan></text>
      <text x="0" y="154" fill="#B1BAC4" font-size="12">Mono (last4 + entry audit): <tspan font-family="'SF Mono', Consolas, monospace" fill="#E6EDF3">--font-mono</tspan></text>
      <text x="0" y="172" fill="#B1BAC4" font-size="12">Touch target minimo: 40px (botones de accion 200x200).</text>
    </g>

    <!-- Columna 2 — Security defense-in-depth -->
    <g transform="translate(444,24)">
      <text x="0" y="0" fill="#E6EDF3" font-size="14" font-weight="600">Security · Defense in depth</text>
      <text x="0" y="20" fill="#B1BAC4" font-size="12">
        <tspan font-weight="500" fill="#F85149">• Never plain text</tspan> en HTML, data-*, value, ni respuesta JSON.
      </text>
      <text x="0" y="38" fill="#B1BAC4" font-size="12">• Toggle eye-off es press-to-view (mousedown/mouseup).</text>
      <text x="0" y="56" fill="#B1BAC4" font-size="12">• Input <tspan font-family="'SF Mono', Consolas, monospace" fill="#E6EDF3">type="password" autocomplete="off"</tspan>.</text>
      <text x="0" y="74" fill="#B1BAC4" font-size="12">• localStorage/sessionStorage NUNCA contienen <tspan font-family="'SF Mono', Consolas, monospace" fill="#E6EDF3">sk-*</tspan>.</text>
      <text x="0" y="92" fill="#B1BAC4" font-size="12">• <tspan font-family="'SF Mono', Consolas, monospace" fill="#E6EDF3">Cache-Control: no-store, no-cache, must-revalidate, private</tspan></text>
      <text x="0" y="110" fill="#B1BAC4" font-size="12">• Pragma + Expires:0 + Vary:Cookie (compat HTTP/1.0 proxies).</text>
      <text x="0" y="128" fill="#B1BAC4" font-size="12">• Validacion regex server-side sin loguear input crudo.</text>
      <text x="0" y="146" fill="#B1BAC4" font-size="12">• Allowlist de provider contra <tspan font-family="'SF Mono', Consolas, monospace" fill="#E6EDF3">ENV_MAPPING</tspan>.</text>
      <text x="0" y="164" fill="#B1BAC4" font-size="12">• <tspan font-family="'SF Mono', Consolas, monospace" fill="#E6EDF3">file-lock.js</tspan> obligatorio para escribir <tspan font-family="'SF Mono', Consolas, monospace" fill="#E6EDF3">credentials.json</tspan>.</text>
    </g>

    <!-- Columna 3 — Contraste WCAG -->
    <g transform="translate(880,24)">
      <text x="0" y="0" fill="#E6EDF3" font-size="14" font-weight="600">Contraste WCAG AA verificado</text>
      <g transform="translate(0,18)" font-size="11">
        <text x="0" y="0" fill="#8B949E" letter-spacing="0.06em">TOKEN</text>
        <text x="160" y="0" fill="#8B949E" letter-spacing="0.06em">USO</text>
        <text x="340" y="0" fill="#8B949E" letter-spacing="0.06em">vs surface-0</text>
        <line x1="0" y1="6" x2="466" y2="6" stroke="#21262D"/>

        <g transform="translate(0,22)">
          <text fill="#E5946B" font-family="'SF Mono', Consolas, monospace">--provider-anthropic</text>
          <text x="160" fill="#B1BAC4">Borde Anthropic</text>
          <text x="340" fill="#3FB950" font-weight="500">7.4:1 (AA Large)</text>
        </g>
        <g transform="translate(0,42)">
          <text fill="#34D399" font-family="'SF Mono', Consolas, monospace">--provider-openai</text>
          <text x="160" fill="#B1BAC4">Borde OpenAI · check OK</text>
          <text x="340" fill="#3FB950" font-weight="500">8.9:1 (AA Normal)</text>
        </g>
        <g transform="translate(0,62)">
          <text fill="#F59E0B" font-family="'SF Mono', Consolas, monospace">--retry</text>
          <text x="160" fill="#B1BAC4">Rotar key (borde + boton)</text>
          <text x="340" fill="#3FB950" font-weight="500">8.9:1 (AA Normal + AAA Large)</text>
        </g>
        <g transform="translate(0,82)">
          <text fill="#F85149" font-family="'SF Mono', Consolas, monospace">--danger</text>
          <text x="160" fill="#B1BAC4">Diff antes (badge — pM9X)</text>
          <text x="340" fill="#3FB950" font-weight="500">5.6:1 (AA Normal)</text>
        </g>
        <g transform="translate(0,102)">
          <text fill="#3FB950" font-family="'SF Mono', Consolas, monospace">--success</text>
          <text x="160" fill="#B1BAC4">Diff despues + confirmar</text>
          <text x="340" fill="#3FB950" font-weight="500">7.3:1 (AA Normal + AAA Large)</text>
        </g>
        <g transform="translate(0,122)">
          <text fill="#00D6FF" font-family="'SF Mono', Consolas, monospace">--brand-cyan</text>
          <text x="160" fill="#B1BAC4">Banner terminal-only</text>
          <text x="340" fill="#3FB950" font-weight="500">11.4:1 (AAA)</text>
        </g>
        <g transform="translate(0,142)">
          <text fill="#2DD4BF" font-family="'SF Mono', Consolas, monospace">--teal</text>
          <text x="160" fill="#B1BAC4">Titulos de step</text>
          <text x="340" fill="#3FB950" font-weight="500">10.4:1 (AAA)</text>
        </g>
      </g>
    </g>
  </g>

  <!-- Footer info -->
  <g transform="translate(32,1326)">
    <text fill="#6E7681" font-size="10" font-family="'SF Mono', Consolas, monospace">mockup 25 · wizard-providers-rotate · v1 · issue #3740 · 4 steps + reglas operativas + WCAG</text>
  </g>
</svg>
