<?xml version="1.0" encoding="UTF-8"?>
<!--
  Mockup 28 — Rediseño ventana Issues V3 (#3730, split de #3715)
  ============================================================================
  Spec de diseño vinculante para la extracción de la ventana Issues del
  monolito (dashboard.js / views/dashboard/satellites.js) →
  .pipeline/views/dashboard/issues.js.

  Render previsto: kiosk dashboard del operador (localhost, dark-first).
  Interpretacion B (vista operacional, cards) — confirmada por UX:
  https://github.com/intrale/platform/issues/3730#issuecomment-4584963619

  Todos los colores provienen de .pipeline/assets/design-tokens.css — CERO
  HEX nuevo. Los HEX literales de este SVG son SOLO espejo de los tokens para
  el render estatico del mockup; en el modulo issues.js se usan var(--token).
  Iconos: <use href="#ic-..."> del sprite global .pipeline/assets/icons/sprite.svg.

  Estructura de la ventana (entry point unico renderIssuesHTML(opts)):
    1. iss-head          -> ic-issues-count + titulo Issues + chevron + popout + summary
    2. issues-filter-bar -> chips de estado (aria-pressed) + search + filtro fase
    3. issues-grid       -> grilla auto-fill de renderIssueCard(issue)
    4. issues-dialog     -> drilldown <dialog> nativo (focus trap + Esc)

  Decisiones cerradas (architect signoff + criterios PO):
    - Rail vertical 3px gradient brand-cyan->brand-blue como firma del panel.
    - Funcion pura renderIssuesHTML(opts); renderIssueCard + renderIssuesClientScript
      como exports testeables.
    - Tokens consumidos exclusivamente desde design-tokens.css.
    - Drilldown <dialog> nativo (NO modal custom). showModal() => focus trap.
    - NO tocar la tabla telemetrica cliente de /consumo (R-1).
    - Tooltips title="" nativos escapados con escapeHtmlAttr() en cada accion.

  WCAG AA: ratios de texto >= 4.5:1; estados nunca solo por color
  (icono + texto + peso/borde).
-->
<svg xmlns="http://www.w3.org/2000/svg" viewBox="0 0 1680 1320" width="1680" height="1320"
     font-family="-apple-system, BlinkMacSystemFont, 'Segoe UI', Roboto, sans-serif">
  <defs>
    <linearGradient id="railIssues" x1="0" y1="0" x2="0" y2="1">
      <stop offset="0%"   stop-color="#00D6FF"/>
      <stop offset="100%" stop-color="#1890FF"/>
    </linearGradient>
    <linearGradient id="brandText" x1="0" y1="0" x2="1" y2="0">
      <stop offset="0%"   stop-color="#00D6FF"/>
      <stop offset="100%" stop-color="#1890FF"/>
    </linearGradient>
    <filter id="elev" x="-20%" y="-20%" width="140%" height="140%">
      <feDropShadow dx="0" dy="2" stdDeviation="5" flood-color="#000" flood-opacity="0.40"/>
    </filter>
    <filter id="elevModal" x="-20%" y="-20%" width="140%" height="140%">
      <feDropShadow dx="0" dy="8" stdDeviation="18" flood-color="#000" flood-opacity="0.60"/>
    </filter>
  </defs>

  <!-- ============================================================ BACKGROUND -->
  <rect x="0" y="0" width="1680" height="1320" fill="#0D1117"/>

  <!-- ============================================================ PANEL RAIL -->
  <rect x="40" y="40" width="3" height="1240" rx="1.5" fill="url(#railIssues)"/>

  <!-- ============================================================ HEADER -->
  <g transform="translate(72,64)">
    <!-- ic-issues-count -->
    <rect x="0" y="2" width="30" height="30" rx="7" fill="#161B22" stroke="#30363D"/>
    <use href="#ic-issues-count" x="5" y="7" width="20" height="20" color="#58A6FF"/>
    <text x="44" y="26" font-size="26" font-weight="700" fill="url(#brandText)">Issues</text>
    <!-- chevron colapsable -->
    <use href="#ic-collapse" x="148" y="8" width="18" height="18" color="#8B949E"/>
    <!-- popout -->
    <use href="#ic-link-out" x="176" y="8" width="18" height="18" color="#8B949E"/>

    <!-- summary aria-live -->
    <g transform="translate(1230,4)">
      <text x="0" y="14" font-size="13" fill="#B1BAC4" text-anchor="end">
        <tspan fill="#E6EDF3" font-weight="700">12</tspan> issues ·
        <tspan fill="#58A6FF" font-weight="600">3</tspan> trabajando ·
        <tspan fill="#3FB950" font-weight="600">2</tspan> listos ·
        <tspan fill="#D29922" font-weight="600">1</tspan> bloqueado
      </text>
    </g>
  </g>

  <!-- ============================================================ FILTER BAR (role=toolbar) -->
  <g transform="translate(72,120)">
    <!-- chips de estado: data-filter + aria-pressed -->
    <!-- Todos (activo) -->
    <rect x="0" y="0" width="78" height="32" rx="8" fill="#1F6FEB" fill-opacity="0.20" stroke="#58A6FF"/>
    <text x="39" y="21" font-size="13" font-weight="700" fill="#58A6FF" text-anchor="middle">Todos</text>
    <!-- Trabajando -->
    <rect x="90" y="0" width="120" height="32" rx="8" fill="#161B22" stroke="#30363D"/>
    <use href="#ic-fase-dev" x="100" y="8" width="16" height="16" color="#58A6FF"/>
    <text x="122" y="21" font-size="13" font-weight="500" fill="#B1BAC4">Trabajando</text>
    <!-- Listos -->
    <rect x="222" y="0" width="92" height="32" rx="8" fill="#161B22" stroke="#30363D"/>
    <use href="#ic-cell-pass" x="232" y="8" width="16" height="16" color="#3FB950"/>
    <text x="254" y="21" font-size="13" font-weight="500" fill="#B1BAC4">Listos</text>
    <!-- Bloqueados -->
    <rect x="326" y="0" width="118" height="32" rx="8" fill="#161B22" stroke="#30363D"/>
    <use href="#ic-pause-lock" x="336" y="8" width="16" height="16" color="#D29922"/>
    <text x="358" y="21" font-size="13" font-weight="500" fill="#B1BAC4">Bloqueados</text>
    <!-- Rebotes -->
    <rect x="456" y="0" width="100" height="32" rx="8" fill="#161B22" stroke="#30363D"/>
    <use href="#ic-estado-rebote" x="466" y="8" width="16" height="16" color="#F85149"/>
    <text x="488" y="21" font-size="13" font-weight="500" fill="#B1BAC4">Rebotes</text>

    <!-- filtro por fase (select accesible) -->
    <rect x="1190" y="0" width="294" height="32" rx="8" fill="#161B22" stroke="#30363D"/>
    <text x="1206" y="21" font-size="13" fill="#8B949E">Fase:</text>
    <text x="1244" y="21" font-size="13" fill="#E6EDF3">Todas</text>
    <use href="#ic-collapse" x="1460" y="9" width="14" height="14" color="#8B949E"/>

    <!-- search input full-width -->
    <rect x="0" y="46" width="1412" height="40" rx="9" fill="#161B22" stroke="#30363D"/>
    <use href="#ic-issues-count" x="14" y="56" width="18" height="18" color="#6E7681"/>
    <text x="44" y="71" font-size="13" fill="#6E7681">filtrar por #issue, fase o titulo…</text>
  </g>

  <!-- ============================================================ ISSUES GRID (auto-fill, aria-live) -->
  <!-- Card geometry: w=448 h=176, gap=20, 3 columnas; x: 72 / 540 / 1008 -->

  <!-- ============ CARD 1 — trabajando, prioridad #1 ============ -->
  <g transform="translate(72,256)">
    <rect x="0" y="0" width="448" height="176" rx="12" fill="#161B22" stroke="#30363D" filter="url(#elev)"/>
    <!-- focus ring hint (tabindex=0 / role=article) -->
    <rect x="-2" y="-2" width="452" height="180" rx="14" fill="none" stroke="#484F58" stroke-opacity="0.0"/>
    <!-- top row -->
    <rect x="18" y="18" width="34" height="22" rx="6" fill="#1C2128" stroke="#30363D"/>
    <text x="35" y="33" font-size="12" font-weight="700" fill="#B1BAC4" text-anchor="middle">#1</text>
    <text x="64" y="34" font-size="16" font-weight="700" fill="#58A6FF">#3730</text>
    <!-- chip estado trabajando -->
    <rect x="330" y="16" width="100" height="26" rx="13" fill="#58A6FF" fill-opacity="0.14" stroke="#1F6FEB"/>
    <use href="#ic-fase-dev" x="342" y="22" width="14" height="14" color="#58A6FF"/>
    <text x="362" y="33" font-size="12" font-weight="600" fill="#58A6FF">trabajando</text>
    <!-- title (2 lineas) -->
    <text x="18" y="74" font-size="15" font-weight="600" fill="#E6EDF3">[Split de #3715] Ventana Issues:</text>
    <text x="18" y="96" font-size="15" font-weight="600" fill="#E6EDF3">extraccion + rediseno V3</text>
    <!-- meta row -->
    <use href="#ic-fase-dev" x="18" y="116" width="16" height="16" color="#B1BAC4"/>
    <text x="40" y="129" font-size="12" fill="#B1BAC4">fase: dev</text>
    <rect x="130" y="116" width="40" height="18" rx="5" fill="#1C2128" stroke="#30363D"/>
    <text x="150" y="129" font-size="11" font-weight="600" fill="#8B949E" text-anchor="middle">0×</text>
    <!-- action row -->
    <g transform="translate(18,148)">
      <rect x="0" y="0" width="30" height="24" rx="6" fill="#0D1117" stroke="#30363D"/>
      <use href="#ic-promote" x="7" y="5" width="16" height="14" color="#8B949E"/>
      <rect x="38" y="0" width="30" height="24" rx="6" fill="#0D1117" stroke="#30363D"/>
      <text x="53" y="16" font-size="12" fill="#8B949E" text-anchor="middle">▲</text>
      <rect x="76" y="0" width="30" height="24" rx="6" fill="#0D1117" stroke="#30363D"/>
      <text x="91" y="16" font-size="12" fill="#8B949E" text-anchor="middle">▼</text>
      <rect x="114" y="0" width="30" height="24" rx="6" fill="#0D1117" stroke="#30363D"/>
      <use href="#ic-pause-lock" x="121" y="5" width="16" height="14" color="#8B949E"/>
      <rect x="380" y="0" width="30" height="24" rx="6" fill="#0D1117" stroke="#30363D"/>
      <use href="#ic-link-out" x="387" y="5" width="16" height="14" color="#58A6FF"/>
    </g>
  </g>

  <!-- ============ CARD 2 — listo, prioridad #2 ============ -->
  <g transform="translate(540,256)">
    <rect x="0" y="0" width="448" height="176" rx="12" fill="#161B22" stroke="#30363D" filter="url(#elev)"/>
    <rect x="18" y="18" width="34" height="22" rx="6" fill="#1C2128" stroke="#30363D"/>
    <text x="35" y="33" font-size="12" font-weight="700" fill="#B1BAC4" text-anchor="middle">#2</text>
    <text x="64" y="34" font-size="16" font-weight="700" fill="#58A6FF">#3727</text>
    <rect x="362" y="16" width="68" height="26" rx="13" fill="#3FB950" fill-opacity="0.14" stroke="#196C2E"/>
    <use href="#ic-cell-pass" x="372" y="22" width="14" height="14" color="#3FB950"/>
    <text x="392" y="33" font-size="12" font-weight="600" fill="#3FB950">listo</text>
    <text x="18" y="74" font-size="15" font-weight="600" fill="#E6EDF3">[Split de #3715] Ventana Equipo:</text>
    <text x="18" y="96" font-size="15" font-weight="600" fill="#E6EDF3">extraccion + rediseno V3</text>
    <use href="#ic-fase-verificacion" x="18" y="116" width="16" height="16" color="#B1BAC4"/>
    <text x="40" y="129" font-size="12" fill="#B1BAC4">fase: verificacion</text>
    <rect x="160" y="116" width="40" height="18" rx="5" fill="#1C2128" stroke="#30363D"/>
    <text x="180" y="129" font-size="11" font-weight="600" fill="#8B949E" text-anchor="middle">1×</text>
    <g transform="translate(18,148)">
      <rect x="0" y="0" width="30" height="24" rx="6" fill="#0D1117" stroke="#30363D"/>
      <use href="#ic-promote" x="7" y="5" width="16" height="14" color="#8B949E"/>
      <rect x="38" y="0" width="30" height="24" rx="6" fill="#0D1117" stroke="#30363D"/>
      <text x="53" y="16" font-size="12" fill="#8B949E" text-anchor="middle">▲</text>
      <rect x="76" y="0" width="30" height="24" rx="6" fill="#0D1117" stroke="#30363D"/>
      <text x="91" y="16" font-size="12" fill="#8B949E" text-anchor="middle">▼</text>
      <rect x="114" y="0" width="30" height="24" rx="6" fill="#0D1117" stroke="#30363D"/>
      <use href="#ic-pause-lock" x="121" y="5" width="16" height="14" color="#8B949E"/>
      <rect x="380" y="0" width="30" height="24" rx="6" fill="#0D1117" stroke="#30363D"/>
      <use href="#ic-link-out" x="387" y="5" width="16" height="14" color="#58A6FF"/>
    </g>
  </g>

  <!-- ============ CARD 3 — bloqueado (pausado), prioridad #3 ============ -->
  <g transform="translate(1008,256)">
    <rect x="0" y="0" width="448" height="176" rx="12" fill="#161B22" stroke="#30363D" filter="url(#elev)"/>
    <rect x="18" y="18" width="34" height="22" rx="6" fill="#1C2128" stroke="#30363D"/>
    <text x="35" y="33" font-size="12" font-weight="700" fill="#B1BAC4" text-anchor="middle">#3</text>
    <text x="64" y="34" font-size="16" font-weight="700" fill="#58A6FF">#3722</text>
    <rect x="320" y="16" width="110" height="26" rx="13" fill="#D29922" fill-opacity="0.14" stroke="#9E6A03"/>
    <use href="#ic-pause-lock" x="332" y="22" width="14" height="14" color="#D29922"/>
    <text x="352" y="33" font-size="12" font-weight="600" fill="#D29922">bloqueado</text>
    <!-- title con prefijo pausa -->
    <text x="18" y="74" font-size="15" font-weight="600" fill="#E6EDF3"><tspan fill="#D29922">⏸ </tspan>lib/escape-html.js +</text>
    <text x="18" y="96" font-size="15" font-weight="600" fill="#E6EDF3">inventario de utilidades</text>
    <use href="#ic-fase-criterios" x="18" y="116" width="16" height="16" color="#B1BAC4"/>
    <text x="40" y="129" font-size="12" fill="#B1BAC4">fase: criterios</text>
    <rect x="150" y="116" width="40" height="18" rx="5" fill="#1C2128" stroke="#30363D"/>
    <text x="170" y="129" font-size="11" font-weight="600" fill="#8B949E" text-anchor="middle">0×</text>
    <g transform="translate(18,148)">
      <rect x="0" y="0" width="30" height="24" rx="6" fill="#0D1117" stroke="#30363D"/>
      <use href="#ic-promote" x="7" y="5" width="16" height="14" color="#8B949E"/>
      <rect x="38" y="0" width="30" height="24" rx="6" fill="#0D1117" stroke="#30363D"/>
      <text x="53" y="16" font-size="12" fill="#8B949E" text-anchor="middle">▲</text>
      <rect x="76" y="0" width="30" height="24" rx="6" fill="#0D1117" stroke="#30363D"/>
      <text x="91" y="16" font-size="12" fill="#8B949E" text-anchor="middle">▼</text>
      <!-- pausado: borde warning -->
      <rect x="114" y="0" width="30" height="24" rx="6" fill="#D29922" fill-opacity="0.14" stroke="#D29922"/>
      <use href="#ic-play" x="121" y="5" width="16" height="14" color="#D29922"/>
      <rect x="380" y="0" width="30" height="24" rx="6" fill="#0D1117" stroke="#30363D"/>
      <use href="#ic-link-out" x="387" y="5" width="16" height="14" color="#58A6FF"/>
    </g>
  </g>

  <!-- ============ CARD 4 — rebote, prioridad #4 ============ -->
  <g transform="translate(72,452)">
    <rect x="0" y="0" width="448" height="176" rx="12" fill="#161B22" stroke="#30363D" filter="url(#elev)"/>
    <rect x="18" y="18" width="34" height="22" rx="6" fill="#1C2128" stroke="#30363D"/>
    <text x="35" y="33" font-size="12" font-weight="700" fill="#B1BAC4" text-anchor="middle">#4</text>
    <text x="64" y="34" font-size="16" font-weight="700" fill="#58A6FF">#3735</text>
    <rect x="312" y="16" width="118" height="26" rx="13" fill="#F85149" fill-opacity="0.14" stroke="#8B1A14"/>
    <use href="#ic-estado-rebote" x="324" y="22" width="14" height="14" color="#F85149"/>
    <text x="344" y="33" font-size="12" font-weight="600" fill="#F85149">rebotado</text>
    <text x="18" y="68" font-size="15" font-weight="600" fill="#E6EDF3">[Split de #3715] Ventana Costos:</text>
    <text x="18" y="90" font-size="15" font-weight="600" fill="#E6EDF3">absorber telemetria de /consumo</text>
    <!-- chip rebote con tooltip (motivo) -->
    <rect x="18" y="104" width="412" height="22" rx="6" fill="#F85149" fill-opacity="0.10" stroke="#8B1A14"/>
    <use href="#ic-estado-rebote" x="26" y="108" width="14" height="14" color="#F85149"/>
    <text x="46" y="119" font-size="11" fill="#F85149">↩ rechazo en verificacion: faltan tests del agregador…</text>
    <use href="#ic-fase-verificacion" x="18" y="130" width="14" height="14" color="#B1BAC4"/>
    <text x="38" y="141" font-size="11" fill="#B1BAC4">fase: verificacion</text>
    <rect x="150" y="128" width="42" height="17" rx="5" fill="#F59E0B" fill-opacity="0.14" stroke="#B8730A"/>
    <text x="171" y="140" font-size="11" font-weight="700" fill="#F59E0B" text-anchor="middle">3×</text>
    <g transform="translate(18,150)">
      <rect x="0" y="0" width="30" height="22" rx="6" fill="#0D1117" stroke="#30363D"/>
      <use href="#ic-promote" x="7" y="4" width="16" height="14" color="#8B949E"/>
      <rect x="38" y="0" width="30" height="22" rx="6" fill="#0D1117" stroke="#30363D"/>
      <text x="53" y="15" font-size="12" fill="#8B949E" text-anchor="middle">▲</text>
      <rect x="76" y="0" width="30" height="22" rx="6" fill="#0D1117" stroke="#30363D"/>
      <text x="91" y="15" font-size="12" fill="#8B949E" text-anchor="middle">▼</text>
      <rect x="114" y="0" width="30" height="22" rx="6" fill="#0D1117" stroke="#30363D"/>
      <use href="#ic-pause-lock" x="121" y="4" width="16" height="14" color="#8B949E"/>
      <rect x="380" y="0" width="30" height="22" rx="6" fill="#0D1117" stroke="#30363D"/>
      <use href="#ic-link-out" x="387" y="4" width="16" height="14" color="#58A6FF"/>
    </g>
  </g>

  <!-- ============ CARD 5 — needs-human, prioridad — ============ -->
  <g transform="translate(540,452)">
    <rect x="0" y="0" width="448" height="176" rx="12" fill="#161B22" stroke="#30363D" filter="url(#elev)"/>
    <rect x="18" y="18" width="34" height="22" rx="6" fill="#0D1117" stroke="#21262D"/>
    <text x="35" y="33" font-size="12" font-weight="700" fill="#6E7681" text-anchor="middle">—</text>
    <text x="64" y="34" font-size="16" font-weight="700" fill="#58A6FF">#3758</text>
    <rect x="296" y="16" width="134" height="26" rx="13" fill="#BC8CFF" fill-opacity="0.14" stroke="#8957E5"/>
    <use href="#ic-estado-needs-human" x="308" y="22" width="14" height="14" color="#BC8CFF"/>
    <text x="328" y="33" font-size="12" font-weight="600" fill="#BC8CFF">needs-human</text>
    <text x="18" y="74" font-size="15" font-weight="600" fill="#E6EDF3">Endurecer CSP del dashboard</text>
    <text x="18" y="96" font-size="15" font-weight="600" fill="#E6EDF3">del operador</text>
    <use href="#ic-estado-needs-human" x="18" y="116" width="16" height="16" color="#B1BAC4"/>
    <text x="40" y="129" font-size="12" fill="#B1BAC4">esperando intervencion humana</text>
    <g transform="translate(18,148)">
      <rect x="0" y="0" width="30" height="24" rx="6" fill="#0D1117" stroke="#30363D"/>
      <use href="#ic-promote" x="7" y="5" width="16" height="14" color="#8B949E"/>
      <rect x="38" y="0" width="30" height="24" rx="6" fill="#0D1117" stroke="#30363D"/>
      <text x="53" y="16" font-size="12" fill="#8B949E" text-anchor="middle">▲</text>
      <rect x="76" y="0" width="30" height="24" rx="6" fill="#0D1117" stroke="#30363D"/>
      <text x="91" y="16" font-size="12" fill="#8B949E" text-anchor="middle">▼</text>
      <rect x="380" y="0" width="30" height="24" rx="6" fill="#0D1117" stroke="#30363D"/>
      <use href="#ic-link-out" x="387" y="5" width="16" height="14" color="#58A6FF"/>
    </g>
  </g>

  <!-- ============ CARD 6 — pendiente, prioridad — ============ -->
  <g transform="translate(1008,452)">
    <rect x="0" y="0" width="448" height="176" rx="12" fill="#161B22" stroke="#30363D" filter="url(#elev)"/>
    <rect x="18" y="18" width="34" height="22" rx="6" fill="#0D1117" stroke="#21262D"/>
    <text x="35" y="33" font-size="12" font-weight="700" fill="#6E7681" text-anchor="middle">—</text>
    <text x="64" y="34" font-size="16" font-weight="700" fill="#58A6FF">#3723</text>
    <rect x="318" y="16" width="112" height="26" rx="13" fill="#1C2128" stroke="#30363D"/>
    <use href="#ic-fase-sizing" x="330" y="22" width="14" height="14" color="#8B949E"/>
    <text x="350" y="33" font-size="12" font-weight="600" fill="#8B949E">pendiente</text>
    <text x="18" y="74" font-size="15" font-weight="600" fill="#E6EDF3">Router cliente ?view= +</text>
    <text x="18" y="96" font-size="15" font-weight="600" fill="#E6EDF3">/dashboard/partial</text>
    <use href="#ic-fase-sizing" x="18" y="116" width="16" height="16" color="#B1BAC4"/>
    <text x="40" y="129" font-size="12" fill="#B1BAC4">fase: sizing</text>
    <rect x="120" y="116" width="40" height="18" rx="5" fill="#1C2128" stroke="#30363D"/>
    <text x="140" y="129" font-size="11" font-weight="600" fill="#8B949E" text-anchor="middle">0×</text>
    <g transform="translate(18,148)">
      <rect x="0" y="0" width="30" height="24" rx="6" fill="#0D1117" stroke="#30363D"/>
      <use href="#ic-promote" x="7" y="5" width="16" height="14" color="#8B949E"/>
      <rect x="38" y="0" width="30" height="24" rx="6" fill="#0D1117" stroke="#30363D"/>
      <text x="53" y="16" font-size="12" fill="#8B949E" text-anchor="middle">▲</text>
      <rect x="76" y="0" width="30" height="24" rx="6" fill="#0D1117" stroke="#30363D"/>
      <text x="91" y="16" font-size="12" fill="#8B949E" text-anchor="middle">▼</text>
      <rect x="114" y="0" width="30" height="24" rx="6" fill="#0D1117" stroke="#30363D"/>
      <use href="#ic-pause-lock" x="121" y="5" width="16" height="14" color="#8B949E"/>
      <rect x="380" y="0" width="30" height="24" rx="6" fill="#0D1117" stroke="#30363D"/>
      <use href="#ic-link-out" x="387" y="5" width="16" height="14" color="#58A6FF"/>
    </g>
  </g>

  <!-- ============================================================ DRILLDOWN DIALOG (overlay) -->
  <rect x="0" y="680" width="1680" height="640" fill="#010409" fill-opacity="0.62"/>
  <g transform="translate(440,712)">
    <rect x="0" y="0" width="800" height="560" rx="16" fill="#1C2128" stroke="#30363D" filter="url(#elevModal)"/>
    <!-- dialog header -->
    <text x="32" y="48" font-size="20" font-weight="700" fill="#58A6FF" id="issues-dialog-title">#3730</text>
    <text x="112" y="48" font-size="18" font-weight="600" fill="#E6EDF3">Ventana Issues: extraccion + rediseno V3</text>
    <rect x="640" y="26" width="100" height="26" rx="13" fill="#58A6FF" fill-opacity="0.14" stroke="#1F6FEB"/>
    <text x="690" y="43" font-size="12" font-weight="600" fill="#58A6FF" text-anchor="middle">trabajando</text>
    <!-- close button (Esc / backdrop tambien cierran) -->
    <rect x="746" y="22" width="32" height="32" rx="8" fill="#0D1117" stroke="#30363D"/>
    <text x="762" y="44" font-size="18" fill="#8B949E" text-anchor="middle">✕</text>
    <line x1="32" y1="72" x2="768" y2="72" stroke="#21262D"/>

    <!-- timeline de fases -->
    <text x="32" y="106" font-size="13" font-weight="700" fill="#B1BAC4">Recorrido por fases</text>
    <g transform="translate(32,124)">
      <!-- sizing (pass) -->
      <use href="#ic-fase-sizing" x="0" y="0" width="20" height="20" color="#3FB950"/>
      <use href="#ic-cell-pass" x="22" y="14" width="10" height="10" color="#3FB950"/>
      <text x="10" y="44" font-size="10" fill="#8B949E" text-anchor="middle">sizing</text>
      <line x1="34" y1="10" x2="86" y2="10" stroke="#196C2E" stroke-width="2"/>
      <!-- analisis (pass) -->
      <use href="#ic-fase-analisis" x="88" y="0" width="20" height="20" color="#3FB950"/>
      <use href="#ic-cell-pass" x="110" y="14" width="10" height="10" color="#3FB950"/>
      <text x="98" y="44" font-size="10" fill="#8B949E" text-anchor="middle">analisis</text>
      <line x1="122" y1="10" x2="174" y2="10" stroke="#196C2E" stroke-width="2"/>
      <!-- criterios (pass) -->
      <use href="#ic-fase-criterios" x="176" y="0" width="20" height="20" color="#3FB950"/>
      <use href="#ic-cell-pass" x="198" y="14" width="10" height="10" color="#3FB950"/>
      <text x="186" y="44" font-size="10" fill="#8B949E" text-anchor="middle">criterios</text>
      <line x1="210" y1="10" x2="262" y2="10" stroke="#1F6FEB" stroke-width="2"/>
      <!-- dev (running, current) -->
      <circle cx="274" cy="10" r="16" fill="#58A6FF" fill-opacity="0.14" stroke="#58A6FF"/>
      <use href="#ic-fase-dev" x="264" y="0" width="20" height="20" color="#58A6FF"/>
      <text x="274" y="44" font-size="10" font-weight="700" fill="#58A6FF" text-anchor="middle">dev</text>
      <line x1="290" y1="10" x2="342" y2="10" stroke="#30363D" stroke-width="2"/>
      <!-- build (pending) -->
      <use href="#ic-fase-build" x="344" y="0" width="20" height="20" color="#6E7681"/>
      <text x="354" y="44" font-size="10" fill="#6E7681" text-anchor="middle">build</text>
      <line x1="368" y1="10" x2="420" y2="10" stroke="#30363D" stroke-width="2"/>
      <!-- verificacion (pending) -->
      <use href="#ic-fase-verificacion" x="422" y="0" width="20" height="20" color="#6E7681"/>
      <text x="432" y="44" font-size="10" fill="#6E7681" text-anchor="middle">verif.</text>
      <line x1="446" y1="10" x2="498" y2="10" stroke="#30363D" stroke-width="2"/>
      <!-- aprobacion (pending) -->
      <use href="#ic-fase-aprobacion" x="500" y="0" width="20" height="20" color="#6E7681"/>
      <text x="510" y="44" font-size="10" fill="#6E7681" text-anchor="middle">aprob.</text>
      <line x1="524" y1="10" x2="576" y2="10" stroke="#30363D" stroke-width="2"/>
      <!-- entrega (pending) -->
      <use href="#ic-fase-entrega" x="578" y="0" width="20" height="20" color="#6E7681"/>
      <text x="588" y="44" font-size="10" fill="#6E7681" text-anchor="middle">entrega</text>
    </g>

    <!-- bloque info (sin rechazo en este issue) -->
    <line x1="32" y1="200" x2="768" y2="200" stroke="#21262D"/>
    <text x="32" y="232" font-size="13" font-weight="700" fill="#B1BAC4">Detalle</text>
    <g transform="translate(32,248)" font-size="13">
      <text x="0" y="16" fill="#8B949E">Skill activo</text>
      <text x="200" y="16" fill="#E6EDF3" font-weight="600">android-dev / pipeline-dev</text>
      <text x="0" y="44" fill="#8B949E">Rebotes</text>
      <text x="200" y="44" fill="#E6EDF3" font-weight="600">0 ×</text>
      <text x="0" y="72" fill="#8B949E">Dependencias</text>
      <text x="200" y="72" fill="#D29922" font-weight="600">#3722 (open) · #3723 (open)</text>
      <text x="0" y="100" fill="#8B949E">Ruta canonica</text>
      <text x="200" y="100" fill="#58A6FF" font-weight="600">/issues</text>
    </g>

    <!-- footer acciones -->
    <line x1="32" y1="488" x2="768" y2="488" stroke="#21262D"/>
    <g transform="translate(32,506)">
      <rect x="0" y="0" width="180" height="36" rx="9" fill="#0D1117" stroke="#30363D"/>
      <use href="#ic-link-out" x="16" y="9" width="18" height="18" color="#58A6FF"/>
      <text x="44" y="23" font-size="13" font-weight="600" fill="#E6EDF3">Abrir en GitHub</text>
      <rect x="196" y="0" width="150" height="36" rx="9" fill="#0D1117" stroke="#30363D"/>
      <use href="#ic-pause-lock" x="212" y="9" width="18" height="18" color="#D29922"/>
      <text x="240" y="23" font-size="13" font-weight="600" fill="#E6EDF3">Pausar issue</text>
      <rect x="582" y="0" width="154" height="36" rx="9" fill="#1F6FEB" fill-opacity="0.20" stroke="#58A6FF"/>
      <use href="#ic-promote" x="598" y="11" width="18" height="14" color="#58A6FF"/>
      <text x="626" y="23" font-size="13" font-weight="700" fill="#58A6FF">Maxima prioridad</text>
    </g>
  </g>

  <!-- ============================================================ FOOTER NOTE -->
  <text x="72" y="1302" font-size="11" fill="#6E7681">
    Mockup 28 · Issues V3 (#3730) · cards operacionales + filtros + drilldown &lt;dialog&gt; · tokens design-tokens.css · sprite #ic-* · WCAG AA
  </text>
</svg>
