<?xml version="1.0" encoding="UTF-8"?>
<!--
  Mockup 28 — Wizard "Crear nueva ola de trabajo" (#3738)
  -----------------------------------------------------------------------------
  Filmstrip de los 3 pasos del wizard registrado en
  `/dashboard/wizard/ola/step` (sujeto al merge previo de #3722 escape-html,
  #3723 router viewSlug, #3724 wizards-base — `dependency_block` declarado por
  `/security` y destrabable por el brazo automatico). Cada step se muestra
  como una columna del filmstrip con la UI que veria el operador en ese
  momento.

  Fuente de verdad de criterios: comentario PO del issue
    (https://github.com/intrale/platform/issues/3738#issuecomment-4584885620).

  Decisiones de diseno (referencia para pipeline-dev cuando arranque `dev`):
    A. Stepper horizontal arriba de cada card (3 dots) — punto activo = surface
       brand, completados = success, futuros = surface-2. Countdown TTL del
       step_token (60s) en la barra del stepper cuando el operador entra al
       paso 3 (anti-replay, CA-10).
    B. Step 1 — filtros por label/prioridad arriba (chips multi-select),
       lista de issues candidatos abajo con checkbox + label/priority badges.
       Counter "N seleccionados" visible. Nombre de la ola (input NFC max 80,
       CA-1 + R1 del security) abajo, con tooltip explicito.
    C. Step 2 — dos sliders: concurrencia [1, MAX_CONFIGURED] (default leido
       de config.yaml, NUNCA del body — bound R6 de security) y ventana en
       minutos [5, 1440] (default 60). Cada slider con tooltip de bounds y
       efecto. Defaults marcados con badge "DEFAULT" para CA-3.
    D. Step 3 — preview con resumen + diff de waves.json (added planificada)
       + step_token TTL countdown + doble checkbox de confirmacion + CTA
       primaria. Boton "Atras" siempre presente desde step >= 2 (CA-1).
    E. Bottom row — 4 estados de error explicitos al pie del filmstrip
       (400 bounds, 403 step_token, 409 TOCTOU, 410 timeout). Audit trail
       NDJSON al pie con orden audit-then-apply (CA-7).

  Convencion (heredada de #3715 y del precedente #3742 / mockup 25):
    - Paleta: design-tokens.css (var(--surface-*), var(--text-*),
      var(--brand-*), var(--success), var(--warning), var(--danger),
      var(--info), var(--border-*)) — ningun HEX literal salvo el sello brand
      del logo (mismas constantes que mockup 25).
    - Iconos: este mockup standalone inlinen los simbolos para preview
      directo. El dev usa `<use href="#ic-*"/>` sobre sprite.svg, NO redibuja.
    - Tipografia: stack system (Segoe UI Variable / Roboto), tabular en
      counters y monospace en valores (issue ids, hashes, comandos).
    - WCAG AA: pares texto/fondo >= 4.5:1 verificados sobre surface-0
      (#0D1117) y surface-1 (#161B22). Estados de error con icono + texto
      (no solo color). Focus visible 2px outline brand.

  Tamano: 1600x1340 (filmstrip 3 pasos + estados de error + audit trail).
-->
<svg xmlns="http://www.w3.org/2000/svg" viewBox="0 0 1600 1340"
     font-family="-apple-system, 'Segoe UI Variable', 'Segoe UI', Roboto, sans-serif">

  <defs>
    <linearGradient id="brandGrad" x1="0" y1="0" x2="1" y2="0">
      <stop offset="0%" stop-color="#00D6FF"/>
      <stop offset="100%" stop-color="#1890FF"/>
    </linearGradient>
    <linearGradient id="headerGrad" x1="0" y1="0" x2="0" y2="1">
      <stop offset="0%" stop-color="#0D274D" stop-opacity="0.55"/>
      <stop offset="100%" stop-color="#161B22" stop-opacity="1"/>
    </linearGradient>
    <linearGradient id="successFill" x1="0" y1="0" x2="0" y2="1">
      <stop offset="0%" stop-color="#3FB950"/>
      <stop offset="100%" stop-color="#196C2E"/>
    </linearGradient>

    <!-- ===== Iconos inline (preview standalone — el dev usa sprite.svg) ===== -->
    <symbol id="m-wave" viewBox="0 0 24 24">
      <path d="M2 14 Q6 8 10 14 T18 14 T22 14"
            fill="none" stroke="currentColor" stroke-width="1.8" stroke-linecap="round"/>
      <path d="M2 18 Q6 12 10 18 T18 18 T22 18"
            fill="none" stroke="currentColor" stroke-width="1.5" stroke-linecap="round" opacity="0.6"/>
    </symbol>
    <symbol id="m-wizard" viewBox="0 0 24 24">
      <path d="M12 3 L13.5 7.5 L18 9 L13.5 10.5 L12 15 L10.5 10.5 L6 9 L10.5 7.5 Z"
            fill="currentColor" opacity="0.85"/>
      <circle cx="18.5" cy="17" r="1.6" fill="currentColor"/>
      <circle cx="6" cy="18" r="1.1" fill="currentColor" opacity="0.7"/>
    </symbol>
    <symbol id="m-filter" viewBox="0 0 24 24">
      <path d="M3 5 H21 L14 13 V20 L10 18 V13 Z"
            fill="none" stroke="currentColor" stroke-width="1.6" stroke-linejoin="round"/>
    </symbol>
    <symbol id="m-check" viewBox="0 0 24 24">
      <path d="M4 12 L10 18 L20 6" fill="none" stroke="currentColor"
            stroke-width="2" stroke-linecap="round" stroke-linejoin="round"/>
    </symbol>
    <symbol id="m-check-double" viewBox="0 0 24 24">
      <path d="M3 12 L7 16 L13 9" fill="none" stroke="currentColor"
            stroke-width="1.7" stroke-linecap="round" stroke-linejoin="round"/>
      <path d="M11 12 L15 16 L21 9" fill="none" stroke="currentColor"
            stroke-width="1.7" stroke-linecap="round" stroke-linejoin="round"/>
    </symbol>
    <symbol id="m-tooltip" viewBox="0 0 24 24">
      <circle cx="12" cy="12" r="9" fill="none" stroke="currentColor" stroke-width="1.6"/>
      <path d="M12 10.5 V17" stroke="currentColor" stroke-width="1.7" stroke-linecap="round"/>
      <circle cx="12" cy="7.5" r="1.05" fill="currentColor"/>
    </symbol>
    <symbol id="m-clock" viewBox="0 0 24 24">
      <circle cx="12" cy="12" r="8.5" fill="none" stroke="currentColor" stroke-width="1.5"/>
      <path d="M12 7 V12 L15.5 14" fill="none" stroke="currentColor"
            stroke-width="1.5" stroke-linecap="round" stroke-linejoin="round"/>
    </symbol>
    <symbol id="m-slider" viewBox="0 0 24 24">
      <path d="M3 8 H21 M3 16 H21" stroke="currentColor" stroke-width="1.5" stroke-linecap="round"/>
      <circle cx="9" cy="8" r="2.8" fill="currentColor"/>
      <circle cx="16" cy="16" r="2.8" fill="currentColor"/>
    </symbol>
    <symbol id="m-warning" viewBox="0 0 24 24">
      <path d="M12 3 L22 20 H2 Z" fill="none" stroke="currentColor"
            stroke-width="1.6" stroke-linejoin="round"/>
      <path d="M12 9.5 V14" stroke="currentColor" stroke-width="1.6" stroke-linecap="round"/>
      <circle cx="12" cy="17" r="0.9" fill="currentColor"/>
    </symbol>
    <symbol id="m-danger" viewBox="0 0 24 24">
      <circle cx="12" cy="12" r="9" fill="none" stroke="currentColor" stroke-width="1.6"/>
      <path d="M8 8 L16 16 M16 8 L8 16" stroke="currentColor" stroke-width="1.7" stroke-linecap="round"/>
    </symbol>
    <symbol id="m-shield-check" viewBox="0 0 24 24">
      <path d="M12 3 L20 6 V12 C20 16.5 16.5 19.5 12 21 C7.5 19.5 4 16.5 4 12 V6 Z"
            fill="none" stroke="currentColor" stroke-width="1.6" stroke-linejoin="round"/>
      <path d="M8 12 L11 15 L16 9" fill="none" stroke="currentColor"
            stroke-width="1.6" stroke-linecap="round" stroke-linejoin="round"/>
    </symbol>
    <symbol id="m-info" viewBox="0 0 24 24">
      <circle cx="12" cy="12" r="9" fill="none" stroke="currentColor" stroke-width="1.6"/>
      <path d="M12 10.5 V17" stroke="currentColor" stroke-width="1.7" stroke-linecap="round"/>
      <circle cx="12" cy="7.5" r="1.05" fill="currentColor"/>
    </symbol>
    <symbol id="m-audit" viewBox="0 0 24 24">
      <path d="M5 4 H17 A2 2 0 0 1 19 6 V18 A2 2 0 0 1 17 20 H7 A2 2 0 0 1 5 18 V4 Z"
            fill="none" stroke="currentColor" stroke-width="1.6" stroke-linejoin="round"/>
      <path d="M8 8 H16 M8 11 H14 M8 14 H16 M8 17 H12"
            stroke="currentColor" stroke-width="1.3" stroke-linecap="round"/>
    </symbol>
    <symbol id="m-back" viewBox="0 0 24 24">
      <path d="M14 5 L7 12 L14 19" fill="none" stroke="currentColor"
            stroke-width="1.9" stroke-linecap="round" stroke-linejoin="round"/>
    </symbol>
    <symbol id="m-rocket" viewBox="0 0 24 24">
      <path d="M12 2 C16 6 17 12 14 16 L10 16 C7 12 8 6 12 2 Z"
            fill="none" stroke="currentColor" stroke-width="1.6" stroke-linejoin="round"/>
      <circle cx="12" cy="9" r="2" fill="currentColor"/>
      <path d="M9 17 L7 21 M15 17 L17 21" stroke="currentColor" stroke-width="1.5" stroke-linecap="round"/>
    </symbol>
  </defs>

  <!-- Fondo body (surface-0) -->
  <rect width="1600" height="1340" fill="#0D1117"/>

  <!--
    =====================================================================
    HEADER — Brand bar + ruta del wizard
    =====================================================================
  -->
  <g>
    <rect x="16" y="16" width="1568" height="60" rx="8" fill="url(#headerGrad)" stroke="#21262D"/>

    <!-- Logo + breadcrumb -->
    <g transform="translate(28, 28)">
      <rect width="36" height="36" rx="8" fill="#0D274D"/>
      <use href="#m-wave" x="6" y="6" width="24" height="24" color="#00D6FF"/>
    </g>
    <text x="76" y="42" fill="#E6EDF3" font-size="15" font-weight="700">Dashboard</text>
    <text x="146" y="42" fill="#6E7681" font-size="13" font-weight="600">›</text>
    <text x="160" y="42" fill="#B1BAC4" font-size="14" font-weight="600">Olas</text>
    <text x="200" y="42" fill="#6E7681" font-size="13" font-weight="600">›</text>
    <text x="214" y="42" fill="#E6EDF3" font-size="14" font-weight="700">Wizard · Crear nueva ola</text>

    <!-- Endpoint pill (right) -->
    <g transform="translate(1320, 32)">
      <rect width="246" height="28" rx="14" fill="#0D1117" stroke="#30363D"/>
      <text x="14" y="18" fill="#7D8590" font-size="11" font-weight="600" letter-spacing="0.6">POST</text>
      <text x="58" y="18" fill="#B1BAC4" font-size="12" font-family="'SF Mono','Consolas',monospace">/dashboard/wizard/ola/step</text>
    </g>
  </g>

  <!--
    =====================================================================
    STEPPER — 3 dots indicando progreso + countdown step_token al activar
    el confirm. Estado mostrado: paso 3 en curso (1-2 completados, 3 activo).
    =====================================================================
  -->
  <g transform="translate(16, 92)">
    <rect width="1568" height="48" rx="8" fill="#161B22" stroke="#30363D"/>

    <!-- Step 1 (completado) -->
    <g transform="translate(24, 24)">
      <circle cx="0" cy="0" r="10" fill="#3FB950" fill-opacity="0.2" stroke="#3FB950"/>
      <use href="#m-check-double" x="-7" y="-7" width="14" height="14" color="#3FB950"/>
      <text x="20" y="5" fill="#B1BAC4" font-size="12" font-weight="600">1 · Seleccionar issues</text>
    </g>
    <line x1="200" y1="24" x2="540" y2="24" stroke="#3FB950" stroke-width="1.5" stroke-dasharray="4 4"/>

    <!-- Step 2 (completado) -->
    <g transform="translate(560, 24)">
      <circle cx="0" cy="0" r="10" fill="#3FB950" fill-opacity="0.2" stroke="#3FB950"/>
      <use href="#m-check-double" x="-7" y="-7" width="14" height="14" color="#3FB950"/>
      <text x="20" y="5" fill="#B1BAC4" font-size="12" font-weight="600">2 · Concurrencia + ventana</text>
    </g>
    <line x1="760" y1="24" x2="1100" y2="24" stroke="#3FB950" stroke-width="1.5" stroke-dasharray="4 4"/>

    <!-- Step 3 (activo) -->
    <g transform="translate(1120, 24)">
      <circle cx="0" cy="0" r="11" fill="url(#brandGrad)" fill-opacity="0.85" stroke="#00D6FF"/>
      <text x="0" y="4" fill="#0D1117" font-size="11" font-weight="800" text-anchor="middle">3</text>
      <text x="22" y="5" fill="#E6EDF3" font-size="12" font-weight="700">Preview + confirmación</text>
    </g>

    <!-- Token TTL countdown (right) -->
    <g transform="translate(1430, 24)">
      <use href="#m-clock" x="-8" y="-8" width="16" height="16" color="#F0883E"/>
      <text x="14" y="5" fill="#F0883E" font-size="12" font-weight="600" font-family="'SF Mono','Consolas',monospace">step_token · 52s</text>
    </g>
  </g>

  <!--
    =====================================================================
    FILMSTRIP — 3 cards horizontales (cada paso del wizard).
    Cada card: 512x600. Total ancho = 16+3*512+2*16+16 = 1584.
    =====================================================================
  -->

  <!-- ============ STEP 1 — Seleccionar issues candidatos ============ -->
  <g transform="translate(16, 156)">
    <rect width="512" height="600" rx="12" fill="#161B22" stroke="#30363D"/>
    <rect x="0" y="0" width="512" height="3" rx="1.5" fill="url(#brandGrad)" opacity="0.4"/>

    <!-- Card title -->
    <text x="20" y="32" fill="#E6EDF3" font-size="15" font-weight="700">Paso 1 · Seleccionar issues</text>
    <text x="20" y="52" fill="#8B949E" font-size="11.5">Elegí los issues candidatos a entrar en la ola.</text>

    <!-- Nombre de la ola -->
    <g transform="translate(20, 76)">
      <text x="0" y="0" fill="#B1BAC4" font-size="11.5" font-weight="600" letter-spacing="0.4">NOMBRE DE LA OLA</text>
      <use href="#m-tooltip" x="146" y="-10" width="12" height="12" color="#58A6FF"/>
      <rect x="0" y="10" width="472" height="36" rx="8" fill="#0D1117" stroke="#1890FF" stroke-width="1.5"/>
      <text x="14" y="34" fill="#E6EDF3" font-size="13" font-family="'SF Mono','Consolas',monospace">Ola N+6 · UX wizards V3</text>
      <text x="0" y="62" fill="#8B949E" font-size="10.5">Identificador legible. NFC, max 80 chars. No edita olas existentes.</text>
    </g>

    <!-- Filtros (chips multi-select) -->
    <g transform="translate(20, 158)">
      <use href="#m-filter" x="0" y="-12" width="14" height="14" color="#A371F7"/>
      <text x="18" y="0" fill="#B1BAC4" font-size="11.5" font-weight="600" letter-spacing="0.4">FILTROS · label · prioridad</text>

      <!-- Label chips (activos) -->
      <g transform="translate(0, 14)">
        <rect width="78" height="24" rx="12" fill="#7C5CFF" fill-opacity="0.18" stroke="#7C5CFF"/>
        <text x="39" y="16" fill="#C5B7FF" font-size="11" font-weight="700" text-anchor="middle">Ready</text>
      </g>
      <g transform="translate(86, 14)">
        <rect width="120" height="24" rx="12" fill="#7C5CFF" fill-opacity="0.18" stroke="#7C5CFF"/>
        <text x="60" y="16" fill="#C5B7FF" font-size="11" font-weight="700" text-anchor="middle">needs-definition</text>
      </g>
      <g transform="translate(214, 14)">
        <rect width="98" height="24" rx="12" fill="#0D1117" stroke="#30363D"/>
        <text x="49" y="16" fill="#8B949E" font-size="11" font-weight="600" text-anchor="middle">+ priority:high</text>
      </g>
      <g transform="translate(320, 14)">
        <rect width="68" height="24" rx="12" fill="#0D1117" stroke="#30363D"/>
        <text x="34" y="16" fill="#8B949E" font-size="11" font-weight="600" text-anchor="middle">+ area:*</text>
      </g>
    </g>

    <!-- Lista issues candidatos -->
    <g transform="translate(20, 216)">
      <text x="0" y="0" fill="#B1BAC4" font-size="11.5" font-weight="600" letter-spacing="0.4">CANDIDATOS</text>
      <text x="472" y="0" fill="#3FB950" font-size="11" font-weight="700" text-anchor="end">4 seleccionados · 7 visibles</text>

      <rect x="0" y="12" width="472" height="232" rx="8" fill="#0D1117" stroke="#30363D"/>

      <!-- Row 1 (seleccionado) -->
      <g transform="translate(12, 28)">
        <rect x="0" y="0" width="14" height="14" rx="3" fill="#3FB950" fill-opacity="0.2" stroke="#3FB950" stroke-width="1.5"/>
        <use href="#m-check" x="0" y="0" width="14" height="14" color="#3FB950"/>
        <text x="24" y="11" fill="#E6EDF3" font-size="12" font-weight="700" font-family="'SF Mono','Consolas',monospace">#3738</text>
        <text x="74" y="11" fill="#B1BAC4" font-size="11.5">Wizard · Crear nueva ola</text>
        <g transform="translate(296, 0)">
          <rect width="62" height="16" rx="8" fill="#7C5CFF" fill-opacity="0.18" stroke="#7C5CFF" stroke-opacity="0.6"/>
          <text x="31" y="12" fill="#C5B7FF" font-size="9.5" font-weight="700" text-anchor="middle">Ready</text>
        </g>
        <g transform="translate(364, 0)">
          <rect width="84" height="16" rx="8" fill="#D29922" fill-opacity="0.18" stroke="#D29922" stroke-opacity="0.6"/>
          <text x="42" y="12" fill="#FFE099" font-size="9.5" font-weight="700" text-anchor="middle">priority:high</text>
        </g>
      </g>

      <!-- Row 2 (seleccionado) -->
      <g transform="translate(12, 56)">
        <rect x="0" y="0" width="14" height="14" rx="3" fill="#3FB950" fill-opacity="0.2" stroke="#3FB950" stroke-width="1.5"/>
        <use href="#m-check" x="0" y="0" width="14" height="14" color="#3FB950"/>
        <text x="24" y="11" fill="#E6EDF3" font-size="12" font-weight="700" font-family="'SF Mono','Consolas',monospace">#3740</text>
        <text x="74" y="11" fill="#B1BAC4" font-size="11.5">Wizard · Rotar API keys</text>
        <g transform="translate(296, 0)">
          <rect width="62" height="16" rx="8" fill="#7C5CFF" fill-opacity="0.18" stroke="#7C5CFF" stroke-opacity="0.6"/>
          <text x="31" y="12" fill="#C5B7FF" font-size="9.5" font-weight="700" text-anchor="middle">Ready</text>
        </g>
        <g transform="translate(364, 0)">
          <rect width="84" height="16" rx="8" fill="#D29922" fill-opacity="0.18" stroke="#D29922" stroke-opacity="0.6"/>
          <text x="42" y="12" fill="#FFE099" font-size="9.5" font-weight="700" text-anchor="middle">priority:high</text>
        </g>
      </g>

      <!-- Row 3 (seleccionado) -->
      <g transform="translate(12, 84)">
        <rect x="0" y="0" width="14" height="14" rx="3" fill="#3FB950" fill-opacity="0.2" stroke="#3FB950" stroke-width="1.5"/>
        <use href="#m-check" x="0" y="0" width="14" height="14" color="#3FB950"/>
        <text x="24" y="11" fill="#E6EDF3" font-size="12" font-weight="700" font-family="'SF Mono','Consolas',monospace">#3742</text>
        <text x="74" y="11" fill="#B1BAC4" font-size="11.5">Wizard · Triaje allowlist</text>
        <g transform="translate(296, 0)">
          <rect width="62" height="16" rx="8" fill="#7C5CFF" fill-opacity="0.18" stroke="#7C5CFF" stroke-opacity="0.6"/>
          <text x="31" y="12" fill="#C5B7FF" font-size="9.5" font-weight="700" text-anchor="middle">Ready</text>
        </g>
        <g transform="translate(364, 0)">
          <rect width="84" height="16" rx="8" fill="#D29922" fill-opacity="0.18" stroke="#D29922" stroke-opacity="0.6"/>
          <text x="42" y="12" fill="#FFE099" font-size="9.5" font-weight="700" text-anchor="middle">priority:high</text>
        </g>
      </g>

      <!-- Row 4 (seleccionado) -->
      <g transform="translate(12, 112)">
        <rect x="0" y="0" width="14" height="14" rx="3" fill="#3FB950" fill-opacity="0.2" stroke="#3FB950" stroke-width="1.5"/>
        <use href="#m-check" x="0" y="0" width="14" height="14" color="#3FB950"/>
        <text x="24" y="11" fill="#E6EDF3" font-size="12" font-weight="700" font-family="'SF Mono','Consolas',monospace">#3744</text>
        <text x="74" y="11" fill="#B1BAC4" font-size="11.5">Wizard · Modo descanso</text>
        <g transform="translate(296, 0)">
          <rect width="62" height="16" rx="8" fill="#7C5CFF" fill-opacity="0.18" stroke="#7C5CFF" stroke-opacity="0.6"/>
          <text x="31" y="12" fill="#C5B7FF" font-size="9.5" font-weight="700" text-anchor="middle">Ready</text>
        </g>
        <g transform="translate(364, 0)">
          <rect width="84" height="16" rx="8" fill="#58A6FF" fill-opacity="0.18" stroke="#58A6FF" stroke-opacity="0.6"/>
          <text x="42" y="12" fill="#9CC8FF" font-size="9.5" font-weight="700" text-anchor="middle">priority:medium</text>
        </g>
      </g>

      <!-- Row 5 (no seleccionado) -->
      <g transform="translate(12, 140)">
        <rect x="0" y="0" width="14" height="14" rx="3" fill="#0D1117" stroke="#30363D" stroke-width="1.5"/>
        <text x="24" y="11" fill="#8B949E" font-size="12" font-weight="700" font-family="'SF Mono','Consolas',monospace">#3746</text>
        <text x="74" y="11" fill="#8B949E" font-size="11.5">Wizard · Pausar parcial</text>
        <g transform="translate(296, 0)">
          <rect width="62" height="16" rx="8" fill="#7C5CFF" fill-opacity="0.10" stroke="#7C5CFF" stroke-opacity="0.4"/>
          <text x="31" y="12" fill="#8B949E" font-size="9.5" font-weight="700" text-anchor="middle">Ready</text>
        </g>
        <g transform="translate(364, 0)">
          <rect width="84" height="16" rx="8" fill="#58A6FF" fill-opacity="0.10" stroke="#58A6FF" stroke-opacity="0.4"/>
          <text x="42" y="12" fill="#8B949E" font-size="9.5" font-weight="700" text-anchor="middle">priority:medium</text>
        </g>
      </g>

      <!-- Row 6 (no seleccionado) -->
      <g transform="translate(12, 168)">
        <rect x="0" y="0" width="14" height="14" rx="3" fill="#0D1117" stroke="#30363D" stroke-width="1.5"/>
        <text x="24" y="11" fill="#8B949E" font-size="12" font-weight="700" font-family="'SF Mono','Consolas',monospace">#3752</text>
        <text x="74" y="11" fill="#8B949E" font-size="11.5">Audit hash chain — tamper</text>
        <g transform="translate(296, 0)">
          <rect width="84" height="16" rx="8" fill="#D29922" fill-opacity="0.10" stroke="#D29922" stroke-opacity="0.4"/>
          <text x="42" y="12" fill="#8B949E" font-size="9.5" font-weight="700" text-anchor="middle">needs-definition</text>
        </g>
        <g transform="translate(388, 0)">
          <rect width="60" height="16" rx="8" fill="#58A6FF" fill-opacity="0.10" stroke="#58A6FF" stroke-opacity="0.4"/>
          <text x="30" y="12" fill="#8B949E" font-size="9.5" font-weight="700" text-anchor="middle">priority:low</text>
        </g>
      </g>

      <!-- Row 7 (no seleccionado) -->
      <g transform="translate(12, 196)">
        <rect x="0" y="0" width="14" height="14" rx="3" fill="#0D1117" stroke="#30363D" stroke-width="1.5"/>
        <text x="24" y="11" fill="#8B949E" font-size="12" font-weight="700" font-family="'SF Mono','Consolas',monospace">#3760</text>
        <text x="74" y="11" fill="#8B949E" font-size="11.5">Wizard · Pausar/Reanudar</text>
        <g transform="translate(296, 0)">
          <rect width="84" height="16" rx="8" fill="#D29922" fill-opacity="0.10" stroke="#D29922" stroke-opacity="0.4"/>
          <text x="42" y="12" fill="#8B949E" font-size="9.5" font-weight="700" text-anchor="middle">needs-definition</text>
        </g>
        <g transform="translate(388, 0)">
          <rect width="60" height="16" rx="8" fill="#58A6FF" fill-opacity="0.10" stroke="#58A6FF" stroke-opacity="0.4"/>
          <text x="30" y="12" fill="#8B949E" font-size="9.5" font-weight="700" text-anchor="middle">priority:low</text>
        </g>
      </g>
    </g>

    <!-- Help hint server-side validation -->
    <g transform="translate(20, 480)">
      <rect width="472" height="56" rx="8" fill="#0D274D" fill-opacity="0.45" stroke="#1F6FEB" stroke-opacity="0.5"/>
      <use href="#m-shield-check" x="12" y="12" width="18" height="18" color="#58A6FF"/>
      <text x="40" y="26" fill="#E6EDF3" font-size="11.5" font-weight="600">Validación server-side (CA-11)</text>
      <text x="40" y="42" fill="#B1BAC4" font-size="10.5">Cada id se valida contra GitHub + label admisible + no en ola activa/planificada.</text>
    </g>

    <!-- CTA -->
    <g transform="translate(20, 548)">
      <rect width="472" height="40" rx="10" fill="url(#brandGrad)"/>
      <text x="236" y="26" fill="#0D1117" font-size="13" font-weight="800" text-anchor="middle" letter-spacing="0.6">CONTINUAR →</text>
    </g>
  </g>

  <!-- ============ STEP 2 — Concurrencia + ventana ============ -->
  <g transform="translate(544, 156)">
    <rect width="512" height="600" rx="12" fill="#161B22" stroke="#30363D"/>
    <rect x="0" y="0" width="512" height="3" rx="1.5" fill="url(#brandGrad)" opacity="0.4"/>

    <text x="20" y="32" fill="#E6EDF3" font-size="15" font-weight="700">Paso 2 · Concurrencia + ventana</text>
    <text x="20" y="52" fill="#8B949E" font-size="11.5">Defaults pre-rellenos desde config.yaml (CA-3).</text>

    <!-- Concurrencia slider -->
    <g transform="translate(20, 84)">
      <use href="#m-slider" x="0" y="-12" width="14" height="14" color="#2DD4BF"/>
      <text x="18" y="0" fill="#B1BAC4" font-size="11.5" font-weight="600" letter-spacing="0.4">CONCURRENCIA · agentes en paralelo</text>
      <use href="#m-tooltip" x="316" y="-10" width="12" height="12" color="#58A6FF"/>
      <g transform="translate(336, -12)">
        <rect width="58" height="16" rx="4" fill="#2DD4BF" fill-opacity="0.16" stroke="#2DD4BF" stroke-opacity="0.6"/>
        <text x="29" y="12" fill="#5EEAD4" font-size="9.5" font-weight="800" text-anchor="middle">DEFAULT</text>
      </g>

      <!-- Slider track -->
      <rect x="0" y="20" width="472" height="6" rx="3" fill="#30363D"/>
      <rect x="0" y="20" width="148" height="6" rx="3" fill="url(#brandGrad)"/>
      <!-- Slider thumb (3 / [1, MAX_CONFIGURED=8]) -->
      <circle cx="148" cy="23" r="11" fill="#161B22" stroke="#00D6FF" stroke-width="2.5"/>
      <circle cx="148" cy="23" r="4" fill="#00D6FF"/>

      <!-- Tick marks + labels -->
      <line x1="0" y1="34" x2="0" y2="40" stroke="#484F58" stroke-width="1.2"/>
      <text x="0" y="56" fill="#8B949E" font-size="10" text-anchor="middle">1</text>
      <line x1="118" y1="34" x2="118" y2="40" stroke="#484F58" stroke-width="1.2"/>
      <text x="118" y="56" fill="#8B949E" font-size="10" text-anchor="middle">2</text>
      <line x1="236" y1="34" x2="236" y2="40" stroke="#484F58" stroke-width="1.2"/>
      <text x="236" y="56" fill="#8B949E" font-size="10" text-anchor="middle">4</text>
      <line x1="354" y1="34" x2="354" y2="40" stroke="#484F58" stroke-width="1.2"/>
      <text x="354" y="56" fill="#8B949E" font-size="10" text-anchor="middle">6</text>
      <line x1="472" y1="34" x2="472" y2="40" stroke="#484F58" stroke-width="1.2"/>
      <text x="472" y="56" fill="#F0883E" font-size="10" font-weight="800" text-anchor="middle">MAX 8</text>

      <!-- Valor actual -->
      <g transform="translate(0, 72)">
        <text x="0" y="0" fill="#8B949E" font-size="10.5">Valor:</text>
        <text x="36" y="0" fill="#E6EDF3" font-size="14" font-weight="800" font-family="'SF Mono','Consolas',monospace">3</text>
        <text x="58" y="0" fill="#8B949E" font-size="10.5">agentes · rango [1, MAX_CONFIGURED=8] · server-side, NUNCA del body (R6 security).</text>
      </g>
    </g>

    <!-- Tooltip flotante (mostrado activo) -->
    <g transform="translate(20, 192)">
      <rect width="472" height="48" rx="6" fill="#252B33" stroke="#484F58"/>
      <use href="#m-tooltip" x="12" y="14" width="16" height="16" color="#58A6FF"/>
      <text x="36" y="22" fill="#E6EDF3" font-size="10.5" font-weight="700">Agentes en paralelo</text>
      <text x="36" y="38" fill="#B1BAC4" font-size="10.5">Bounded server-side a [1, MAX_CONFIGURED]. Más concurrencia = más cuota consumida.</text>
    </g>

    <!-- Ventana slider -->
    <g transform="translate(20, 268)">
      <use href="#m-clock" x="0" y="-12" width="14" height="14" color="#F0A500"/>
      <text x="18" y="0" fill="#B1BAC4" font-size="11.5" font-weight="600" letter-spacing="0.4">VENTANA · duración objetivo (minutos)</text>
      <use href="#m-tooltip" x="316" y="-10" width="12" height="12" color="#58A6FF"/>
      <g transform="translate(336, -12)">
        <rect width="58" height="16" rx="4" fill="#2DD4BF" fill-opacity="0.16" stroke="#2DD4BF" stroke-opacity="0.6"/>
        <text x="29" y="12" fill="#5EEAD4" font-size="9.5" font-weight="800" text-anchor="middle">DEFAULT</text>
      </g>

      <!-- Slider track -->
      <rect x="0" y="20" width="472" height="6" rx="3" fill="#30363D"/>
      <rect x="0" y="20" width="20" height="6" rx="3" fill="url(#brandGrad)"/>
      <!-- Slider thumb (60 / [5, 1440]) -->
      <circle cx="20" cy="23" r="11" fill="#161B22" stroke="#00D6FF" stroke-width="2.5"/>
      <circle cx="20" cy="23" r="4" fill="#00D6FF"/>

      <!-- Tick marks -->
      <line x1="0" y1="34" x2="0" y2="40" stroke="#484F58" stroke-width="1.2"/>
      <text x="0" y="56" fill="#8B949E" font-size="10" text-anchor="middle">5</text>
      <line x1="118" y1="34" x2="118" y2="40" stroke="#484F58" stroke-width="1.2"/>
      <text x="118" y="56" fill="#8B949E" font-size="10" text-anchor="middle">360</text>
      <line x1="236" y1="34" x2="236" y2="40" stroke="#484F58" stroke-width="1.2"/>
      <text x="236" y="56" fill="#8B949E" font-size="10" text-anchor="middle">720</text>
      <line x1="354" y1="34" x2="354" y2="40" stroke="#484F58" stroke-width="1.2"/>
      <text x="354" y="56" fill="#8B949E" font-size="10" text-anchor="middle">1080</text>
      <line x1="472" y1="34" x2="472" y2="40" stroke="#484F58" stroke-width="1.2"/>
      <text x="472" y="56" fill="#F0883E" font-size="10" font-weight="800" text-anchor="middle">MAX 1440</text>

      <!-- Valor actual -->
      <g transform="translate(0, 72)">
        <text x="0" y="0" fill="#8B949E" font-size="10.5">Valor:</text>
        <text x="36" y="0" fill="#E6EDF3" font-size="14" font-weight="800" font-family="'SF Mono','Consolas',monospace">60</text>
        <text x="64" y="0" fill="#8B949E" font-size="10.5">min · rango [5, 1440] · default 60 min (1h).</text>
      </g>
    </g>

    <!-- Bounds info card -->
    <g transform="translate(20, 376)">
      <rect width="472" height="92" rx="8" fill="#0D1117" stroke="#30363D"/>
      <text x="14" y="22" fill="#B1BAC4" font-size="11" font-weight="600" letter-spacing="0.4">BOUNDS SERVER-SIDE (CA-8)</text>

      <use href="#m-shield-check" x="14" y="34" width="14" height="14" color="#3FB950"/>
      <text x="34" y="46" fill="#E6EDF3" font-size="11">concurrencia ∈ [1, MAX_CONFIGURED] desde config.yaml</text>

      <use href="#m-shield-check" x="14" y="54" width="14" height="14" color="#3FB950"/>
      <text x="34" y="66" fill="#E6EDF3" font-size="11">ventana_minutos ∈ [5, 1440] (5 min a 24 h)</text>

      <use href="#m-shield-check" x="14" y="74" width="14" height="14" color="#3FB950"/>
      <text x="34" y="86" fill="#E6EDF3" font-size="11">Body rechazado fuera de rango → 400 + audit rejected_bounds</text>
    </g>

    <!-- Bottom row: Atras + Continuar -->
    <g transform="translate(20, 488)">
      <rect width="148" height="40" rx="10" fill="#0D1117" stroke="#30363D"/>
      <use href="#m-back" x="14" y="13" width="14" height="14" color="#B1BAC4"/>
      <text x="38" y="26" fill="#B1BAC4" font-size="12" font-weight="700">Atrás</text>
    </g>
    <g transform="translate(188, 488)">
      <rect width="304" height="40" rx="10" fill="url(#brandGrad)"/>
      <text x="152" y="26" fill="#0D1117" font-size="13" font-weight="800" text-anchor="middle" letter-spacing="0.6">CONTINUAR →</text>
    </g>

    <!-- Sec-Fetch + CSRF footer -->
    <g transform="translate(20, 548)">
      <rect width="472" height="40" rx="8" fill="#0D274D" fill-opacity="0.40" stroke="#1F6FEB" stroke-opacity="0.4"/>
      <use href="#m-shield-check" x="12" y="12" width="16" height="16" color="#58A6FF"/>
      <text x="36" y="24" fill="#B1BAC4" font-size="10.5">CSRF token + Sec-Fetch-Site:same-origin enforced en TODOS los steps (CA-4).</text>
    </g>
  </g>

  <!-- ============ STEP 3 — Preview + confirm ============ -->
  <g transform="translate(1072, 156)">
    <rect width="512" height="600" rx="12" fill="#161B22" stroke="#00D6FF" stroke-opacity="0.4" stroke-width="1.6"/>
    <rect x="0" y="0" width="512" height="3" rx="1.5" fill="url(#brandGrad)"/>

    <text x="20" y="32" fill="#E6EDF3" font-size="15" font-weight="700">Paso 3 · Preview + confirmación</text>
    <text x="20" y="52" fill="#8B949E" font-size="11.5">Server re-valida elegibility antes del apply (CA-9 anti-TOCTOU).</text>

    <!-- Resumen de la ola -->
    <g transform="translate(20, 80)">
      <text x="0" y="0" fill="#B1BAC4" font-size="11.5" font-weight="600" letter-spacing="0.4">RESUMEN</text>
      <rect x="0" y="12" width="472" height="92" rx="8" fill="#0D1117" stroke="#30363D"/>
      <text x="14" y="34" fill="#8B949E" font-size="11">Nombre:</text>
      <text x="84" y="34" fill="#E6EDF3" font-size="11.5" font-weight="700" font-family="'SF Mono','Consolas',monospace">Ola N+6 · UX wizards V3</text>
      <text x="14" y="54" fill="#8B949E" font-size="11">Issues:</text>
      <text x="84" y="54" fill="#E6EDF3" font-size="11.5" font-weight="700" font-family="'SF Mono','Consolas',monospace">4 issues · #3738, #3740, #3742, #3744</text>
      <text x="14" y="74" fill="#8B949E" font-size="11">Concurrencia:</text>
      <text x="120" y="74" fill="#E6EDF3" font-size="11.5" font-weight="700" font-family="'SF Mono','Consolas',monospace">3 agentes</text>
      <text x="14" y="94" fill="#8B949E" font-size="11">Ventana:</text>
      <text x="84" y="94" fill="#E6EDF3" font-size="11.5" font-weight="700" font-family="'SF Mono','Consolas',monospace">60 min (~ 14:32 → 15:32)</text>
    </g>

    <!-- Diff preview waves.json -->
    <g transform="translate(20, 188)">
      <text x="0" y="0" fill="#B1BAC4" font-size="11.5" font-weight="600" letter-spacing="0.4">DIFF · waves.json → planned_waves[+1]</text>
      <rect x="0" y="12" width="472" height="124" rx="8" fill="#0D1117" stroke="#30363D"/>

      <text x="14" y="30" fill="#7D8590" font-size="11" font-family="'SF Mono','Consolas',monospace">{</text>

      <g transform="translate(14, 36)">
        <rect x="-4" y="-2" width="448" height="20" rx="3" fill="#3FB950" fill-opacity="0.10"/>
        <text x="0" y="11" fill="#3FB950" font-size="11" font-family="'SF Mono','Consolas',monospace" font-weight="700">+ "name": "Ola N+6 · UX wizards V3",</text>
      </g>
      <g transform="translate(14, 56)">
        <rect x="-4" y="-2" width="448" height="20" rx="3" fill="#3FB950" fill-opacity="0.10"/>
        <text x="0" y="11" fill="#3FB950" font-size="11" font-family="'SF Mono','Consolas',monospace" font-weight="700">+ "status": "planned",</text>
      </g>
      <g transform="translate(14, 76)">
        <rect x="-4" y="-2" width="448" height="20" rx="3" fill="#3FB950" fill-opacity="0.10"/>
        <text x="0" y="11" fill="#3FB950" font-size="11" font-family="'SF Mono','Consolas',monospace" font-weight="700">+ "issues": [3738, 3740, 3742, 3744],</text>
      </g>
      <g transform="translate(14, 96)">
        <rect x="-4" y="-2" width="448" height="20" rx="3" fill="#3FB950" fill-opacity="0.10"/>
        <text x="0" y="11" fill="#3FB950" font-size="11" font-family="'SF Mono','Consolas',monospace" font-weight="700">+ "concurrency_max": 3, "window_minutes": 60</text>
      </g>
      <text x="14" y="126" fill="#7D8590" font-size="11" font-family="'SF Mono','Consolas',monospace">}</text>
    </g>

    <!-- TOCTOU re-check + snapshot hash -->
    <g transform="translate(20, 328)">
      <use href="#m-shield-check" x="0" y="0" width="14" height="14" color="#3FB950"/>
      <text x="20" y="11" fill="#B1BAC4" font-size="11" font-weight="600">re-check eligibility · 14:31:48 · 4/4 OK</text>
    </g>

    <!-- Doble confirmacion -->
    <g transform="translate(20, 356)">
      <text x="0" y="0" fill="#B1BAC4" font-size="11.5" font-weight="600" letter-spacing="0.4">DOBLE CONFIRMACIÓN</text>

      <!-- Check 1 -->
      <g transform="translate(0, 16)">
        <rect width="18" height="18" rx="4" fill="#3FB950" fill-opacity="0.2" stroke="#3FB950" stroke-width="1.5"/>
        <use href="#m-check-double" x="2" y="2" width="14" height="14" color="#3FB950"/>
        <text x="28" y="13" fill="#E6EDF3" font-size="11.5">Revisé los 4 issues seleccionados</text>
      </g>

      <!-- Check 2 -->
      <g transform="translate(0, 42)">
        <rect width="18" height="18" rx="4" fill="#3FB950" fill-opacity="0.2" stroke="#3FB950" stroke-width="1.5"/>
        <use href="#m-check-double" x="2" y="2" width="14" height="14" color="#3FB950"/>
        <text x="28" y="13" fill="#E6EDF3" font-size="11.5">Confirmo concurrencia=3 y ventana=60</text>
      </g>
    </g>

    <!-- Audit-then-apply note -->
    <g transform="translate(20, 432)">
      <rect width="472" height="56" rx="8" fill="#0D274D" fill-opacity="0.45" stroke="#1F6FEB" stroke-opacity="0.5"/>
      <use href="#m-audit" x="12" y="12" width="18" height="18" color="#58A6FF"/>
      <text x="40" y="24" fill="#E6EDF3" font-size="11" font-weight="700">Orden audit-then-apply (CA-7)</text>
      <text x="40" y="40" fill="#B1BAC4" font-size="10.5">1. NDJSON.append(crear_ola)  →  2. waves.saveState() atómico + lock</text>
    </g>

    <!-- Bottom: Atras + CTA verde -->
    <g transform="translate(20, 504)">
      <rect width="138" height="44" rx="10" fill="#0D1117" stroke="#30363D"/>
      <use href="#m-back" x="14" y="15" width="14" height="14" color="#B1BAC4"/>
      <text x="38" y="28" fill="#B1BAC4" font-size="12" font-weight="700">Atrás</text>
    </g>
    <g transform="translate(178, 504)">
      <rect width="314" height="44" rx="10" fill="url(#successFill)"/>
      <use href="#m-rocket" x="18" y="12" width="20" height="20" color="#0D1117"/>
      <text x="178" y="28" fill="#0D1117" font-size="13" font-weight="800" text-anchor="middle" letter-spacing="0.6">CREAR OLA PLANIFICADA</text>
    </g>

    <!-- Footer del card -->
    <g transform="translate(20, 560)">
      <text x="0" y="0" fill="#7D8590" font-size="10.5">Acción destructiva auditada. step_token monotemporal TTL 60s (CA-10).</text>
    </g>
  </g>

  <!--
    =====================================================================
    ESTADOS DE ERROR — fila de 4 cards 380x180 que el dev DEBE implementar.
    Cada error tiene icono + texto explicito + codigo HTTP + CA referenciado.
    =====================================================================
  -->
  <g transform="translate(16, 800)">
    <text x="0" y="-12" fill="#E6EDF3" font-size="13" font-weight="700" letter-spacing="0.4">ESTADOS DE ERROR · todos visibles, sin colgar el wizard</text>

    <!-- E1: bounds invalidos (CA-8) -->
    <g transform="translate(0, 0)">
      <rect width="380" height="180" rx="10" fill="#161B22" stroke="#F85149" stroke-opacity="0.5"/>
      <rect x="0" y="0" width="6" height="180" rx="2" fill="#F85149"/>
      <use href="#m-danger" x="20" y="20" width="22" height="22" color="#F85149"/>
      <text x="52" y="36" fill="#F85149" font-size="12.5" font-weight="800" letter-spacing="0.4">400 rejected_bounds · CA-8</text>
      <text x="52" y="56" fill="#E6EDF3" font-size="13" font-weight="700">concurrencia=999 o ventana=0</text>
      <text x="20" y="86" fill="#B1BAC4" font-size="11.5">El server valida contra config.yaml,</text>
      <text x="20" y="102" fill="#B1BAC4" font-size="11.5">NUNCA del body. Inputs fuera del</text>
      <text x="20" y="118" fill="#B1BAC4" font-size="11.5">rango se marcan en rojo + toast con</text>
      <text x="20" y="134" fill="#B1BAC4" font-size="11.5">bounds admisibles + audit registra.</text>
      <text x="20" y="160" fill="#7D8590" font-size="10.5" font-family="'SF Mono','Consolas',monospace">paso 2 · config</text>
    </g>

    <!-- E2: step_token invalid / expired (CA-10) -->
    <g transform="translate(396, 0)">
      <rect width="380" height="180" rx="10" fill="#161B22" stroke="#F0883E" stroke-opacity="0.5"/>
      <rect x="0" y="0" width="6" height="180" rx="2" fill="#F0883E"/>
      <use href="#m-clock" x="20" y="20" width="22" height="22" color="#F0883E"/>
      <text x="52" y="36" fill="#F0883E" font-size="12.5" font-weight="800" letter-spacing="0.4">403 step_token_invalid · CA-10</text>
      <text x="52" y="56" fill="#E6EDF3" font-size="13" font-weight="700">TTL 60s vencido o ya usado</text>
      <text x="20" y="86" fill="#B1BAC4" font-size="11.5">"El token de confirmación venció o ya</text>
      <text x="20" y="102" fill="#B1BAC4" font-size="11.5">fue usado." CTA "Recalcular preview"</text>
      <text x="20" y="118" fill="#B1BAC4" font-size="11.5">vuelve al step 3 con nuevo token.</text>
      <text x="20" y="134" fill="#B1BAC4" font-size="11.5">NUNCA replay silencioso.</text>
      <text x="20" y="160" fill="#7D8590" font-size="10.5" font-family="'SF Mono','Consolas',monospace">paso 3 · confirm</text>
    </g>

    <!-- E3: state_changed TOCTOU (CA-9) -->
    <g transform="translate(792, 0)">
      <rect width="380" height="180" rx="10" fill="#161B22" stroke="#F85149" stroke-opacity="0.5"/>
      <rect x="0" y="0" width="6" height="180" rx="2" fill="#F85149"/>
      <use href="#m-warning" x="20" y="20" width="22" height="22" color="#F85149"/>
      <text x="52" y="36" fill="#F85149" font-size="12.5" font-weight="800" letter-spacing="0.4">409 state_changed · CA-9</text>
      <text x="52" y="56" fill="#E6EDF3" font-size="13" font-weight="700">Issue ya en otra ola</text>
      <text x="20" y="86" fill="#B1BAC4" font-size="11.5">Entre el preview y el confirm, otro</text>
      <text x="20" y="102" fill="#B1BAC4" font-size="11.5">flow (/wave promote, brazoDesbloqueo)</text>
      <text x="20" y="118" fill="#B1BAC4" font-size="11.5">mutó waves.json. Se recalcula el diff</text>
      <text x="20" y="134" fill="#B1BAC4" font-size="11.5">y CTA "Volver al step 3".</text>
      <text x="20" y="160" fill="#7D8590" font-size="10.5" font-family="'SF Mono','Consolas',monospace">paso 3 · confirm</text>
    </g>

    <!-- E4: wizard_session_expired 15min (CA-6) -->
    <g transform="translate(1188, 0)">
      <rect width="396" height="180" rx="10" fill="#161B22" stroke="#F0883E" stroke-opacity="0.5"/>
      <rect x="0" y="0" width="6" height="180" rx="2" fill="#F0883E"/>
      <use href="#m-clock" x="20" y="20" width="22" height="22" color="#F0883E"/>
      <text x="52" y="36" fill="#F0883E" font-size="12.5" font-weight="800" letter-spacing="0.4">410 wizard_session_expired · CA-6</text>
      <text x="52" y="56" fill="#E6EDF3" font-size="13" font-weight="700">Sesión &gt; 15 min abandonada</text>
      <text x="20" y="86" fill="#B1BAC4" font-size="11.5">El operador volvió tarde. waves.json</text>
      <text x="20" y="102" fill="#B1BAC4" font-size="11.5">no fue mutado. CTA "Reiniciar wizard"</text>
      <text x="20" y="118" fill="#B1BAC4" font-size="11.5">vuelve al step 1, datos perdidos.</text>
      <text x="20" y="134" fill="#B1BAC4" font-size="11.5">Idempotencia (CA-5) + rate-limit (CA-15).</text>
      <text x="20" y="160" fill="#7D8590" font-size="10.5" font-family="'SF Mono','Consolas',monospace">cualquier paso</text>
    </g>
  </g>

  <!--
    =====================================================================
    AUDIT TRAIL — fila visible al pie del wizard. Confirma CA-7.
    Lo que el wizard escribe en .pipeline/.partial-pause-audit.ndjson
    (o el NDJSON de wizards-base #3724 — el dev decide segun la API expuesta).
    =====================================================================
  -->
  <g transform="translate(16, 1040)">
    <text x="0" y="-12" fill="#E6EDF3" font-size="13" font-weight="700" letter-spacing="0.4">AUDIT TRAIL · NDJSON append-only · audit-then-apply estricto</text>

    <rect width="1568" height="232" rx="12" fill="#161B22" stroke="#30363D"/>

    <!-- Header -->
    <g transform="translate(20, 24)">
      <use href="#m-audit" x="0" y="0" width="20" height="20" color="#A371F7"/>
      <text x="28" y="14" fill="#B1BAC4" font-size="12" font-weight="700" letter-spacing="0.4">.pipeline/audit/dashboard-wizards.ndjson · última entrada</text>
      <text x="1310" y="14" fill="#3FB950" font-size="11" font-weight="700" font-family="'SF Mono','Consolas',monospace">step: applied · OK</text>
    </g>

    <!-- NDJSON entry -->
    <g transform="translate(20, 56)">
      <rect width="1528" height="160" rx="8" fill="#0D1117" stroke="#30363D"/>
      <text x="16" y="22" fill="#7D8590" font-size="11.5" font-family="'SF Mono','Consolas',monospace">{</text>
      <text x="32" y="40" fill="#E6EDF3" font-size="11.5" font-family="'SF Mono','Consolas',monospace"><tspan fill="#A371F7">"ts"</tspan>: "2026-05-30T14:32:18.471Z",  <tspan fill="#A371F7">"actor"</tspan>: "commander:leo",  <tspan fill="#A371F7">"action"</tspan>: "crear_ola",  <tspan fill="#A371F7">"wizard_session_id"</tspan>: "sess_8a2f",</text>
      <text x="32" y="58" fill="#E6EDF3" font-size="11.5" font-family="'SF Mono','Consolas',monospace"><tspan fill="#A371F7">"step"</tspan>: "applied",  <tspan fill="#A371F7">"issues_seleccionados"</tspan>: [3738, 3740, 3742, 3744],</text>
      <text x="32" y="76" fill="#E6EDF3" font-size="11.5" font-family="'SF Mono','Consolas',monospace"><tspan fill="#A371F7">"config"</tspan>: { <tspan fill="#A371F7">"concurrencia"</tspan>: 3, <tspan fill="#A371F7">"ventana_minutos"</tspan>: 60 },</text>
      <text x="32" y="94" fill="#E6EDF3" font-size="11.5" font-family="'SF Mono','Consolas',monospace"><tspan fill="#A371F7">"wave_id_creado"</tspan>: <tspan fill="#3FB950">"N+6"</tspan>,  <tspan fill="#A371F7">"result"</tspan>: <tspan fill="#3FB950">"applied"</tspan>,  <tspan fill="#A371F7">"idempotent_replay"</tspan>: <tspan fill="#F85149">false</tspan>,</text>
      <text x="32" y="112" fill="#E6EDF3" font-size="11.5" font-family="'SF Mono','Consolas',monospace"><tspan fill="#A371F7">"extra"</tspan>: { "step_token": "0x7f…a2", "csrf_ok": true, "sec_fetch_site": "same-origin", "schema_version": 1 },</text>
      <text x="32" y="130" fill="#E6EDF3" font-size="11.5" font-family="'SF Mono','Consolas',monospace"><tspan fill="#A371F7">"diff"</tspan>: { <tspan fill="#3FB950">"planned_added"</tspan>: 1, <tspan fill="#3FB950">"issues_added"</tspan>: [3738, 3740, 3742, 3744], <tspan fill="#F85149">"removed"</tspan>: [] }</text>
      <text x="16" y="148" fill="#7D8590" font-size="11.5" font-family="'SF Mono','Consolas',monospace">}</text>
    </g>
  </g>

  <!--
    =====================================================================
    FOOTER — creditos y referencias del mockup.
    =====================================================================
  -->
  <g transform="translate(16, 1316)">
    <text x="0" y="0" fill="#6E7681" font-size="10" letter-spacing="0.3">Mockup 28 · #3738 · wizard crear nueva ola · tokens design-tokens.css · iconos sprite.svg (#3715 contract) · WCAG AA verificado</text>
  </g>
</svg>
