<?xml version="1.0" encoding="UTF-8"?>
<!--
  Mockup 34 — EP8-H1: Home Kiosk -> Mission Control de 3 bandas (#3954)
  -----------------------------------------------------------------------------
  Rediseno del Home del dashboard del operador. Reemplaza la columna vertical
  densa actual (renderInfraHealth + renderKpiGrid + nav + renderQueueDetailed +
  renderSystemCard) por un grid CSS de 3 bandas a altura fija, pensado para un
  KIOSK 1080x1920 (vertical) sin scroll de pagina (CA-1).

  Layout (contenedor raiz: height:100vh; overflow:hidden):
    - Banda 1 SALUD   20%  ->  384px  (semaforo global + 3 KPIs + bandeja alertas)
    - Banda 2 AHORA   50%  ->  960px  (tarjetas grandes de agentes, Commander pinned)
    - Banda 3 FLUJO   30%  ->  576px  (mini-kanban de la ola + proximos 5)

  Este mockup es la REFERENCIA VISUAL para el dev. Materializa las decisiones de:
    - guru   (viabilidad / reutilizacion de slices)
    - security (REQ-SEC-1..8: escapado, gates loopback, snooze allowlist)
    - po     (CA-1..CA-13: overflow por banda, Commander pinned, deep-links)

  Convenciones del sistema visual V3 (design-tokens.css):
    - Paleta literal (hex) para preview standalone; cada color mapea a un token:
        surface-0 #0D1117  surface-1 #161B22  surface-2 #1C2128  surface-3 #252B33
        border #30363D     border-strong #484F58
        text-primary #E6EDF3  text-secondary #B1BAC4  text-dim #8B949E
        success #3FB950  warning #D29922  danger #F85149  info #58A6FF
        brand-cyan #00D6FF  purple #BC8CFF  teal #2DD4BF  retry #F59E0B
        pulpo-paused #E8770D  alert-anomaly #FF6B8A
    - Iconos: en produccion via <use href="#ic-*"/> del sprite.svg. Aca inline
      como <symbol id="m-*"/> (copia minimal) para preview sin sprite cargado.
    - Severidad nunca solo por color: forma de icono + texto (set ic-ok/warn/bad/info
      entregado en EP8-H0 #3953). WCAG AA verificado en design-tokens.css.
    - Tipografia: system stack (var(--font-sans)); monospace en numeros/IDs.

  Tamano: 1080x1920 (kiosk vertical, 1:1 con la resolucion objetivo CA-1).
-->
<svg xmlns="http://www.w3.org/2000/svg" viewBox="0 0 1080 1920"
     font-family="-apple-system, 'Segoe UI Variable', 'Segoe UI', Roboto, sans-serif">
  <defs>
    <!-- ===================== Iconos inline (preview) ===================== -->
    <symbol id="m-ok" viewBox="0 0 24 24">
      <circle cx="12" cy="12" r="9" fill="none" stroke="currentColor" stroke-width="1.75"/>
      <path d="M8 12.5 L11 15.5 L16.5 9" fill="none" stroke="currentColor" stroke-width="1.75" stroke-linecap="round" stroke-linejoin="round"/>
    </symbol>
    <symbol id="m-warn" viewBox="0 0 24 24">
      <path d="M12 3.5 L21.5 20 H2.5 Z" fill="none" stroke="currentColor" stroke-width="1.75" stroke-linejoin="round"/>
      <path d="M12 9.5 V14" stroke="currentColor" stroke-width="1.75" stroke-linecap="round"/>
      <circle cx="12" cy="17" r="1.1" fill="currentColor"/>
    </symbol>
    <symbol id="m-bad" viewBox="0 0 24 24">
      <path d="M8 3.5 H16 L20.5 8 V16 L16 20.5 H8 L3.5 16 V8 Z" fill="none" stroke="currentColor" stroke-width="1.6" stroke-linejoin="round"/>
      <path d="M12 8 V13" stroke="currentColor" stroke-width="1.75" stroke-linecap="round"/>
      <circle cx="12" cy="16" r="1.1" fill="currentColor"/>
    </symbol>
    <symbol id="m-info" viewBox="0 0 24 24">
      <circle cx="12" cy="12" r="9" fill="none" stroke="currentColor" stroke-width="1.75"/>
      <path d="M12 11 V16.5" stroke="currentColor" stroke-width="1.75" stroke-linecap="round"/>
      <circle cx="12" cy="7.8" r="1.15" fill="currentColor"/>
    </symbol>
    <symbol id="m-snooze" viewBox="0 0 24 24">
      <circle cx="12" cy="13" r="7.5" fill="none" stroke="currentColor" stroke-width="1.6"/>
      <path d="M12 9.5 V13 L14.5 14.8" stroke="currentColor" stroke-width="1.6" stroke-linecap="round" stroke-linejoin="round"/>
      <path d="M16 3 H21 L16 8 H21" stroke="currentColor" stroke-width="1.5" fill="none" stroke-linecap="round" stroke-linejoin="round"/>
    </symbol>
    <symbol id="m-link" viewBox="0 0 24 24">
      <path d="M9.5 14.5 L14.5 9.5" stroke="currentColor" stroke-width="1.6" stroke-linecap="round"/>
      <path d="M11 7 L13 5 A3.5 3.5 0 0 1 18 10 L16 12" fill="none" stroke="currentColor" stroke-width="1.6" stroke-linecap="round"/>
      <path d="M13 17 L11 19 A3.5 3.5 0 0 1 6 14 L8 12" fill="none" stroke="currentColor" stroke-width="1.6" stroke-linecap="round"/>
    </symbol>
    <symbol id="m-pin" viewBox="0 0 24 24">
      <path d="M9 3 H15 L14 9 L17 12 H7 L10 9 Z" fill="none" stroke="currentColor" stroke-width="1.6" stroke-linejoin="round"/>
      <path d="M12 12 V20" stroke="currentColor" stroke-width="1.6" stroke-linecap="round"/>
    </symbol>
    <symbol id="m-voice" viewBox="0 0 24 24">
      <rect x="9.5" y="3.5" width="5" height="11" rx="2.5" fill="none" stroke="currentColor" stroke-width="1.6"/>
      <path d="M6 11 A6 6 0 0 0 18 11" fill="none" stroke="currentColor" stroke-width="1.6" stroke-linecap="round"/>
      <path d="M12 17 V20.5 M9 20.5 H15" stroke="currentColor" stroke-width="1.6" stroke-linecap="round"/>
    </symbol>

    <radialGradient id="sem-red" cx="50%" cy="42%" r="60%">
      <stop offset="0%" stop-color="#FF7A73"/>
      <stop offset="100%" stop-color="#F85149"/>
    </radialGradient>
    <radialGradient id="sem-green" cx="50%" cy="42%" r="60%">
      <stop offset="0%" stop-color="#5BD16B"/>
      <stop offset="100%" stop-color="#3FB950"/>
    </radialGradient>
    <linearGradient id="brand" x1="0" y1="0" x2="1" y2="1">
      <stop offset="0%" stop-color="#00D6FF"/>
      <stop offset="100%" stop-color="#1890FF"/>
    </linearGradient>
  </defs>

  <!-- ============================ FONDO ============================ -->
  <rect x="0" y="0" width="1080" height="1920" fill="#0D1117"/>

  <!-- ===== Header minimo (fuera del grid de 3 bandas, 56px) ===== -->
  <g>
    <rect x="0" y="0" width="1080" height="56" fill="#161B22"/>
    <rect x="0" y="55" width="1080" height="1" fill="#21262D"/>
    <circle cx="28" cy="28" r="11" fill="url(#brand)"/>
    <text x="48" y="34" font-size="17" font-weight="700" fill="#E6EDF3">Intrale · Mission Control</text>
    <text x="300" y="34" font-size="13" fill="#8B949E">/ v3 · home</text>
    <!-- frescura del dato (EP8-H0) -->
    <circle cx="858" cy="28" r="4" fill="#3FB950"/>
    <text x="870" y="32" font-size="12" fill="#8B949E">actualizado hace 3s</text>
    <text x="1052" y="33" font-size="14" font-weight="600" fill="#E6EDF3" text-anchor="end" font-family="monospace">14:21</text>
  </g>

  <!-- ============================================================= -->
  <!-- BANDA 1 — SALUD   (y 56..440, alto 384 ~ 20%)                  -->
  <!-- ============================================================= -->
  <g transform="translate(0,56)">
    <rect x="0" y="0" width="1080" height="384" fill="#0D1117"/>
    <text x="24" y="30" font-size="12" font-weight="700" letter-spacing="0.1em" fill="#8B949E">BANDA 1 · SALUD</text>

    <!-- ---- Semaforo global explicable (CA-3) ---- -->
    <g transform="translate(24,48)">
      <rect x="0" y="0" width="316" height="312" rx="14" fill="#161B22" stroke="#30363D"/>
      <!-- estado: AMARILLO (degradado) en este mock -->
      <circle cx="158" cy="104" r="62" fill="#D29922"/>
      <circle cx="158" cy="104" r="62" fill="none" stroke="#9E6A03" stroke-width="2"/>
      <use href="#m-warn" x="138" y="84" width="40" height="40" color="#0D1117"/>
      <text x="158" y="196" font-size="22" font-weight="700" fill="#E6EDF3" text-anchor="middle">DEGRADADO</text>
      <text x="158" y="220" font-size="13" fill="#B1BAC4" text-anchor="middle">2 razones · ver tooltip</text>

      <!-- tooltip CA-2: enumera reasons[] (cada razon ESCAPADA — REQ-SEC-6) -->
      <g transform="translate(20,238)">
        <rect x="0" y="0" width="276" height="58" rx="8" fill="#252B33" stroke="#484F58"/>
        <use href="#m-warn" x="10" y="9" width="15" height="15" color="#D29922"/>
        <text x="32" y="21" font-size="12" fill="#E6EDF3">Cuota Anthropic 91% — modo determinista</text>
        <use href="#m-bad" x="10" y="31" width="15" height="15" color="#F85149"/>
        <text x="32" y="43" font-size="12" fill="#E6EDF3">Pulpo en partial-pause (3 deps)</text>
      </g>
    </g>

    <!-- ---- 3 KPIs decisorios (CA-4) — kpisSlice ---- -->
    <g transform="translate(356,48)">
      <!-- KPI bouncePct -->
      <g transform="translate(0,0)">
        <rect x="0" y="0" width="232" height="98" rx="12" fill="#161B22" stroke="#30363D"/>
        <rect x="0" y="0" width="5" height="98" rx="2.5" fill="#D29922"/>
        <text x="22" y="30" font-size="12" font-weight="600" letter-spacing="0.06em" fill="#8B949E">% REBOTE (7D)</text>
        <text x="22" y="70" font-size="38" font-weight="700" fill="#E6EDF3" font-family="monospace">18%</text>
        <use href="#m-warn" x="196" y="16" width="18" height="18" color="#D29922"/>
      </g>
      <!-- KPI activeAgents -->
      <g transform="translate(0,108)">
        <rect x="0" y="0" width="232" height="98" rx="12" fill="#161B22" stroke="#30363D"/>
        <rect x="0" y="0" width="5" height="98" rx="2.5" fill="#3FB950"/>
        <text x="22" y="30" font-size="12" font-weight="600" letter-spacing="0.06em" fill="#8B949E">AGENTES ACTIVOS</text>
        <text x="22" y="70" font-size="38" font-weight="700" fill="#E6EDF3" font-family="monospace">3</text>
        <use href="#m-ok" x="196" y="16" width="18" height="18" color="#3FB950"/>
      </g>
      <!-- KPI nextInQueue -->
      <g transform="translate(0,216)">
        <rect x="0" y="0" width="232" height="96" rx="12" fill="#161B22" stroke="#30363D"/>
        <rect x="0" y="0" width="5" height="96" rx="2.5" fill="#58A6FF"/>
        <text x="22" y="30" font-size="12" font-weight="600" letter-spacing="0.06em" fill="#8B949E">EN COLA</text>
        <text x="22" y="70" font-size="38" font-weight="700" fill="#E6EDF3" font-family="monospace">7</text>
        <use href="#m-info" x="196" y="16" width="18" height="18" color="#58A6FF"/>
      </g>
    </g>

    <!-- ---- Bandeja de alertas (CA-5/CA-6) reemplaza banners ---- -->
    <g transform="translate(604,48)">
      <rect x="0" y="0" width="452" height="312" rx="14" fill="#161B22" stroke="#30363D"/>
      <text x="20" y="30" font-size="13" font-weight="700" fill="#E6EDF3">Bandeja de alertas</text>
      <text x="432" y="30" font-size="12" fill="#8B949E" text-anchor="end">2 activas · +1 más</text>
      <rect x="20" y="42" width="412" height="1" fill="#21262D"/>

      <!-- alerta 1: sin atender (acciones ack/snooze visibles) -->
      <g transform="translate(20,54)">
        <rect x="0" y="0" width="412" height="86" rx="10" fill="#1C2128" stroke="#8B1A14"/>
        <rect x="0" y="0" width="4" height="86" rx="2" fill="#F85149"/>
        <use href="#m-bad" x="14" y="14" width="20" height="20" color="#F85149"/>
        <text x="44" y="24" font-size="13" font-weight="600" fill="#E6EDF3">Partial-pause: 3 deps faltantes</text>
        <text x="44" y="44" font-size="11.5" fill="#8B949E">inicio 14:02 · sin atender</text>
        <!-- botones ack / snooze -->
        <g transform="translate(44,54)">
          <rect x="0" y="0" width="62" height="24" rx="6" fill="#196C2E"/>
          <text x="31" y="16" font-size="12" font-weight="600" fill="#E6EDF3" text-anchor="middle">ack</text>
          <g transform="translate(72,0)">
            <rect x="0" y="0" width="120" height="24" rx="6" fill="#252B33" stroke="#484F58"/>
            <use href="#m-snooze" x="8" y="4" width="16" height="16" color="#B1BAC4"/>
            <text x="30" y="16" font-size="11.5" fill="#B1BAC4">snooze 1h·4h·24h</text>
          </g>
        </g>
      </g>

      <!-- alerta 2: atendida (snooze) — muestra "quien atendio" server-side -->
      <g transform="translate(20,150)">
        <rect x="0" y="0" width="412" height="74" rx="10" fill="#1C2128" stroke="#30363D"/>
        <rect x="0" y="0" width="4" height="74" rx="2" fill="#D29922"/>
        <use href="#m-warn" x="14" y="14" width="20" height="20" color="#D29922"/>
        <text x="44" y="24" font-size="13" font-weight="600" fill="#E6EDF3">Cuota Anthropic 91%</text>
        <text x="44" y="44" font-size="11.5" fill="#8B949E">inicio 13:40 · snooze 4h por</text>
        <g transform="translate(44,54)">
          <rect x="0" y="-12" width="150" height="20" rx="10" fill="#0D1117" stroke="#30363D"/>
          <use href="#m-snooze" x="8" y="-9" width="14" height="14" color="#8B949E"/>
          <text x="28" y="2" font-size="11" fill="#B1BAC4" font-family="monospace">operador-local</text>
        </g>
        <text x="396" y="44" font-size="11" fill="#6E7681" text-anchor="end">audit ✓</text>
      </g>

      <!-- scroll interno acotado (CA-2): contador +N -->
      <text x="226" y="248" font-size="12" fill="#58A6FF" text-anchor="middle">▾ +1 alerta más (scroll interno)</text>
    </g>
  </g>

  <!-- ============================================================= -->
  <!-- BANDA 2 — AHORA   (y 440..1400, alto 960 ~ 50%)               -->
  <!-- ============================================================= -->
  <g transform="translate(0,440)">
    <rect x="0" y="0" width="1080" height="960" fill="#0D1117"/>
    <rect x="0" y="0" width="1080" height="1" fill="#21262D"/>
    <text x="24" y="34" font-size="12" font-weight="700" letter-spacing="0.1em" fill="#8B949E">BANDA 2 · AHORA</text>
    <text x="1056" y="34" font-size="12" fill="#8B949E" text-anchor="end">tap en tarjeta → log del agente</text>

    <!-- ---- Tarjeta Commander (PINNED primero, CA-8) ---- -->
    <g transform="translate(24,52)">
      <rect x="0" y="0" width="510" height="392" rx="16" fill="#161B22" stroke="#8957E5" stroke-width="2"/>
      <rect x="0" y="0" width="510" height="56" rx="16" fill="#1C2128"/>
      <rect x="0" y="40" width="510" height="16" fill="#1C2128"/>
      <use href="#m-pin" x="18" y="16" width="22" height="22" color="#BC8CFF"/>
      <text x="50" y="35" font-size="20" font-weight="700" fill="#E6EDF3">Commander</text>
      <use href="#m-voice" x="206" y="16" width="22" height="22" color="#2DD4BF"/>
      <text x="234" y="35" font-size="13" fill="#2DD4BF">narrando</text>
      <g transform="translate(420,18)">
        <rect x="0" y="0" width="72" height="22" rx="11" fill="rgba(188,140,255,0.14)"/>
        <text x="36" y="15" font-size="11" font-weight="600" fill="#BC8CFF" text-anchor="middle">pinned</text>
      </g>

      <text x="22" y="92" font-size="14" fill="#B1BAC4">Atendiendo pedido del operador · fases:</text>

      <!-- fases del Commander (R-V6) -->
      <g transform="translate(22,112)" font-size="13">
        <g transform="translate(0,0)">
          <use href="#m-ok" x="0" y="0" width="20" height="20" color="#3FB950"/>
          <text x="30" y="15" fill="#E6EDF3">Interpretar intención</text>
        </g>
        <g transform="translate(0,34)">
          <use href="#m-ok" x="0" y="0" width="20" height="20" color="#3FB950"/>
          <text x="30" y="15" fill="#E6EDF3">Delegar a /doc + /planner</text>
        </g>
        <g transform="translate(0,68)">
          <circle cx="10" cy="10" r="9" fill="none" stroke="#58A6FF" stroke-width="2" stroke-dasharray="3 3"/>
          <text x="30" y="15" fill="#E6EDF3">Sintetizar respuesta</text>
          <text x="430" y="15" font-size="12" fill="#58A6FF" text-anchor="end">en curso</text>
        </g>
        <g transform="translate(0,102)" opacity="0.5">
          <circle cx="10" cy="10" r="9" fill="none" stroke="#8B949E" stroke-width="1.5"/>
          <text x="30" y="15" fill="#B1BAC4">Responder por Telegram</text>
        </g>
      </g>

      <!-- progreso -->
      <g transform="translate(22,300)">
        <text x="0" y="0" font-size="12" fill="#8B949E">progreso · 3/4 fases</text>
        <rect x="0" y="12" width="466" height="10" rx="5" fill="#252B33"/>
        <rect x="0" y="12" width="350" height="10" rx="5" fill="#BC8CFF"/>
      </g>
      <text x="22" y="368" font-size="12" fill="#6E7681" font-family="monospace">claude-opus · 14:19 → ahora</text>
    </g>

    <!-- ---- Tarjeta agente 2 ---- -->
    <g transform="translate(546,52)">
      <rect x="0" y="0" width="510" height="392" rx="16" fill="#161B22" stroke="#30363D"/>
      <rect x="0" y="0" width="6" height="392" rx="3" fill="#58A6FF"/>
      <text x="26" y="42" font-size="20" font-weight="700" fill="#E6EDF3">android-dev</text>
      <g transform="translate(380,22)">
        <rect x="0" y="0" width="106" height="26" rx="13" fill="rgba(88,166,255,0.14)"/>
        <text x="53" y="18" font-size="12" font-weight="600" fill="#58A6FF" text-anchor="middle">desarrollo</text>
      </g>
      <text x="26" y="74" font-size="15" fill="#B1BAC4" font-family="monospace">issue #3960 · fase dev</text>
      <text x="26" y="112" font-size="14" fill="#E6EDF3">Pantalla de catálogo con filtros</text>

      <g transform="translate(26,150)" font-size="13">
        <use href="#m-ok" x="0" y="0" width="20" height="20" color="#3FB950"/>
        <text x="30" y="15" fill="#E6EDF3">Rama creada</text>
        <use href="#m-ok" x="0" y="34" width="20" height="20" color="#3FB950"/>
        <text x="30" y="49" fill="#E6EDF3">ViewModel + UIState</text>
        <circle cx="10" cy="78" r="9" fill="none" stroke="#58A6FF" stroke-width="2" stroke-dasharray="3 3"/>
        <text x="30" y="83" fill="#E6EDF3">Composable de filtros</text>
        <text x="430" y="83" font-size="12" fill="#58A6FF" text-anchor="end">en curso</text>
      </g>

      <g transform="translate(26,300)">
        <text x="0" y="0" font-size="12" fill="#8B949E">progreso · 2/4 pasos · 50%</text>
        <rect x="0" y="12" width="458" height="10" rx="5" fill="#252B33"/>
        <rect x="0" y="12" width="229" height="10" rx="5" fill="#58A6FF"/>
      </g>
      <g transform="translate(26,340)">
        <use href="#m-link" x="0" y="0" width="18" height="18" color="#58A6FF"/>
        <text x="26" y="14" font-size="13" fill="#58A6FF">ver log en vivo</text>
      </g>
      <text x="486" y="368" font-size="12" fill="#6E7681" font-family="monospace" text-anchor="end">codex · 14:05</text>
    </g>

    <!-- ---- Fila inferior: 2 tarjetas + carrusel (CA-2 overflow) ---- -->
    <g transform="translate(24,468)">
      <rect x="0" y="0" width="510" height="356" rx="16" fill="#161B22" stroke="#30363D"/>
      <rect x="0" y="0" width="6" height="356" rx="3" fill="#2DD4BF"/>
      <text x="26" y="42" font-size="20" font-weight="700" fill="#E6EDF3">qa</text>
      <g transform="translate(386,22)">
        <rect x="0" y="0" width="100" height="26" rx="13" fill="rgba(45,212,191,0.14)"/>
        <text x="50" y="18" font-size="12" font-weight="600" fill="#2DD4BF" text-anchor="middle">qa e2e</text>
      </g>
      <text x="26" y="74" font-size="15" fill="#B1BAC4" font-family="monospace">issue #3948 · grabando video</text>
      <text x="26" y="112" font-size="14" fill="#E6EDF3">Flujo de alta de comercio</text>
      <g transform="translate(26,150)" font-size="13">
        <use href="#m-ok" x="0" y="0" width="20" height="20" color="#3FB950"/>
        <text x="30" y="15" fill="#E6EDF3">Emulador listo (snapshot)</text>
        <circle cx="10" cy="44" r="9" fill="none" stroke="#2DD4BF" stroke-width="2" stroke-dasharray="3 3"/>
        <text x="30" y="49" fill="#E6EDF3">Ejecutando casos + screenrecord</text>
      </g>
      <g transform="translate(26,264)">
        <rect x="0" y="0" width="458" height="10" rx="5" fill="#252B33"/>
        <rect x="0" y="0" width="160" height="10" rx="5" fill="#2DD4BF"/>
      </g>
      <g transform="translate(26,300)">
        <use href="#m-link" x="0" y="0" width="18" height="18" color="#58A6FF"/>
        <text x="26" y="14" font-size="13" fill="#58A6FF">ver log en vivo</text>
      </g>
    </g>

    <!-- tarjeta "fantasma" + indicadores de carrusel -->
    <g transform="translate(546,468)">
      <rect x="0" y="0" width="510" height="356" rx="16" fill="#0D1117" stroke="#21262D" stroke-dasharray="6 6"/>
      <text x="255" y="172" font-size="15" fill="#6E7681" text-anchor="middle">carrusel horizontal discreto</text>
      <text x="255" y="196" font-size="13" fill="#6E7681" text-anchor="middle">(excedente de agentes — CA-2, sin scroll de página)</text>
      <g transform="translate(231,236)">
        <circle cx="0" cy="0" r="5" fill="#58A6FF"/>
        <circle cx="20" cy="0" r="5" fill="#30363D"/>
        <circle cx="40" cy="0" r="5" fill="#30363D"/>
      </g>
    </g>
  </g>

  <!-- ============================================================= -->
  <!-- BANDA 3 — FLUJO   (y 1400..1920, alto 520 ~ 30% util)         -->
  <!-- ============================================================= -->
  <g transform="translate(0,1400)">
    <rect x="0" y="0" width="1080" height="520" fill="#0D1117"/>
    <rect x="0" y="0" width="1080" height="1" fill="#21262D"/>
    <text x="24" y="34" font-size="12" font-weight="700" letter-spacing="0.1em" fill="#8B949E">BANDA 3 · FLUJO</text>

    <!-- ---- Mini-kanban de la ola (wave-panel, horizontal) ---- -->
    <g transform="translate(24,52)">
      <text x="0" y="0" font-size="14" font-weight="600" fill="#E6EDF3">Mini-kanban · Ola 8</text>
      <!-- columnas: lane colors de design-tokens (definicion/desarrollo/qa/entrega) -->
      <g transform="translate(0,16)">
        <!-- definicion -->
        <g transform="translate(0,0)">
          <rect x="0" y="0" width="180" height="364" rx="12" fill="#161B22" stroke="#30363D"/>
          <rect x="0" y="0" width="180" height="6" rx="3" fill="#BC8CFF"/>
          <text x="16" y="34" font-size="13" font-weight="600" fill="#BC8CFF">Definición · 2</text>
          <g transform="translate(12,48)" font-family="monospace" font-size="12">
            <rect x="0" y="0" width="156" height="46" rx="8" fill="#1C2128"/>
            <text x="12" y="20" fill="#E6EDF3">#3961</text>
            <text x="12" y="36" font-size="11" fill="#8B949E" font-family="-apple-system">criterios</text>
            <rect x="0" y="56" width="156" height="46" rx="8" fill="#1C2128"/>
            <text x="12" y="76" fill="#E6EDF3">#3962</text>
            <text x="12" y="92" font-size="11" fill="#8B949E" font-family="-apple-system">análisis</text>
          </g>
        </g>
        <!-- desarrollo -->
        <g transform="translate(196,0)">
          <rect x="0" y="0" width="180" height="364" rx="12" fill="#161B22" stroke="#30363D"/>
          <rect x="0" y="0" width="180" height="6" rx="3" fill="#58A6FF"/>
          <text x="16" y="34" font-size="13" font-weight="600" fill="#58A6FF">Desarrollo · 3</text>
          <g transform="translate(12,48)" font-family="monospace" font-size="12">
            <rect x="0" y="0" width="156" height="46" rx="8" fill="#1C2128"/>
            <text x="12" y="20" fill="#E6EDF3">#3960</text>
            <text x="12" y="36" font-size="11" fill="#8B949E" font-family="-apple-system">dev</text>
            <rect x="0" y="56" width="156" height="46" rx="8" fill="#1C2128"/>
            <text x="12" y="76" fill="#E6EDF3">#3957</text>
            <text x="12" y="92" font-size="11" fill="#8B949E" font-family="-apple-system">build</text>
          </g>
        </g>
        <!-- qa -->
        <g transform="translate(392,0)">
          <rect x="0" y="0" width="180" height="364" rx="12" fill="#161B22" stroke="#30363D"/>
          <rect x="0" y="0" width="180" height="6" rx="3" fill="#2DD4BF"/>
          <text x="16" y="34" font-size="13" font-weight="600" fill="#2DD4BF">QA · 1</text>
          <g transform="translate(12,48)" font-family="monospace" font-size="12">
            <rect x="0" y="0" width="156" height="46" rx="8" fill="#1C2128"/>
            <text x="12" y="20" fill="#E6EDF3">#3948</text>
            <text x="12" y="36" font-size="11" fill="#8B949E" font-family="-apple-system">verificación</text>
          </g>
        </g>
        <!-- entrega -->
        <g transform="translate(588,0)">
          <rect x="0" y="0" width="180" height="364" rx="12" fill="#161B22" stroke="#30363D"/>
          <rect x="0" y="0" width="180" height="6" rx="3" fill="#3FB950"/>
          <text x="16" y="34" font-size="13" font-weight="600" fill="#3FB950">Entrega · 1</text>
          <g transform="translate(12,48)" font-family="monospace" font-size="12">
            <rect x="0" y="0" width="156" height="46" rx="8" fill="#1C2128"/>
            <text x="12" y="20" fill="#E6EDF3">#3945</text>
            <text x="12" y="36" font-size="11" fill="#8B949E" font-family="-apple-system">aprobación</text>
          </g>
        </g>
        <!-- scroll horizontal interno contenido (CA-2) -->
        <text x="784" y="190" font-size="13" fill="#6E7681">▸ scroll horiz.</text>
        <text x="784" y="210" font-size="13" fill="#6E7681">interno</text>
      </g>
    </g>

    <!-- ---- Próximos 5 (nextInQueue ..,5) ---- -->
    <g transform="translate(840,52)">
      <text x="0" y="0" font-size="14" font-weight="600" fill="#E6EDF3">Próximos 5</text>
      <g transform="translate(0,16)">
        <rect x="0" y="0" width="216" height="364" rx="12" fill="#161B22" stroke="#30363D"/>
        <g font-size="12" font-family="monospace">
          <g transform="translate(16,30)">
            <text x="0" y="0" fill="#6E7681">1.</text><text x="24" y="0" fill="#E6EDF3">#3963</text>
            <text x="0" y="16" font-size="11" fill="#8B949E" font-family="-apple-system">EP8-H2 · ready</text>
          </g>
          <g transform="translate(16,84)">
            <text x="0" y="0" fill="#6E7681">2.</text><text x="24" y="0" fill="#E6EDF3">#3964</text>
            <text x="0" y="16" font-size="11" fill="#8B949E" font-family="-apple-system">EP8-H3 · ready</text>
          </g>
          <g transform="translate(16,138)">
            <text x="0" y="0" fill="#6E7681">3.</text><text x="24" y="0" fill="#E6EDF3">#3965</text>
            <text x="0" y="16" font-size="11" fill="#8B949E" font-family="-apple-system">EP8-H4 · ready</text>
          </g>
          <g transform="translate(16,192)">
            <text x="0" y="0" fill="#6E7681">4.</text><text x="24" y="0" fill="#E6EDF3">#3958</text>
            <text x="0" y="16" font-size="11" fill="#8B949E" font-family="-apple-system">bug · ready</text>
          </g>
          <g transform="translate(16,246)">
            <text x="0" y="0" fill="#6E7681">5.</text><text x="24" y="0" fill="#E6EDF3">#3959</text>
            <text x="0" y="16" font-size="11" fill="#8B949E" font-family="-apple-system">enhancement · ready</text>
          </g>
        </g>
        <text x="108" y="338" font-size="11" fill="#6E7681" text-anchor="middle">tope fijo en 5</text>
      </g>
    </g>
  </g>

  <!-- ===== Nota deep-links (CA-11) ===== -->
  <g transform="translate(24,1892)">
    <use href="#m-link" x="0" y="-14" width="16" height="16" color="#58A6FF"/>
    <text x="22" y="-2" font-size="12" fill="#8B949E">Deep-links: cada elemento clickeable refleja estado en la URL (?view= ?alert= ?agent= ?phase=) — params validados por allowlist y escapados (REQ-SEC-5).</text>
  </g>
</svg>
