<?xml version="1.0" encoding="UTF-8"?>
<!--
  Mockup 40 — Vista "Roadmap de olas" (#4373, Ola 8.3)
  =============================================================================
  Vista operativa READ-ONLY que consolida en un solo lugar, sin leer JSON ni
  logs: ola ACTIVA, PROXIMAS olas, olas ARCHIVADAS, issues hijos, prioridad,
  avance, bloqueos y ETA de ejecucion.

  Fuente de verdad: .pipeline/waves.json (via lib/waves.js). NO existe roadmap.json
  (aclaracion de Guru). Data 100% offline: title-cache state.issueTitles /
  state.issueMatrix, sin llamadas a `gh` en runtime (CA-10).

  Mapa de Criterios de Aceptacion (PO) que este mockup cubre:
    CA-1  Ola activa destacada: numero + nombre + goal + avance          -> panel "ACTIVA"
    CA-2  Proximas olas en orden con numero/nombre/goal                  -> lane "PROXIMAS"
    CA-3  Olas archivadas (colapsable) con closed_at                     -> seccion "ARCHIVADAS"
    CA-4  Issues hijos: numero + titulo + estado                        -> filas issue de cada ola
    CA-5  Prioridad por issue (badge)                                    -> badge prio-{high|med|low}
    CA-6  Avance por ola (cerrados/total + %)                            -> barra de avance
    CA-7  Bloqueos visibles con motivo/blocker                          -> badge bloqueo + fila motivo
    CA-8  ETA (p50/p75/p90) + "poca muestra" si samples=0               -> panel ETA
    CA-9  Todo sin abrir waves.json ni logs                             -> vista unica autosuficiente
    CA-10 Data offline sin gh en runtime                                -> nota footer "offline"
    CA-S1 Escapado XSS de todo texto dinamico                           -> nota seguridad footer
    CA-S2 Loopback gate en /api/dash/roadmap                            -> nota seguridad footer
    CA-S3 Whitelist de campos (normalizeWave)                           -> nota seguridad footer
    CA-S4 Path traversal en olas archivadas por query                   -> nota seguridad footer

  Convenciones (identicas al resto del sistema visual V3):
    - Paleta: design-tokens.css (success/warning/danger/info/purple/teal/surface/text).
    - Iconos: sprite.svg via <use href="#ic-*"/>. Aqui inline como <symbol id="m-*"/>
      para preview standalone. Se agrega ic-tab-roadmap al sprite (ver narrativa).
    - Tipografia: system stack; monospace en IDs (#4373), timestamps y ETA.
    - WCAG AA: pares texto/fondo verificados >= 4.5:1 (tabla en la narrativa).
    - Anti-info-solo-por-color: cada estado tiene icono + texto, no solo color.

  Datos del mockup: reflejan waves.json real (Ola 8.3 activa, 8.4 planificada,
  seed #1 + 8.2 archivadas). Bloqueos/ETA/avance son ilustrativos.

  Tamano: 1440x1020 (vista dedicada — tab "Roadmap").
-->
<svg xmlns="http://www.w3.org/2000/svg" viewBox="0 0 1440 1020"
     font-family="-apple-system, 'Segoe UI Variable', 'Segoe UI', Roboto, sans-serif">
  <defs>
    <!-- ===== Iconos inline (preview standalone) — mapa a sprite en la narrativa ===== -->
    <symbol id="m-roadmap" viewBox="0 0 24 24">
      <!-- ruta con hitos: linea con 3 nodos ascendentes (roadmap/horizonte) -->
      <path d="M4 18 L9 13 L14 15 L20 7" fill="none" stroke="currentColor"
            stroke-width="1.7" stroke-linecap="round" stroke-linejoin="round"/>
      <circle cx="4" cy="18" r="1.7" fill="currentColor"/>
      <circle cx="9" cy="13" r="1.7" fill="currentColor"/>
      <circle cx="14" cy="15" r="1.7" fill="currentColor"/>
      <circle cx="20" cy="7" r="1.7" fill="currentColor"/>
    </symbol>
    <symbol id="m-wave" viewBox="0 0 24 24">
      <path d="M2 9 C4 6 6 6 8 9 C10 12 12 12 14 9 C16 6 18 6 20 9 C21 10.5 22 10.5 22 10.5"
            fill="none" stroke="currentColor" stroke-width="1.6" stroke-linecap="round"/>
      <path d="M2 15 C4 12 6 12 8 15 C10 18 12 18 14 15 C16 12 18 12 20 15 C21 16.5 22 16.5 22 16.5"
            fill="none" stroke="currentColor" stroke-width="1.6" stroke-linecap="round" opacity="0.6"/>
    </symbol>
    <symbol id="m-eta" viewBox="0 0 24 24">
      <circle cx="12" cy="12" r="8.5" fill="none" stroke="currentColor" stroke-width="1.5" opacity="0.35"/>
      <path d="M12 3.5 A8.5 8.5 0 1 1 3.5 12" fill="none" stroke="currentColor" stroke-width="1.75" stroke-linecap="round"/>
      <path d="M12 8 V12 L14.5 13.5" fill="none" stroke="currentColor" stroke-width="1.5" stroke-linecap="round" stroke-linejoin="round"/>
    </symbol>
    <symbol id="m-block" viewBox="0 0 24 24">
      <rect x="5" y="10.5" width="14" height="9" rx="1.6" fill="none" stroke="currentColor" stroke-width="1.6"/>
      <path d="M8 10.5 V8 a4 4 0 0 1 8 0 V10.5" fill="none" stroke="currentColor" stroke-width="1.6"/>
      <circle cx="12" cy="15" r="1.3" fill="currentColor"/>
    </symbol>
    <symbol id="m-archive" viewBox="0 0 24 24">
      <rect x="4" y="5" width="16" height="4" rx="1" fill="none" stroke="currentColor" stroke-width="1.6"/>
      <path d="M5 9 V18 a1 1 0 0 0 1 1 H18 a1 1 0 0 0 1 -1 V9" fill="none" stroke="currentColor" stroke-width="1.6"/>
      <path d="M10 12.5 H14" stroke="currentColor" stroke-width="1.6" stroke-linecap="round"/>
    </symbol>
    <symbol id="m-play" viewBox="0 0 24 24">
      <path d="M8 5 L18 12 L8 19 Z" fill="currentColor"/>
    </symbol>
    <symbol id="m-clock-next" viewBox="0 0 24 24">
      <circle cx="12" cy="12" r="8.5" fill="none" stroke="currentColor" stroke-width="1.6"/>
      <path d="M12 7.5 V12 L15 14" fill="none" stroke="currentColor" stroke-width="1.6" stroke-linecap="round" stroke-linejoin="round"/>
    </symbol>
    <symbol id="m-check" viewBox="0 0 24 24">
      <path d="M5 12.5 L10 17.5 L19 6.5" fill="none" stroke="currentColor" stroke-width="2" stroke-linecap="round" stroke-linejoin="round"/>
    </symbol>
    <symbol id="m-dot" viewBox="0 0 24 24">
      <circle cx="12" cy="12" r="4" fill="currentColor"/>
    </symbol>
    <symbol id="m-spin" viewBox="0 0 24 24">
      <circle cx="12" cy="12" r="7.5" fill="none" stroke="currentColor" stroke-width="1.7" opacity="0.3"/>
      <path d="M12 4.5 A7.5 7.5 0 0 1 19.5 12" fill="none" stroke="currentColor" stroke-width="1.9" stroke-linecap="round"/>
    </symbol>
    <symbol id="m-lock-shield" viewBox="0 0 24 24">
      <path d="M12 3 L20 6 V11 C20 16 16.5 19.5 12 21 C7.5 19.5 4 16 4 11 V6 Z"
            fill="none" stroke="currentColor" stroke-width="1.6" stroke-linejoin="round"/>
      <rect x="9.2" y="11" width="5.6" height="4.5" rx="0.8" fill="none" stroke="currentColor" stroke-width="1.4"/>
      <path d="M10.4 11 V9.7 a1.6 1.6 0 0 1 3.2 0 V11" fill="none" stroke="currentColor" stroke-width="1.4"/>
    </symbol>

    <linearGradient id="g-rail" x1="0" y1="0" x2="0" y2="1">
      <stop offset="0" stop-color="#00D6FF"/>
      <stop offset="0.5" stop-color="#BC8CFF"/>
      <stop offset="1" stop-color="#3FB950"/>
    </linearGradient>
    <linearGradient id="g-active" x1="0" y1="0" x2="1" y2="0">
      <stop offset="0" stop-color="#0F6CD6" stop-opacity="0.28"/>
      <stop offset="1" stop-color="#0D274D" stop-opacity="0.05"/>
    </linearGradient>
  </defs>

  <!-- ===== Fondo ===== -->
  <rect width="1440" height="1020" fill="#0D1117"/>

  <!-- ===== Header ===== -->
  <g transform="translate(40,28)">
    <rect x="0" y="0" width="1360" height="66" rx="12" fill="#161B22" stroke="#21262D"/>
    <g transform="translate(20,21)" color="#00D6FF"><use href="#m-roadmap" width="26" height="26"/></g>
    <text x="56" y="30" fill="#E6EDF3" font-size="19" font-weight="700">Roadmap de olas</text>
    <text x="56" y="49" fill="#8B949E" font-size="12.5">Vista operativa · que se ejecuta ahora y que sigue — sin abrir JSON ni logs</text>
    <!-- chip data offline -->
    <g transform="translate(1055,18)">
      <rect x="0" y="0" width="128" height="30" rx="15" fill="#0D1117" stroke="#30363D"/>
      <g transform="translate(10,6)" color="#3FB950"><use href="#m-check" width="18" height="18"/></g>
      <text x="34" y="20" fill="#B1BAC4" font-size="11.5">datos offline (FS)</text>
    </g>
    <!-- chip actualizado -->
    <g transform="translate(1195,18)">
      <rect x="0" y="0" width="150" height="30" rx="15" fill="#0D1117" stroke="#30363D"/>
      <g transform="translate(10,7)" color="#58A6FF"><use href="#m-clock-next" width="16" height="16"/></g>
      <text x="32" y="20" fill="#B1BAC4" font-size="11" font-family="monospace">upd 02/07 02:15</text>
    </g>
  </g>

  <!-- ===== Columna izquierda: ACTIVA + PROXIMAS ===== -->

  <!-- === Panel OLA ACTIVA (destacada, CA-1) === -->
  <g transform="translate(40,116)">
    <rect x="0" y="0" width="900" height="330" rx="14" fill="#161B22" stroke="#1F6FEB"/>
    <rect x="0" y="0" width="900" height="330" rx="14" fill="url(#g-active)"/>
    <rect x="0" y="0" width="5" height="330" rx="2.5" fill="#58A6FF"/>

    <!-- header ola activa -->
    <g transform="translate(22,20)">
      <g transform="translate(0,2)" color="#58A6FF"><use href="#m-play" width="20" height="20"/></g>
      <rect x="30" y="0" width="66" height="22" rx="11" fill="#0D274D" stroke="#1F6FEB"/>
      <text x="63" y="15.5" fill="#9EC7FF" font-size="11.5" font-weight="700" text-anchor="middle">ACTIVA</text>
      <text x="108" y="16" fill="#E6EDF3" font-size="16.5" font-weight="700">Ola 8.3 — Gestion y manipulacion de olas</text>
      <text x="108" y="16" fill="#E6EDF3" font-size="16.5" font-weight="700" opacity="0"></text>
    </g>
    <text x="130" y="60" fill="#8B949E" font-size="11.5" font-family="monospace">#wave-3 · concurrency 3 · ventana 60min · started 02/07 02:15</text>
    <text x="22" y="86" fill="#B1BAC4" font-size="12.5">Herramientas para gestionar el roadmap de olas (crear, asociar issues, ordenar) y</text>
    <text x="22" y="104" fill="#B1BAC4" font-size="12.5">resolver la desincronizacion habilitados↔registro que congelo el pipeline el 01/07.</text>

    <!-- barra de avance (CA-6) -->
    <g transform="translate(22,124)">
      <text x="0" y="12" fill="#8B949E" font-size="11">Avance de la ola</text>
      <text x="856" y="12" fill="#E6EDF3" font-size="11.5" text-anchor="end" font-weight="600">2 / 11 cerrados · 18%</text>
      <rect x="0" y="20" width="856" height="10" rx="5" fill="#21262D"/>
      <rect x="0" y="20" width="154" height="10" rx="5" fill="#3FB950"/>
      <rect x="154" y="20" width="78" height="10" fill="#D29922"/>
      <rect x="838" y="20" width="18" height="10" rx="5" fill="#21262D"/>
      <text x="0" y="48" fill="#6E7681" font-size="10">2 done</text>
      <text x="180" y="48" fill="#6E7681" font-size="10">1 en curso · 8 pendientes</text>
    </g>

    <!-- ETA (CA-8) -->
    <g transform="translate(22,186)">
      <rect x="0" y="0" width="410" height="118" rx="10" fill="#0D1117" stroke="#30363D"/>
      <g transform="translate(14,12)" color="#BC8CFF"><use href="#m-eta" width="18" height="18"/></g>
      <text x="40" y="26" fill="#E6EDF3" font-size="13" font-weight="600">ETA de ejecucion</text>
      <text x="396" y="26" fill="#6E7681" font-size="10" text-anchor="end" font-family="monospace">samples=14</text>
      <g font-family="monospace">
        <text x="18" y="60" fill="#8B949E" font-size="11">p50</text>
        <text x="18" y="82" fill="#3FB950" font-size="20" font-weight="700">~2.1 d</text>
        <text x="150" y="60" fill="#8B949E" font-size="11">p75</text>
        <text x="150" y="82" fill="#D29922" font-size="20" font-weight="700">~3.4 d</text>
        <text x="282" y="60" fill="#8B949E" font-size="11">p90</text>
        <text x="282" y="82" fill="#F0A500" font-size="20" font-weight="700">~4.8 d</text>
      </g>
      <text x="18" y="104" fill="#6E7681" font-size="10">estimado a partir del historico de markers FS de olas cerradas</text>
    </g>

    <!-- Bloqueos de la ola (CA-7) -->
    <g transform="translate(454,186)">
      <rect x="0" y="0" width="424" height="118" rx="10" fill="#0D1117" stroke="#8B1A14"/>
      <g transform="translate(14,12)" color="#F85149"><use href="#m-block" width="18" height="18"/></g>
      <text x="40" y="26" fill="#F5B0AC" font-size="13" font-weight="600">Bloqueos activos</text>
      <rect x="360" y="10" width="52" height="20" rx="10" fill="#8B1A14"/>
      <text x="386" y="24" fill="#FFD2DC" font-size="11.5" font-weight="700" text-anchor="middle">2</text>
      <g font-size="11.5" font-family="monospace">
        <text x="18" y="56" fill="#F85149">#4360</text>
        <text x="72" y="56" fill="#B1BAC4" font-family="-apple-system,sans-serif">espera a #4350 (schema waves.json)</text>
        <text x="18" y="82" fill="#F85149">#4372</text>
        <text x="72" y="82" fill="#B1BAC4" font-family="-apple-system,sans-serif">dep externa: lib/audit-log sin mergear</text>
      </g>
      <text x="18" y="104" fill="#6E7681" font-size="10" font-family="-apple-system,sans-serif">motivo + blocker desde state.bloqueados — no solo color, tambien texto</text>
    </g>
  </g>

  <!-- === Issues hijos de la ola activa (CA-4/5) === -->
  <g transform="translate(40,462)">
    <rect x="0" y="0" width="900" height="340" rx="14" fill="#161B22" stroke="#21262D"/>
    <text x="20" y="30" fill="#E6EDF3" font-size="14" font-weight="700">Issues hijos · Ola 8.3</text>
    <text x="880" y="30" fill="#6E7681" font-size="11" text-anchor="end">11 issues</text>
    <!-- encabezado de columnas -->
    <g fill="#6E7681" font-size="10.5" transform="translate(20,50)">
      <text x="0" y="0">ISSUE</text>
      <text x="72" y="0">TITULO</text>
      <text x="628" y="0">PRIORIDAD</text>
      <text x="748" y="0">ESTADO</text>
    </g>
    <line x1="20" y1="58" x2="880" y2="58" stroke="#21262D"/>

    <!-- filas: (icono estado + color) -->
    <g font-size="12" transform="translate(20,58)">
      <!-- fila helper via repeticion manual -->
      <!-- 4350 done -->
      <g transform="translate(0,0)">
        <rect x="-6" y="6" width="872" height="24" rx="6" fill="#0D1117"/>
        <text x="0" y="22" fill="#8B949E" font-family="monospace">#4350</text>
        <text x="72" y="22" fill="#E6EDF3">Migrar waves.json a schema 1.1 con orden explicito</text>
        <rect x="628" y="9" width="52" height="18" rx="9" fill="#8B1A14"/><text x="654" y="22" fill="#FFD2DC" font-size="10" text-anchor="middle" font-weight="600">high</text>
        <g transform="translate(748,10)" color="#3FB950"><use href="#m-check" width="16" height="16"/></g><text x="770" y="22" fill="#7EE787">done</text>
      </g>
      <!-- 4351 done -->
      <g transform="translate(0,30)">
        <text x="0" y="22" fill="#8B949E" font-family="monospace">#4351</text>
        <text x="72" y="22" fill="#E6EDF3">API removeIssueFromWave con auditoria hash-chain</text>
        <rect x="628" y="9" width="52" height="18" rx="9" fill="#8B1A14"/><text x="654" y="22" fill="#FFD2DC" font-size="10" text-anchor="middle" font-weight="600">high</text>
        <g transform="translate(748,10)" color="#3FB950"><use href="#m-check" width="16" height="16"/></g><text x="770" y="22" fill="#7EE787">done</text>
      </g>
      <!-- 4360 blocked -->
      <g transform="translate(0,60)">
        <rect x="-6" y="6" width="872" height="24" rx="6" fill="#160B0B"/>
        <text x="0" y="22" fill="#F85149" font-family="monospace">#4360</text>
        <text x="72" y="22" fill="#E6EDF3">Wizard "crear ola" en dashboard</text>
        <rect x="628" y="9" width="60" height="18" rx="9" fill="#9E6A03"/><text x="658" y="22" fill="#FFE5A8" font-size="10" text-anchor="middle" font-weight="600">medium</text>
        <g transform="translate(748,10)" color="#F85149"><use href="#m-block" width="16" height="16"/></g><text x="770" y="22" fill="#F5B0AC">bloqueado</text>
      </g>
      <!-- 4361 in-progress -->
      <g transform="translate(0,90)">
        <text x="0" y="22" fill="#8B949E" font-family="monospace">#4361</text>
        <text x="72" y="22" fill="#E6EDF3">Reordenar issues de una ola (drag handle)</text>
        <rect x="628" y="9" width="60" height="18" rx="9" fill="#9E6A03"/><text x="658" y="22" fill="#FFE5A8" font-size="10" text-anchor="middle" font-weight="600">medium</text>
        <g transform="translate(748,10)" color="#58A6FF"><use href="#m-spin" width="16" height="16"/></g><text x="770" y="22" fill="#9EC7FF">en curso</text>
      </g>
      <!-- 4371 pending -->
      <g transform="translate(0,120)">
        <rect x="-6" y="6" width="872" height="24" rx="6" fill="#0D1117"/>
        <text x="0" y="22" fill="#8B949E" font-family="monospace">#4371</text>
        <text x="72" y="22" fill="#E6EDF3">Audit trail de olas &amp; issues asociados</text>
        <rect x="628" y="9" width="60" height="18" rx="9" fill="#9E6A03"/><text x="658" y="22" fill="#FFE5A8" font-size="10" text-anchor="middle" font-weight="600">medium</text>
        <g transform="translate(748,10)" color="#8B949E"><use href="#m-dot" width="16" height="16"/></g><text x="770" y="22" fill="#B1BAC4">pendiente</text>
      </g>
      <!-- 4373 pending (este) -->
      <g transform="translate(0,150)">
        <rect x="-6" y="6" width="872" height="24" rx="6" fill="#0D1117"/>
        <text x="0" y="22" fill="#8B949E" font-family="monospace">#4373</text>
        <text x="72" y="22" fill="#E6EDF3">Vista clara del roadmap de olas para operador  ◂ esta vista</text>
        <rect x="628" y="9" width="60" height="18" rx="9" fill="#9E6A03"/><text x="658" y="22" fill="#FFE5A8" font-size="10" text-anchor="middle" font-weight="600">medium</text>
        <g transform="translate(748,10)" color="#8B949E"><use href="#m-dot" width="16" height="16"/></g><text x="770" y="22" fill="#B1BAC4">pendiente</text>
      </g>
      <!-- resto colapsado -->
      <g transform="translate(0,182)">
        <text x="0" y="20" fill="#6E7681" font-size="11">+ 5 issues mas (#4362, #4368, #4369, #4370, #4372) — pendientes</text>
        <text x="866" y="20" fill="#58A6FF" font-size="11" text-anchor="end">ver todos ▾</text>
      </g>
    </g>
  </g>

  <!-- ===== Columna derecha: PROXIMAS + ARCHIVADAS ===== -->

  <!-- === PROXIMAS olas (CA-2) === -->
  <g transform="translate(960,116)">
    <rect x="0" y="0" width="440" height="404" rx="14" fill="#161B22" stroke="#21262D"/>
    <g transform="translate(18,20)" color="#D29922"><use href="#m-clock-next" width="18" height="18"/></g>
    <text x="44" y="34" fill="#E6EDF3" font-size="14" font-weight="700">Proximas olas</text>
    <text x="420" y="34" fill="#6E7681" font-size="11" text-anchor="end">orden de ejecucion</text>
    <line x1="18" y1="48" x2="422" y2="48" stroke="#21262D"/>

    <!-- next 1: Ola 8.4 -->
    <g transform="translate(18,62)">
      <rect x="0" y="0" width="404" height="120" rx="10" fill="#0D1117" stroke="#30363D"/>
      <rect x="0" y="0" width="4" height="120" rx="2" fill="#D29922"/>
      <text x="18" y="26" fill="#8B949E" font-size="11" font-family="monospace">siguiente</text>
      <text x="18" y="48" fill="#E6EDF3" font-size="13.5" font-weight="700">Ola 8.4 — Gestion de providers</text>
      <text x="18" y="70" fill="#B1BAC4" font-size="11">Arreglar fallback que se corta en Codex, consumo</text>
      <text x="18" y="86" fill="#B1BAC4" font-size="11">proporcional entre providers y visibilidad de cuota.</text>
      <g font-family="monospace" font-size="10.5" fill="#6E7681" transform="translate(18,108)">
        <text x="0" y="0">4 issues · #4353 #4363 #4364 #4365 · concurrency 3</text>
      </g>
    </g>

    <!-- next 2: placeholder -->
    <g transform="translate(18,194)">
      <rect x="0" y="0" width="404" height="86" rx="10" fill="#0D1117" stroke="#21262D"/>
      <rect x="0" y="0" width="4" height="86" rx="2" fill="#484F58"/>
      <text x="18" y="26" fill="#8B949E" font-size="11" font-family="monospace">+2 en horizonte</text>
      <text x="18" y="48" fill="#B1BAC4" font-size="12.5" font-weight="600">Ola 8.5 — Producto (kernel/adaptador)</text>
      <text x="18" y="70" fill="#6E7681" font-size="10.5" font-family="monospace">sin issues asignados aun · getHorizon(n)</text>
    </g>

    <!-- nota poca muestra ETA -->
    <g transform="translate(18,292)">
      <rect x="0" y="0" width="404" height="94" rx="10" fill="#0D1117" stroke="#9E6A03"/>
      <g transform="translate(14,14)" color="#D29922"><use href="#m-eta" width="18" height="18"/></g>
      <text x="40" y="28" fill="#FFE5A8" font-size="12.5" font-weight="600">ETA de proximas: estimacion con poca muestra</text>
      <text x="18" y="52" fill="#B1BAC4" font-size="11">Las olas futuras aun no tienen historico suficiente</text>
      <text x="18" y="68" fill="#B1BAC4" font-size="11">(samples=0). Se muestra el aviso en vez de un numero</text>
      <text x="18" y="84" fill="#B1BAC4" font-size="11">enganoso — CA-8 / eta-wave.js fallback.</text>
    </g>
  </g>

  <!-- === ARCHIVADAS (CA-3, colapsable) === -->
  <g transform="translate(960,538)">
    <rect x="0" y="0" width="440" height="264" rx="14" fill="#161B22" stroke="#21262D"/>
    <g transform="translate(18,20)" color="#8B949E"><use href="#m-archive" width="18" height="18"/></g>
    <text x="44" y="34" fill="#E6EDF3" font-size="14" font-weight="700">Olas archivadas</text>
    <text x="420" y="34" fill="#58A6FF" font-size="11" text-anchor="end">colapsar ▴</text>
    <line x1="18" y1="48" x2="422" y2="48" stroke="#21262D"/>

    <!-- Ola 8.2 -->
    <g transform="translate(18,62)">
      <rect x="0" y="0" width="404" height="78" rx="10" fill="#0D1117" stroke="#21262D"/>
      <g transform="translate(14,14)" color="#3FB950"><use href="#m-check" width="16" height="16"/></g>
      <text x="40" y="27" fill="#B1BAC4" font-size="13" font-weight="600">Ola 8.2 — Entregables por fase y agente</text>
      <text x="18" y="50" fill="#6E7681" font-size="10.5" font-family="monospace">cerrada 02/07 02:15 · 0 done / 0 fail · 1 dia</text>
      <text x="18" y="68" fill="#8B949E" font-size="10.5">Epica #4255 — registro y entrega de entregables del pipeline</text>
    </g>

    <!-- Ola seed #1 -->
    <g transform="translate(18,150)">
      <rect x="0" y="0" width="404" height="66" rx="10" fill="#0D1117" stroke="#21262D"/>
      <g transform="translate(14,13)" color="#3FB950"><use href="#m-check" width="16" height="16"/></g>
      <text x="40" y="26" fill="#B1BAC4" font-size="13" font-weight="600">Ola seed #1</text>
      <text x="18" y="48" fill="#6E7681" font-size="10.5" font-family="monospace">cerrada 01/07 12:16 · seed .partial-pause.json (#3616)</text>
    </g>
  </g>

  <!-- ===== Leyenda de estados (anti-color-only) ===== -->
  <g transform="translate(40,820)">
    <rect x="0" y="0" width="900" height="80" rx="12" fill="#161B22" stroke="#21262D"/>
    <text x="18" y="28" fill="#8B949E" font-size="11" font-weight="600">LEYENDA DE ESTADOS (icono + texto, no solo color)</text>
    <g transform="translate(18,40)" font-size="11.5">
      <g transform="translate(0,0)"><g color="#3FB950"><use href="#m-check" width="16" height="16"/></g><text x="22" y="13" fill="#B1BAC4">done</text></g>
      <g transform="translate(110,0)"><g color="#58A6FF"><use href="#m-spin" width="16" height="16"/></g><text x="22" y="13" fill="#B1BAC4">en curso</text></g>
      <g transform="translate(230,0)"><g color="#8B949E"><use href="#m-dot" width="16" height="16"/></g><text x="22" y="13" fill="#B1BAC4">pendiente</text></g>
      <g transform="translate(360,0)"><g color="#F85149"><use href="#m-block" width="16" height="16"/></g><text x="22" y="13" fill="#B1BAC4">bloqueado</text></g>
      <g transform="translate(500,0)"><rect x="0" y="1" width="46" height="16" rx="8" fill="#8B1A14"/><text x="23" y="13" fill="#FFD2DC" font-size="9.5" text-anchor="middle">high</text><text x="56" y="13" fill="#6E7681">/</text><rect x="66" y="1" width="52" height="16" rx="8" fill="#9E6A03"/><text x="92" y="13" fill="#FFE5A8" font-size="9.5" text-anchor="middle">medium</text><text x="126" y="13" fill="#6E7681">/</text><rect x="136" y="1" width="40" height="16" rx="8" fill="#196C2E"/><text x="156" y="13" fill="#7EE787" font-size="9.5" text-anchor="middle">low</text><text x="184" y="13" fill="#6E7681">prioridad</text></g>
    </g>
  </g>

  <!-- ===== Panel de seguridad (CA-S1..S4) ===== -->
  <g transform="translate(960,820)">
    <rect x="0" y="0" width="440" height="80" rx="12" fill="#161B22" stroke="#30363D"/>
    <g transform="translate(16,14)" color="#58A6FF"><use href="#m-lock-shield" width="18" height="18"/></g>
    <text x="44" y="27" fill="#E6EDF3" font-size="12.5" font-weight="700">Seguridad de la vista (read-only)</text>
    <text x="16" y="48" fill="#B1BAC4" font-size="10.5">S1 escape XSS de todo texto dinamico · S2 loopback gate en /api/dash/roadmap</text>
    <text x="16" y="64" fill="#B1BAC4" font-size="10.5">S3 whitelist normalizeWave() · S4 path.basename en olas archivadas por query</text>
  </g>

  <!-- ===== Footer ===== -->
  <g transform="translate(40,916)">
    <text x="0" y="16" fill="#6E7681" font-size="10.5">Mockup 40 · Vista "Roadmap de olas" · #4373 (Ola 8.3) — sistema visual V3 · tokens design-tokens.css · iconos sprite.svg (ic-tab-roadmap nuevo)</text>
    <text x="0" y="34" fill="#6E7681" font-size="10.5">Read-only. Fuente: .pipeline/waves.json via lib/waves.js. Data 100% offline (title-cache) — sin llamadas a gh en runtime (CA-10). No existe roadmap.json.</text>
    <text x="0" y="52" fill="#484F58" font-size="10">Rail lateral gradient cyan→purple→success reservado para la tab activa en nav-tabs (coherencia con mockup 26). ETA/avance/bloqueos ilustrativos.</text>
  </g>

  <!-- Rail lateral decorativo (coherencia identidad) -->
  <rect x="0" y="0" width="6" height="1020" fill="url(#g-rail)"/>
</svg>
