<?xml version="1.0" encoding="UTF-8"?>
<!--
  Mockup 48 — Rejection report visual con INVENTARIO COMPLETO + COBERTURA DECLARADA.
  Issue #5708 — QA visual: reportar TODOS los desvios del mockup en una sola pasada.

  Extiende el mockup 19 (#3383, bloque side-by-side). Lo que agrega:
    - Bloque "Cobertura visual declarada" (CA-4): secciones declaradas / verificadas /
      no verificadas con motivo, y barra de progreso de cobertura.
    - Inventario de desvios AGRUPADO POR SECCION del mockup y ORDENADO POR IMPACTO
      descendente (CA-3), en vez de la lista plana de 5 items del mockup 19.
    - Chip "REGRESION" para el desvio que cae en una seccion declarada verificada en
      una pasada anterior (CA-5) — distingue regresion de codigo vs barrido incompleto.
    - Leyenda de truncado declarado (D2 del architect): "N de M desvios mostrados".
      Prohibido truncar en silencio.
    - Variante APROBADO con cobertura declarada + estado del guardrail de forma
      (visual-report-shape-gate, flag ON) cuando la cobertura esta incompleta.

  Design system: tokens de .pipeline/assets/design-tokens.css (surface-*, semantic-*,
  brand-*). Accesibilidad: ningun estado se codifica solo por color — todo chip lleva
  etiqueta textual y/o simbolo. Contraste AA/AAA sobre fondo #0D1117.

  Resolucion target: 1240x2400 (A4 a ~150dpi, PDF de lectura comoda).
-->
<svg xmlns="http://www.w3.org/2000/svg" width="1240" height="2400" viewBox="0 0 1240 2400"
     font-family="-apple-system, 'Segoe UI', system-ui, sans-serif">

  <defs>
    <linearGradient id="brandGrad" x1="0" y1="0" x2="1" y2="0">
      <stop offset="0%" stop-color="#00D6FF"/>
      <stop offset="100%" stop-color="#1890FF"/>
    </linearGradient>
    <linearGradient id="headerGrad" x1="0" y1="0" x2="0" y2="1">
      <stop offset="0%" stop-color="#0D274D"/>
      <stop offset="100%" stop-color="#0A1C36"/>
    </linearGradient>
    <pattern id="placeholderMockup" patternUnits="userSpaceOnUse" width="32" height="32">
      <rect width="32" height="32" fill="#1C2128"/>
      <path d="M0 32 L32 0" stroke="#252B33" stroke-width="1"/>
    </pattern>
    <pattern id="placeholderEntrega" patternUnits="userSpaceOnUse" width="32" height="32">
      <rect width="32" height="32" fill="#1C2128"/>
      <path d="M0 0 L32 32" stroke="#252B33" stroke-width="1"/>
    </pattern>
  </defs>

  <!-- Fondo pagina -->
  <rect width="1240" height="2400" fill="#0D1117"/>

  <!-- =================== HEADER =================== -->
  <rect x="0" y="0" width="1240" height="120" fill="url(#headerGrad)"/>
  <rect x="0" y="119" width="1240" height="1" fill="#30363D"/>

  <g transform="translate(48, 36)">
    <rect width="48" height="48" rx="12" fill="#0D274D" stroke="#1890FF" stroke-width="1"/>
    <path d="M24 10 L7 40 L41 40 Z" fill="none" stroke="url(#brandGrad)" stroke-width="3.5"
          stroke-linejoin="round" stroke-linecap="round"/>
    <path d="M24 22 L17 34 L31 34 Z" fill="url(#brandGrad)"/>
  </g>
  <text x="112" y="58" fill="#E6EDF3" font-size="22" font-weight="700">Intrale Pipeline V3</text>
  <text x="112" y="80" fill="#8B949E" font-size="11" font-weight="600" letter-spacing="2">REJECTION REPORT · VISUAL VALIDATION · INVENTARIO COMPLETO</text>

  <!-- Veredicto (top-right): ahora declara cantidad de hallazgos y cobertura -->
  <g transform="translate(908, 30)">
    <rect width="284" height="30" rx="6" fill="#3B1F1B" stroke="#8B1A14"/>
    <circle cx="20" cy="15" r="6" fill="#F85149"/>
    <text x="36" y="20" fill="#F85149" font-size="13" font-weight="700">VISUAL MISMATCH · 6 desvios</text>
    <rect y="38" width="284" height="30" rx="6" fill="#1F2D3F" stroke="#1F4C7A"/>
    <circle cx="20" cy="53" r="6" fill="#58A6FF"/>
    <text x="36" y="58" fill="#58A6FF" font-size="13" font-weight="700">cobertura 3 de 4 secciones</text>
  </g>

  <!-- ============ Issue title + meta ============ -->
  <text x="48" y="172" fill="#E6EDF3" font-size="28" font-weight="700">#5400 — Watchdog de dispatch estancado (panel de operacion)</text>

  <g transform="translate(48, 192)">
    <rect width="120" height="22" rx="11" fill="#1F2D3F"/>
    <text x="60" y="16" text-anchor="middle" fill="#58A6FF" font-size="11" font-weight="600">qa · verificacion</text>
    <rect x="132" width="140" height="22" rx="11" fill="#21262D"/>
    <text x="202" y="16" text-anchor="middle" fill="#B1BAC4" font-size="11" font-weight="600" font-family="'Cascadia Code', monospace">claude · sonnet-4.6</text>
    <rect x="284" width="180" height="22" rx="11" fill="#2A1F1C"/>
    <text x="374" y="16" text-anchor="middle" fill="#F85149" font-size="11" font-weight="600">mockup 47 · baseline v2</text>
    <text x="480" y="16" fill="#8B949E" font-size="11">2026-08-08 11:04:22 · rebote 1/3 · barrido exhaustivo completado</text>
  </g>

  <!-- =================== 1. COBERTURA VISUAL DECLARADA (CA-4) =================== -->
  <rect x="48" y="248" width="6" height="32" fill="#58A6FF"/>
  <text x="68" y="272" fill="#E6EDF3" font-size="20" font-weight="700">Cobertura visual declarada</text>
  <text x="352" y="272" fill="#8B949E" font-size="12">obligatoria en APROBADO y en RECHAZADO · el veredicto sin cobertura no se acepta</text>

  <g transform="translate(48, 300)">
    <rect width="1144" height="180" rx="8" fill="#161B22" stroke="#30363D"/>

    <!-- Fila superior: declaradas + barra de progreso -->
    <text x="24" y="30" fill="#B1BAC4" font-size="12">Secciones declaradas por el mockup 47:</text>
    <text x="286" y="30" fill="#E6EDF3" font-size="12" font-weight="700" font-family="'Cascadia Code', monospace">A · B · C · D</text>
    <text x="700" y="30" text-anchor="end" fill="#8B949E" font-size="11">3 verificadas · 1 no verificada (motivo declarado)</text>
    <rect x="716" y="20" width="404" height="12" rx="6" fill="#21262D"/>
    <rect x="716" y="20" width="303" height="12" rx="6" fill="#3FB950"/>
    <rect x="1019" y="20" width="101" height="12" fill="#D29922"/>
    <rect x="1114" y="20" width="6" height="12" rx="3" fill="#D29922"/>

    <!-- Chips por seccion: cada uno con etiqueta textual (nunca solo color) -->
    <!-- A -->
    <g transform="translate(24, 52)">
      <rect width="268" height="92" rx="6" fill="#1C2128" stroke="#196C2E"/>
      <circle cx="26" cy="28" r="12" fill="#0F3D26" stroke="#196C2E"/>
      <path d="M20 28 L24 32 L32 23" fill="none" stroke="#3FB950" stroke-width="2.5" stroke-linecap="round" stroke-linejoin="round"/>
      <text x="48" y="26" fill="#E6EDF3" font-size="14" font-weight="700">A · Banner de stall</text>
      <text x="48" y="44" fill="#3FB950" font-size="11" font-weight="600">VERIFICADA</text>
      <text x="24" y="70" fill="#B1BAC4" font-size="11">3 desvios detectados en esta pasada</text>
      <text x="24" y="86" fill="#8B949E" font-size="10">recorrida elemento por elemento (A1–A5)</text>
    </g>
    <!-- B -->
    <g transform="translate(316, 52)">
      <rect width="268" height="92" rx="6" fill="#1C2128" stroke="#196C2E"/>
      <circle cx="26" cy="28" r="12" fill="#0F3D26" stroke="#196C2E"/>
      <path d="M20 28 L24 32 L32 23" fill="none" stroke="#3FB950" stroke-width="2.5" stroke-linecap="round" stroke-linejoin="round"/>
      <text x="48" y="26" fill="#E6EDF3" font-size="14" font-weight="700">B · Timeline dispatch</text>
      <text x="48" y="44" fill="#3FB950" font-size="11" font-weight="600">VERIFICADA</text>
      <text x="24" y="70" fill="#B1BAC4" font-size="11">2 desvios detectados en esta pasada</text>
      <text x="24" y="86" fill="#8B949E" font-size="10">recorrida elemento por elemento (B1–B4)</text>
    </g>
    <!-- C -->
    <g transform="translate(608, 52)">
      <rect width="268" height="92" rx="6" fill="#1C2128" stroke="#196C2E"/>
      <circle cx="26" cy="28" r="12" fill="#0F3D26" stroke="#196C2E"/>
      <path d="M20 28 L24 32 L32 23" fill="none" stroke="#3FB950" stroke-width="2.5" stroke-linecap="round" stroke-linejoin="round"/>
      <text x="48" y="26" fill="#E6EDF3" font-size="14" font-weight="700">C · Card de watchdog</text>
      <text x="48" y="44" fill="#3FB950" font-size="11" font-weight="600">VERIFICADA</text>
      <text x="24" y="70" fill="#B1BAC4" font-size="11">1 desvio detectado en esta pasada</text>
      <text x="24" y="86" fill="#8B949E" font-size="10">verificada tambien en rev-9 (sin desvios)</text>
    </g>
    <!-- D -->
    <g transform="translate(900, 52)">
      <rect width="268" height="92" rx="6" fill="#1C2128" stroke="#7D5E10"/>
      <circle cx="26" cy="28" r="12" fill="#3A2D0B" stroke="#7D5E10"/>
      <text x="26" y="33" text-anchor="middle" fill="#D29922" font-size="14" font-weight="700">!</text>
      <text x="48" y="26" fill="#E6EDF3" font-size="14" font-weight="700">D · Modal de destrabe</text>
      <text x="48" y="44" fill="#D29922" font-size="11" font-weight="600">NO VERIFICADA</text>
      <text x="24" y="70" fill="#B1BAC4" font-size="11">motivo: estado no alcanzable sin datos</text>
      <text x="24" y="86" fill="#8B949E" font-size="10">de negocio (requiere issue estancado real)</text>
    </g>

    <!-- Invariante -->
    <text x="24" y="166" fill="#8B949E" font-size="11">Invariante validada por el guardrail de forma: verificadas ∪ no_verificadas = secciones_declaradas. Una seccion sin clasificar invalida el veredicto y pide re-barrido.</text>
  </g>

  <!-- =================== 2. COMPARACION VISUAL =================== -->
  <rect x="48" y="512" width="6" height="32" fill="#F85149"/>
  <text x="68" y="536" fill="#E6EDF3" font-size="20" font-weight="700">Comparacion visual</text>
  <text x="260" y="536" fill="#8B949E" font-size="12">mockup esperado (definicion) · entrega actual (captura QA) · marcadores numerados = indice del inventario</text>

  <!-- Columna izquierda -->
  <g transform="translate(48, 564)">
    <rect width="560" height="470" rx="8" fill="#161B22" stroke="#30363D"/>
    <rect width="560" height="44" rx="8" fill="#1C2128"/>
    <rect y="36" width="560" height="8" fill="#1C2128"/>
    <circle cx="20" cy="22" r="6" fill="#58A6FF"/>
    <text x="36" y="27" fill="#E6EDF3" font-size="13" font-weight="700">MOCKUP ESPERADO</text>
    <text x="200" y="27" fill="#8B949E" font-size="11">adjunto en definicion · UX · 2026-07-30</text>
    <rect x="448" y="10" width="104" height="24" rx="4" fill="#0F3D26" stroke="#196C2E"/>
    <text x="500" y="26" text-anchor="middle" fill="#3FB950" font-size="11" font-weight="600">baseline · v2</text>

    <rect x="20" y="60" width="520" height="390" rx="6" fill="url(#placeholderMockup)" stroke="#30363D"/>

    <!-- Simulacion del panel esperado, con secciones rotuladas A-D -->
    <g transform="translate(48, 84)">
      <!-- A: banner de stall -->
      <rect width="464" height="60" rx="6" fill="#3B1F1B" stroke="#8B1A14"/>
      <circle cx="26" cy="30" r="9" fill="#F85149"/>
      <text x="46" y="27" fill="#F85149" font-size="13" font-weight="700">Dispatch estancado</text>
      <text x="46" y="45" fill="#E6EDF3" font-size="11">sin avance hace 42 min · reintento 3 de 5</text>
      <rect x="404" y="18" width="44" height="24" rx="12" fill="#8B1A14"/>
      <text x="426" y="34" text-anchor="middle" fill="#FFFFFF" font-size="11" font-weight="700">A</text>
      <!-- B: timeline -->
      <rect y="76" width="464" height="92" rx="6" fill="#1C2128" stroke="#30363D"/>
      <text x="16" y="24" fill="#E6EDF3" font-size="12" font-weight="600" transform="translate(0,76)">Timeline de dispatch</text>
      <g transform="translate(16, 76)">
        <rect x="0" y="44" width="432" height="4" rx="2" fill="#21262D"/>
        <rect x="0" y="44" width="150" height="4" rx="2" fill="#1890FF"/>
        <circle cx="0" cy="46" r="6" fill="#3FB950"/>
        <circle cx="150" cy="46" r="6" fill="#D29922"/>
        <circle cx="300" cy="46" r="6" fill="#30363D" stroke="#8B949E"/>
        <text x="132" y="70" fill="#D29922" font-size="10">backoff 2m → 4m → 8m</text>
      </g>
      <rect x="404" y="94" width="44" height="24" rx="12" fill="#1F4C7A"/>
      <text x="426" y="110" text-anchor="middle" fill="#FFFFFF" font-size="11" font-weight="700">B</text>
      <!-- C: card watchdog -->
      <rect y="184" width="224" height="88" rx="6" fill="#1C2128" stroke="#1890FF" stroke-width="2"/>
      <text x="16" y="208" fill="#00D6FF" font-size="12" font-weight="700">Watchdog</text>
      <text x="16" y="228" fill="#E6EDF3" font-size="11">ultimo latido 00:42</text>
      <text x="16" y="248" fill="#8B949E" font-size="10">detectado por: pulpo · autoria agente</text>
      <rect x="168" y="192" width="44" height="24" rx="12" fill="#1F4C7A"/>
      <text x="190" y="208" text-anchor="middle" fill="#FFFFFF" font-size="11" font-weight="700">C</text>
      <!-- D: modal destrabe -->
      <rect x="240" y="184" width="224" height="88" rx="6" fill="#161B22" stroke="#30363D" stroke-dasharray="4 3"/>
      <text x="256" y="212" fill="#8B949E" font-size="11">Modal de destrabe manual</text>
      <text x="256" y="232" fill="#6E7681" font-size="10">estado no capturado en esta pasada</text>
      <rect x="408" y="192" width="44" height="24" rx="12" fill="#3A2D0B"/>
      <text x="430" y="208" text-anchor="middle" fill="#D29922" font-size="11" font-weight="700">D</text>
    </g>
  </g>

  <!-- Columna derecha -->
  <g transform="translate(632, 564)">
    <rect width="560" height="470" rx="8" fill="#161B22" stroke="#8B1A14"/>
    <rect width="560" height="44" rx="8" fill="#2A1F1C"/>
    <rect y="36" width="560" height="8" fill="#2A1F1C"/>
    <circle cx="20" cy="22" r="6" fill="#F85149"/>
    <text x="36" y="27" fill="#E6EDF3" font-size="13" font-weight="700">ENTREGA ACTUAL</text>
    <text x="194" y="27" fill="#8B949E" font-size="11">captura QA (playwright) · 2026-08-08 11:02</text>
    <rect x="448" y="10" width="104" height="24" rx="4" fill="#3B1F1B" stroke="#8B1A14"/>
    <text x="500" y="26" text-anchor="middle" fill="#F85149" font-size="11" font-weight="600">no matchea</text>

    <rect x="20" y="60" width="520" height="390" rx="6" fill="url(#placeholderEntrega)" stroke="#30363D"/>

    <g transform="translate(48, 84)">
      <!-- A con desvios 1,2,3 -->
      <rect width="464" height="60" rx="6" fill="#1C2128" stroke="#30363D"/>
      <circle cx="26" cy="30" r="9" fill="#8B949E"/>
      <text x="46" y="27" fill="#B1BAC4" font-size="13" font-weight="600">Dispatch estancado</text>
      <text x="46" y="45" fill="#8B949E" font-size="11">sin avance hace 42 · reintento 3 de 5</text>
      <circle cx="20" cy="12" r="10" fill="#F85149" stroke="#0D1117" stroke-width="1.5"/>
      <text x="20" y="16" text-anchor="middle" fill="#0D1117" font-size="10" font-weight="700">1</text>
      <circle cx="196" cy="50" r="10" fill="#F85149" stroke="#0D1117" stroke-width="1.5"/>
      <text x="196" y="54" text-anchor="middle" fill="#0D1117" font-size="10" font-weight="700">2</text>
      <circle cx="272" cy="42" r="10" fill="#D29922" stroke="#0D1117" stroke-width="1.5"/>
      <text x="272" y="46" text-anchor="middle" fill="#0D1117" font-size="10" font-weight="700">3</text>
      <rect x="404" y="18" width="44" height="24" rx="12" fill="#21262D"/>
      <text x="426" y="34" text-anchor="middle" fill="#8B949E" font-size="11" font-weight="700">A</text>
      <!-- B con desvios 4,5 -->
      <rect y="76" width="464" height="92" rx="6" fill="#1C2128" stroke="#30363D"/>
      <text x="16" y="24" fill="#E6EDF3" font-size="12" font-weight="600" transform="translate(0,76)">Timeline de dispatch</text>
      <g transform="translate(16, 76)">
        <rect x="0" y="44" width="432" height="4" rx="2" fill="#21262D"/>
        <rect x="0" y="44" width="150" height="4" rx="2" fill="#1890FF"/>
        <circle cx="0" cy="46" r="6" fill="#3FB950"/>
        <circle cx="150" cy="46" r="6" fill="#8B949E"/>
        <circle cx="300" cy="46" r="6" fill="#30363D" stroke="#8B949E"/>
        <circle cx="150" cy="70" r="10" fill="#F85149" stroke="#0D1117" stroke-width="1.5"/>
        <text x="150" y="74" text-anchor="middle" fill="#0D1117" font-size="10" font-weight="700">4</text>
        <circle cx="300" cy="24" r="10" fill="#58A6FF" stroke="#0D1117" stroke-width="1.5"/>
        <text x="300" y="28" text-anchor="middle" fill="#0D1117" font-size="10" font-weight="700">5</text>
      </g>
      <rect x="404" y="94" width="44" height="24" rx="12" fill="#21262D"/>
      <text x="426" y="110" text-anchor="middle" fill="#8B949E" font-size="11" font-weight="700">B</text>
      <!-- C con desvio 6 (regresion) -->
      <rect y="184" width="224" height="88" rx="6" fill="#1C2128" stroke="#30363D"/>
      <text x="16" y="208" fill="#B1BAC4" font-size="12" font-weight="600">Watchdog</text>
      <text x="16" y="228" fill="#E6EDF3" font-size="11">ultimo latido 00:42</text>
      <text x="16" y="248" fill="#8B949E" font-size="10">detectado por: pulpo</text>
      <circle cx="8" cy="184" r="10" fill="#BC8CFF" stroke="#0D1117" stroke-width="1.5"/>
      <text x="8" y="188" text-anchor="middle" fill="#0D1117" font-size="10" font-weight="700">6</text>
      <rect x="168" y="192" width="44" height="24" rx="12" fill="#21262D"/>
      <text x="190" y="208" text-anchor="middle" fill="#8B949E" font-size="11" font-weight="700">C</text>
      <!-- D no verificada -->
      <rect x="240" y="184" width="224" height="88" rx="6" fill="#161B22" stroke="#7D5E10" stroke-dasharray="4 3"/>
      <text x="256" y="212" fill="#D29922" font-size="11" font-weight="600">D · no verificada</text>
      <text x="256" y="232" fill="#8B949E" font-size="10">motivo declarado en cobertura</text>
      <rect x="408" y="192" width="44" height="24" rx="12" fill="#3A2D0B"/>
      <text x="430" y="208" text-anchor="middle" fill="#D29922" font-size="11" font-weight="700">D</text>
    </g>
  </g>

  <!-- =================== 3. INVENTARIO DE DESVIOS AGRUPADO POR SECCION =================== -->
  <rect x="48" y="1066" width="6" height="32" fill="#D29922"/>
  <text x="68" y="1090" fill="#E6EDF3" font-size="20" font-weight="700">Inventario de desvios</text>
  <text x="300" y="1090" fill="#8B949E" font-size="12">6 hallazgos · agrupados por seccion del mockup · ordenados por impacto descendente · sin early-exit</text>

  <!-- === GRUPO A === -->
  <g transform="translate(48, 1118)">
    <rect width="1144" height="34" rx="6" fill="#1F2D3F"/>
    <text x="16" y="23" fill="#58A6FF" font-size="13" font-weight="700">SECCION A · Banner de stall</text>
    <text x="266" y="23" fill="#B1BAC4" font-size="11">3 desvios · 2 alto · 1 medio</text>
    <text x="1128" y="23" text-anchor="end" fill="#8B949E" font-size="11">cobertura: verificada</text>

    <!-- A / item 1 -->
    <rect y="42" width="1144" height="84" rx="6" fill="#1C2128" stroke="#30363D"/>
    <circle cx="32" cy="72" r="14" fill="#F85149"/>
    <text x="32" y="78" text-anchor="middle" fill="#0D1117" font-size="14" font-weight="700">1</text>
    <text x="60" y="70" fill="#E6EDF3" font-size="14" font-weight="700">A3 nunca se pinta en rojo cuando el stall es critico</text>
    <rect x="520" y="56" width="70" height="20" rx="10" fill="#3B1F1B" stroke="#8B1A14"/>
    <text x="555" y="70" text-anchor="middle" fill="#F85149" font-size="10" font-weight="700">ALTO</text>
    <text x="60" y="92" fill="#B1BAC4" font-size="12">Mockup: fondo --semantic-danger-bg + icono --semantic-danger-fg. Entrega: --surface-2 + --text-muted (#8B949E). El estado critico es indistinguible del normal.</text>
    <text x="60" y="112" fill="#8B949E" font-size="11">Impacto · alto · el operador no percibe que el dispatch esta caido y no interviene.</text>

    <!-- A / item 2 -->
    <rect y="134" width="1144" height="84" rx="6" fill="#1C2128" stroke="#30363D"/>
    <circle cx="32" cy="164" r="14" fill="#F85149"/>
    <text x="32" y="170" text-anchor="middle" fill="#0D1117" font-size="14" font-weight="700">2</text>
    <text x="60" y="162" fill="#E6EDF3" font-size="14" font-weight="700">Duracion del stall se muestra sin unidad</text>
    <rect x="480" y="148" width="70" height="20" rx="10" fill="#3B1F1B" stroke="#8B1A14"/>
    <text x="515" y="162" text-anchor="middle" fill="#F85149" font-size="10" font-weight="700">ALTO</text>
    <text x="60" y="184" fill="#B1BAC4" font-size="12">Mockup: "sin avance hace 42 min". Entrega: "sin avance hace 42". El numero pelado se lee como cantidad de reintentos.</text>
    <text x="60" y="204" fill="#8B949E" font-size="11">Impacto · alto · induce a error de diagnostico sobre la severidad del estancamiento.</text>

    <!-- A / item 3 -->
    <rect y="226" width="1144" height="84" rx="6" fill="#1C2128" stroke="#30363D"/>
    <circle cx="32" cy="256" r="14" fill="#D29922"/>
    <text x="32" y="262" text-anchor="middle" fill="#0D1117" font-size="14" font-weight="700">3</text>
    <text x="60" y="254" fill="#E6EDF3" font-size="14" font-weight="700">Linea secundaria del banner pierde contraste</text>
    <rect x="500" y="240" width="80" height="20" rx="10" fill="#3A2D0B" stroke="#7D5E10"/>
    <text x="540" y="254" text-anchor="middle" fill="#D29922" font-size="10" font-weight="700">MEDIO</text>
    <text x="60" y="276" fill="#B1BAC4" font-size="12">Mockup: --text-primary (#E6EDF3) sobre fondo de alerta. Entrega: --text-muted (#8B949E) sobre --surface-2 → ratio 3.4:1, por debajo de AA para 11px.</text>
    <text x="60" y="296" fill="#8B949E" font-size="11">Impacto · medio · el detalle del stall se lee con dificultad, no bloquea la accion principal.</text>
  </g>

  <!-- === GRUPO B === -->
  <g transform="translate(48, 1452)">
    <rect width="1144" height="34" rx="6" fill="#1F2D3F"/>
    <text x="16" y="23" fill="#58A6FF" font-size="13" font-weight="700">SECCION B · Timeline de dispatch</text>
    <text x="296" y="23" fill="#B1BAC4" font-size="11">2 desvios · 1 alto · 1 bajo</text>
    <text x="1128" y="23" text-anchor="end" fill="#8B949E" font-size="11">cobertura: verificada</text>

    <!-- B / item 4 -->
    <rect y="42" width="1144" height="84" rx="6" fill="#1C2128" stroke="#30363D"/>
    <circle cx="32" cy="72" r="14" fill="#F85149"/>
    <text x="32" y="78" text-anchor="middle" fill="#0D1117" font-size="14" font-weight="700">4</text>
    <text x="60" y="70" fill="#E6EDF3" font-size="14" font-weight="700">El backoff no se representa en la timeline</text>
    <rect x="486" y="56" width="70" height="20" rx="10" fill="#3B1F1B" stroke="#8B1A14"/>
    <text x="521" y="70" text-anchor="middle" fill="#F85149" font-size="10" font-weight="700">ALTO</text>
    <text x="60" y="92" fill="#B1BAC4" font-size="12">Mockup: leyenda "backoff 2m → 4m → 8m" bajo el hito en curso, con hito en --semantic-warning. Entrega: hito neutro y sin leyenda de backoff.</text>
    <text x="60" y="112" fill="#8B949E" font-size="11">Impacto · alto · el operador no puede estimar cuando ocurre el proximo reintento y destraba a mano de mas.</text>

    <!-- B / item 5 -->
    <rect y="134" width="1144" height="84" rx="6" fill="#1C2128" stroke="#30363D"/>
    <circle cx="32" cy="164" r="14" fill="#58A6FF"/>
    <text x="32" y="170" text-anchor="middle" fill="#0D1117" font-size="14" font-weight="700">5</text>
    <text x="60" y="162" fill="#E6EDF3" font-size="14" font-weight="700">Marca de reintento usa icono generico del sprite</text>
    <rect x="536" y="148" width="70" height="20" rx="10" fill="#1F2D3F" stroke="#1F4C7A"/>
    <text x="571" y="162" text-anchor="middle" fill="#58A6FF" font-size="10" font-weight="700">BAJO</text>
    <text x="60" y="184" fill="#B1BAC4" font-size="12">Mockup: simbolo #ic-retry del sprite propio. Entrega: circulo sin simbolo. Cosmetico, no altera lectura del estado.</text>
    <text x="60" y="204" fill="#8B949E" font-size="11">Impacto · bajo · consultar con PO antes de bloquear por este item.</text>
  </g>

  <!-- === GRUPO C (con regresion) === -->
  <g transform="translate(48, 1694)">
    <rect width="1144" height="34" rx="6" fill="#2B2140"/>
    <text x="16" y="23" fill="#BC8CFF" font-size="13" font-weight="700">SECCION C · Card de watchdog</text>
    <text x="280" y="23" fill="#B1BAC4" font-size="11">1 desvio · 1 medio</text>
    <text x="1128" y="23" text-anchor="end" fill="#BC8CFF" font-size="11">cobertura: verificada tambien en rev-9 sin desvios</text>

    <!-- C / item 6 -->
    <rect y="42" width="1144" height="96" rx="6" fill="#1C2128" stroke="#4C3A76"/>
    <circle cx="32" cy="72" r="14" fill="#BC8CFF"/>
    <text x="32" y="78" text-anchor="middle" fill="#0D1117" font-size="14" font-weight="700">6</text>
    <text x="60" y="70" fill="#E6EDF3" font-size="14" font-weight="700">La card de watchdog perdio el borde de identidad de marca</text>
    <rect x="580" y="56" width="80" height="20" rx="10" fill="#3A2D0B" stroke="#7D5E10"/>
    <text x="620" y="70" text-anchor="middle" fill="#D29922" font-size="10" font-weight="700">MEDIO</text>
    <rect x="670" y="56" width="110" height="20" rx="10" fill="#2B2140" stroke="#4C3A76"/>
    <text x="725" y="70" text-anchor="middle" fill="#BC8CFF" font-size="10" font-weight="700">REGRESION</text>
    <text x="60" y="92" fill="#B1BAC4" font-size="12">Mockup: borde 2px --brand-blue + titulo --brand-cyan. Entrega: borde 1px --border-default + titulo --text-secondary.</text>
    <text x="60" y="112" fill="#BC8CFF" font-size="11">Tipificado como REGRESION del codigo: la seccion C fue declarada verificada y sin desvios en la pasada rev-9 (visual-coverage-rev9.json).</text>
    <text x="60" y="130" fill="#8B949E" font-size="11">Impacto · medio · no es hallazgo tardio por barrido incompleto — la evidencia de cobertura previa lo distingue y lo deja auditable.</text>
  </g>

  <!-- === Leyenda de truncado declarado (prohibido truncar en silencio) === -->
  <g transform="translate(48, 1856)">
    <rect width="1144" height="44" rx="6" fill="#161B22" stroke="#30363D" stroke-dasharray="4 3"/>
    <circle cx="28" cy="22" r="9" fill="#1F2D3F" stroke="#1F4C7A"/>
    <text x="28" y="26" text-anchor="middle" fill="#58A6FF" font-size="11" font-weight="700">i</text>
    <text x="50" y="20" fill="#E6EDF3" font-size="12" font-weight="600">Mostrando 6 de 6 desvios · tope de render del PDF: 50</text>
    <text x="50" y="36" fill="#8B949E" font-size="11">Si el inventario supera el tope, el reporte declara "50 de N desvios mostrados — inventario completo en qa/evidence/&lt;issue&gt;/visual-comparison.json". Truncar en silencio esta prohibido.</text>
  </g>

  <!-- =================== 4. ACCIONES SUGERIDAS =================== -->
  <rect x="48" y="1932" width="6" height="32" fill="#3FB950"/>
  <text x="68" y="1956" fill="#E6EDF3" font-size="20" font-weight="700">Acciones sugeridas</text>
  <text x="272" y="1956" fill="#8B949E" font-size="12">no normativas · el veredicto final lo toma PO · pensadas para corregir los 6 desvios en una sola iteracion</text>

  <g transform="translate(48, 1980)">
    <rect width="1144" height="126" rx="6" fill="#0F3D26" stroke="#196C2E"/>
    <text x="24" y="30" fill="#3FB950" font-size="14" font-weight="700">→ Rebote a pipeline-dev · 6 desvios en 3 secciones · corregir en un solo pase</text>
    <text x="24" y="54" fill="#E6EDF3" font-size="12">Seccion A (1,2,3): aplicar --semantic-danger-bg/-fg al banner critico, restituir unidad "min" en la duracion, subir la linea secundaria a --text-primary.</text>
    <text x="24" y="74" fill="#E6EDF3" font-size="12">Seccion B (4,5): representar el backoff en la timeline con hito --semantic-warning + leyenda; usar el simbolo #ic-retry del sprite propio.</text>
    <text x="24" y="94" fill="#E6EDF3" font-size="12">Seccion C (6): restituir borde 2px --brand-blue y titulo --brand-cyan de la card. Verificar por que se perdio: es regresion sobre seccion ya aprobada en rev-9.</text>
    <text x="24" y="114" fill="#8B949E" font-size="11">Referencia bloqueante: mockup 47 (definicion · UX · 2026-07-30 · baseline v2). Seccion D queda pendiente de verificar: requiere issue estancado real para alcanzar el estado.</text>
  </g>

  <!-- =================== 5. VARIANTES DEL VEREDICTO =================== -->
  <rect x="48" y="2138" width="6" height="32" fill="#8B949E"/>
  <text x="68" y="2162" fill="#E6EDF3" font-size="20" font-weight="700">Variantes del veredicto</text>
  <text x="300" y="2162" fill="#8B949E" font-size="12">la cobertura se declara siempre · el guardrail de forma discrimina por cobertura, nunca por cantidad de hallazgos</text>

  <!-- Variante A: APROBADO con cobertura -->
  <g transform="translate(48, 2186)">
    <rect width="560" height="130" rx="8" fill="#161B22" stroke="#196C2E"/>
    <rect width="560" height="34" rx="8" fill="#0F3D26"/>
    <rect y="26" width="560" height="8" fill="#0F3D26"/>
    <circle cx="22" cy="17" r="7" fill="#3FB950"/>
    <text x="40" y="22" fill="#3FB950" font-size="13" font-weight="700">APROBADO · cobertura 4 de 4 secciones</text>
    <text x="20" y="60" fill="#E6EDF3" font-size="12">Verificadas: A, B, C, D — sin desvios detectados.</text>
    <text x="20" y="80" fill="#B1BAC4" font-size="11">La declaracion de cobertura es obligatoria tambien en el aprobado: sirve de linea base</text>
    <text x="20" y="98" fill="#B1BAC4" font-size="11">para tipificar como regresion cualquier desvio futuro en esas mismas secciones.</text>
    <text x="20" y="118" fill="#8B949E" font-size="10" font-family="'Cascadia Code', monospace">qa/evidence/5400/visual-coverage-rev13.json</text>
  </g>

  <!-- Variante B: guardrail de forma bloquea -->
  <g transform="translate(632, 2186)">
    <rect width="560" height="130" rx="8" fill="#161B22" stroke="#7D5E10"/>
    <rect width="560" height="34" rx="8" fill="#3A2D0B"/>
    <rect y="26" width="560" height="8" fill="#3A2D0B"/>
    <circle cx="22" cy="17" r="7" fill="#D29922"/>
    <text x="40" y="22" fill="#D29922" font-size="13" font-weight="700">VEREDICTO NO ACEPTADO · re-barrido pedido</text>
    <text x="20" y="60" fill="#E6EDF3" font-size="12">visual-report-shape-gate → block · reason: coverage-incomplete · missing: [C, D]</text>
    <text x="20" y="80" fill="#B1BAC4" font-size="11">El rechazo no rebota al developer hasta completar el barrido. Un reporte de 1 solo</text>
    <text x="20" y="98" fill="#B1BAC4" font-size="11">desvio CON cobertura completa es valido: el discriminante es la cobertura.</text>
    <text x="20" y="118" fill="#8B949E" font-size="10" font-family="'Cascadia Code', monospace">flag VISUAL_REPORT_SHAPE_GATE_ENABLED · default OFF → gate: disabled</text>
  </g>

  <!-- =================== FOOTER =================== -->
  <rect y="2350" width="1240" height="1" fill="#30363D"/>
  <text x="48" y="2378" fill="#8B949E" font-size="11">Intrale Platform · Visual Validation Report v2 (inventario completo) · #5708 · sanitizado via lib/redact.js (sin JWT/emails/URLs firmadas)</text>
  <text x="1192" y="2378" text-anchor="end" fill="#8B949E" font-size="11" font-family="'Cascadia Code', monospace">checksum sha256: 9d2e…41c8</text>
</svg>
