<?xml version="1.0" encoding="UTF-8"?>
<!--
  Mockup 01 — Pantalla "Equipo" estado lleno (LazyColumn con empleados)
  Issue: #2748 (split de #2441 → #2426 → #1949)
  Flavor: business
  Audience: android-dev (referencia visual para implementar)

  Decisiones UX clave documentadas:
  - TopAppBar M3 con título "Equipo" + ícono de menú a la izquierda + acción "Negocio activo" (BusinessSelector) a la derecha.
  - LazyColumn con cards M3 elevation=1, padding 16dp, gap 12dp.
  - Cada item: avatar/iniciales (40dp) + nombre + email + chip de rol + chip de estado + ⋮.
  - Chip de rol: SuggestionChip M3 con leadingIcon (drawable correspondiente) y container tonal (paleta del tema).
  - Chip de estado: AssistChip pequeño con leadingIcon y outline.
  - FAB extendido (Extended FAB) "+ Invitar" anclado bottom-end (visible para OWNER/MANAGER, regla RequireRole).
  - Touch target ≥ 48dp en FAB y ⋮.
  - El último OWNER NO tiene ⋮ visible (anti-error de revocación).
-->
<svg xmlns="http://www.w3.org/2000/svg" viewBox="0 0 412 892" width="412" height="892" font-family="Roboto, Inter, system-ui, sans-serif">

  <!-- ====== background = surface light ====== -->
  <rect width="412" height="892" fill="#F9F9FF"/>

  <!-- ====== Status bar ====== -->
  <rect width="412" height="32" fill="#F9F9FF"/>
  <text x="20" y="22" font-size="13" fill="#191C20" font-weight="500">9:41</text>
  <circle cx="380" cy="16" r="4" fill="#191C20"/>
  <rect x="350" y="12" width="20" height="8" rx="2" fill="#191C20"/>

  <!-- ====== TopAppBar ====== -->
  <rect x="0" y="32" width="412" height="64" fill="#EDEDF4"/>
  <!-- Hamburguesa -->
  <rect x="20" y="60" width="20" height="2" fill="#191C20"/>
  <rect x="20" y="66" width="20" height="2" fill="#191C20"/>
  <rect x="20" y="72" width="20" height="2" fill="#191C20"/>
  <text x="60" y="71" font-size="20" font-weight="500" fill="#191C20">Equipo</text>
  <!-- BusinessSelector dropdown right-side -->
  <rect x="280" y="50" width="118" height="28" rx="14" fill="#DAE2F9"/>
  <text x="294" y="69" font-size="12" fill="#131C2B" font-weight="500">Mi Almacen</text>
  <path d="M380 64 L386 70 L392 64" stroke="#131C2B" stroke-width="2" fill="none" stroke-linecap="round"/>

  <!-- ====== Header section ====== -->
  <text x="20" y="130" font-size="14" fill="#44474E">3 personas en tu equipo</text>

  <!-- ====== Card 1 — OWNER ACTIVO (último OWNER → SIN ⋮) ====== -->
  <g transform="translate(16, 152)">
    <rect width="380" height="100" rx="16" fill="#FFFFFF" stroke="#E2E2E9" stroke-width="1"/>
    <!-- Avatar iniciales -->
    <circle cx="40" cy="50" r="22" fill="#D6E3FF"/>
    <text x="40" y="56" font-size="16" font-weight="600" fill="#001B3E" text-anchor="middle">LL</text>
    <!-- Nombre -->
    <text x="76" y="42" font-size="16" font-weight="500" fill="#191C20">Leonardo Larreta</text>
    <text x="76" y="60" font-size="13" fill="#44474E">leitolarreta@gmail.com</text>
    <!-- Chip rol OWNER (primaryContainer) -->
    <g transform="translate(76, 70)">
      <rect width="76" height="24" rx="8" fill="#D6E3FF"/>
      <!-- ícono corona -->
      <path d="M12 18 L11 13 L14 14.5 L17 11 L20 14.5 L23 13 L22 18 Z" fill="#001B3E"/>
      <text x="32" y="16" font-size="11" font-weight="600" fill="#001B3E">OWNER</text>
    </g>
    <!-- Chip estado ACTIVO -->
    <g transform="translate(160, 70)">
      <rect width="68" height="24" rx="8" fill="none" stroke="#74777F" stroke-width="1"/>
      <circle cx="14" cy="12" r="3" fill="#37BF6E"/>
      <text x="22" y="16" font-size="11" font-weight="500" fill="#191C20">ACTIVO</text>
    </g>
    <!-- (intencionalmente sin ⋮ — último OWNER no admite revocación ni cambio de rol) -->
    <!-- annotation para devs -->
    <text x="295" y="56" font-size="10" fill="#BA1A1A" font-style="italic">(sin ⋮: último OWNER)</text>
  </g>

  <!-- ====== Card 2 — MANAGER ACTIVO ====== -->
  <g transform="translate(16, 264)">
    <rect width="380" height="100" rx="16" fill="#FFFFFF" stroke="#E2E2E9" stroke-width="1"/>
    <circle cx="40" cy="50" r="22" fill="#FAD8FD"/>
    <text x="40" y="56" font-size="16" font-weight="600" fill="#28132E" text-anchor="middle">MR</text>
    <text x="76" y="42" font-size="16" font-weight="500" fill="#191C20">Maria Rodriguez</text>
    <text x="76" y="60" font-size="13" fill="#44474E">maria.r@example.com</text>
    <!-- Chip rol MANAGER (tertiaryContainer) -->
    <g transform="translate(76, 70)">
      <rect width="92" height="24" rx="8" fill="#FAD8FD"/>
      <path d="M16 6 L10 8 V12 C10 15 13 18 16 19 C19 18 22 15 22 12 V8 Z M14 13 L13 12 L12 13 L14 15 L19 10 L18 9 Z" fill="#28132E" transform="scale(0.6) translate(8 6)"/>
      <text x="32" y="16" font-size="11" font-weight="600" fill="#28132E">MANAGER</text>
    </g>
    <!-- Chip estado ACTIVO -->
    <g transform="translate(176, 70)">
      <rect width="68" height="24" rx="8" fill="none" stroke="#74777F" stroke-width="1"/>
      <circle cx="14" cy="12" r="3" fill="#37BF6E"/>
      <text x="22" y="16" font-size="11" font-weight="500" fill="#191C20">ACTIVO</text>
    </g>
    <!-- ⋮ menú contextual -->
    <g transform="translate(340, 38)">
      <rect width="24" height="24" rx="12" fill="none"/>
      <circle cx="12" cy="6" r="2" fill="#44474E"/>
      <circle cx="12" cy="12" r="2" fill="#44474E"/>
      <circle cx="12" cy="18" r="2" fill="#44474E"/>
    </g>
  </g>

  <!-- ====== Card 3 — CASHIER PENDIENTE ====== -->
  <g transform="translate(16, 376)">
    <rect width="380" height="100" rx="16" fill="#FFFFFF" stroke="#E2E2E9" stroke-width="1"/>
    <circle cx="40" cy="50" r="22" fill="#DAE2F9"/>
    <text x="40" y="56" font-size="16" font-weight="600" fill="#131C2B" text-anchor="middle">JG</text>
    <text x="76" y="42" font-size="16" font-weight="500" fill="#191C20">Juan Gomez</text>
    <text x="76" y="60" font-size="13" fill="#44474E">j***@***.com</text>
    <!-- Chip rol CASHIER (secondaryContainer) -->
    <g transform="translate(76, 70)">
      <rect width="86" height="24" rx="8" fill="#DAE2F9"/>
      <rect x="9" y="9" width="14" height="8" rx="1" fill="none" stroke="#131C2B" stroke-width="1.4"/>
      <text x="32" y="16" font-size="11" font-weight="600" fill="#131C2B">CASHIER</text>
    </g>
    <!-- Chip estado PENDIENTE (tertiaryContainer) -->
    <g transform="translate(170, 70)">
      <rect width="84" height="24" rx="8" fill="#FAD8FD"/>
      <circle cx="13" cy="12" r="5" fill="none" stroke="#28132E" stroke-width="1.4"/>
      <line x1="13" y1="12" x2="13" y2="9" stroke="#28132E" stroke-width="1.4" stroke-linecap="round"/>
      <line x1="13" y1="12" x2="15.5" y2="13" stroke="#28132E" stroke-width="1.4" stroke-linecap="round"/>
      <text x="24" y="16" font-size="11" font-weight="600" fill="#28132E">PENDIENTE</text>
    </g>
    <!-- ⋮ -->
    <g transform="translate(340, 38)">
      <circle cx="12" cy="6" r="2" fill="#44474E"/>
      <circle cx="12" cy="12" r="2" fill="#44474E"/>
      <circle cx="12" cy="18" r="2" fill="#44474E"/>
    </g>
  </g>

  <!-- ====== Card 4 — EMPLOYEE REVOCADO ====== -->
  <g transform="translate(16, 488)" opacity="0.65">
    <rect width="380" height="100" rx="16" fill="#FFFFFF" stroke="#E2E2E9" stroke-width="1"/>
    <circle cx="40" cy="50" r="22" fill="#E7E8EE"/>
    <text x="40" y="56" font-size="16" font-weight="600" fill="#191C20" text-anchor="middle">PS</text>
    <text x="76" y="42" font-size="16" font-weight="500" fill="#191C20">Pedro Suarez</text>
    <text x="76" y="60" font-size="13" fill="#44474E">p***@***.com</text>
    <!-- Chip rol EMPLOYEE (surfaceContainerHigh) -->
    <g transform="translate(76, 70)">
      <rect width="100" height="24" rx="8" fill="#E7E8EE"/>
      <circle cx="14" cy="10" r="3" fill="none" stroke="#191C20" stroke-width="1.4"/>
      <path d="M9 18 Q14 14 19 18" fill="none" stroke="#191C20" stroke-width="1.4"/>
      <text x="32" y="16" font-size="11" font-weight="600" fill="#191C20">EMPLOYEE</text>
    </g>
    <!-- Chip estado REVOCADO (errorContainer) -->
    <g transform="translate(184, 70)">
      <rect width="92" height="24" rx="8" fill="#FFDAD6"/>
      <line x1="9" y1="8" x2="17" y2="16" stroke="#410002" stroke-width="2" stroke-linecap="round"/>
      <line x1="17" y1="8" x2="9" y2="16" stroke="#410002" stroke-width="2" stroke-linecap="round"/>
      <text x="24" y="16" font-size="11" font-weight="600" fill="#410002">REVOCADO</text>
    </g>
    <!-- (sin ⋮ — revocado no permite acciones) -->
  </g>

  <!-- ====== Extended FAB "+ Invitar" ====== -->
  <g transform="translate(252, 808)">
    <rect width="144" height="56" rx="16" fill="#415F91"/>
    <line x1="22" y1="28" x2="34" y2="28" stroke="#FFFFFF" stroke-width="2.5" stroke-linecap="round"/>
    <line x1="28" y1="22" x2="28" y2="34" stroke="#FFFFFF" stroke-width="2.5" stroke-linecap="round"/>
    <text x="46" y="34" font-size="14" font-weight="600" fill="#FFFFFF">Invitar</text>
  </g>

  <!-- ====== Notas para devs ====== -->
  <g transform="translate(16, 620)" opacity="0.85">
    <rect width="380" height="160" rx="12" fill="#EDEDF4" stroke="#C4C6D0" stroke-width="1" stroke-dasharray="4 4"/>
    <text x="16" y="24" font-size="11" font-weight="700" fill="#191C20">NOTAS DEV (no se renderiza en runtime)</text>
    <text x="16" y="44" font-size="10" fill="#44474E">• TopAppBar M3 (CenterAligned o Small) con título "Equipo" + BusinessSelector</text>
    <text x="16" y="60" font-size="10" fill="#44474E">• LazyColumn padding 16dp, items con elevation=1, gap 12dp</text>
    <text x="16" y="76" font-size="10" fill="#44474E">• Avatar 40dp (Image o Box con iniciales). ContentDescription: "Avatar de [nombre]"</text>
    <text x="16" y="92" font-size="10" fill="#44474E">• Chips: SuggestionChip de M3, leadingIcon=ic_team_role_*.xml, container tonal del tema</text>
    <text x="16" y="108" font-size="10" fill="#44474E">• ⋮ IconButton 48dp touch target. ContentDescription: "Acciones de [nombre]"</text>
    <text x="16" y="124" font-size="10" fill="#44474E">• ÚLTIMO OWNER: el ViewModel devuelve 0 acciones — NO renderizar el ⋮ (visibilidad, no disabled)</text>
    <text x="16" y="140" font-size="10" fill="#44474E">• Email enmascarado para invitaciones pendientes/revocadas: "j***@***.com" en UI observable</text>
    <text x="16" y="156" font-size="10" fill="#BA1A1A">• RequireRole(setOf(OWNER, MANAGER)) wrap obligatorio</text>
  </g>

</svg>
